HelveticaNeueLTPro-Roman.ufo
<glyph name="exclam" format="1">
  <advance width="259"/>
  <unicode hex="0021"/>
  <outline>
    <contour>
      <point x="74" y="0" type="line"/>
      <point x="74" y="111" type="line"/>
      <point x="185" y="111" type="line"/>
      <point x="185" y="0" type="line"/>
    </contour>
    <contour>
      <point x="177" y="714" type="line"/>
      <point x="177" y="494" type="line"/>
      <point x="152" y="183" type="line"/>
      <point x="107" y="183" type="line"/>
      <point x="82" y="494" type="line"/>
      <point x="82" y="714" type="line"/>
    </contour>
  </outline>
</glyph>
<glyph name="quotedbl" format="1">
  <advance width="426"/>
  <unicode hex="0022"/>
  <outline>
    <contour>
      <point x="249" y="456" type="line"/>
      <point x="249" y="714" type="line"/>
      <point x="317" y="714" type="line"/>
      <point x="317" y="456" type="line"/>
    </contour>
    <contour>
      <point x="109" y="456" type="line"/>
      <point x="109" y="714" type="line"/>
      <point x="177" y="714" type="line"/>
      <point x="177" y="456" type="line"/>
    </contour>
  </outline>
</glyph>
<glyph name="numbersign" format="1">
  <advance width="556"/>
  <unicode hex="0023"/>
  <outline>
    <contour>
      <point x="355" y="424" type="line"/>
      <point x="231" y="424" type="line"/>
      <point x="210" y="274" type="line"/>
      <point x="334" y="274" type="line"/>
    </contour>
    <contour>
      <point x="102" y="0" type="line"/>
      <point x="131" y="206" type="line"/>
      <point x="34" y="206" type="line"/>
      <point x="34" y="274" type="line"/>
      <point x="141" y="274" type="line"/>
      <point x="162" y="424" type="line"/>
      <point x="60" y="424" type="line"/>
      <point x="60" y="492" type="line"/>
      <point x="171" y="492" type="line"/>
      <point x="200" y="697" type="line"/>
      <point x="269" y="697" type="line"/>
      <point x="240" y="492" type="line"/>
      <point x="364" y="492" type="line"/>
      <point x="393" y="697" type="line"/>
      <point x="462" y="697" type="line"/>
      <point x="433" y="492" type="line"/>
      <point x="522" y="492" type="line"/>
      <point x="522" y="424" type="line"/>
      <point x="424" y="424" type="line"/>
      <point x="403" y="274" type="line"/>
      <point x="494" y="274" type="line"/>
      <point x="494" y="206" type="line"/>
      <point x="393" y="206" type="line"/>
      <point x="364" y="0" type="line"/>
      <point x="295" y="0" type="line"/>
      <point x="324" y="206" type="line"/>
      <point x="200" y="206" type="line"/>
      <point x="171" y="0" type="line"/>
    </contour>
  </outline>
</glyph>
<glyph name="dollar" format="1">
  <advance width="556"/>
  <unicode hex="0024"/>
  <outline>
    <contour>
      <point x="25" y="218" type="curve"/>
      <point x="110" y="218" type="line"/>
      <point x="113" y="129"/>
      <point x="171" y="76"/>
      <point x="251" y="63" type="curve"/>
      <point x="251" y="328" type="line"/>
      <point x="110" y="363"/>
      <point x="46" y="403"/>
      <point x="46" y="521" type="curve" smooth="yes"/>
      <point x="46" y="642"/>
      <point x="136" y="723"/>
      <point x="251" y="731" type="curve"/>
      <point x="251" y="797" type="line"/>
      <point x="306" y="797" type="line"/>
      <point x="306" y="730" type="line"/>
      <point x="414" y="717"/>
      <point x="476" y="648"/>
      <point x="503" y="532" type="curve"/>
      <point x="418" y="532" type="line"/>
      <point x="405" y="598"/>
      <point x="367" y="637"/>
      <point x="306" y="648" type="curve"/>
      <point x="306" y="402" type="line"/>
      <point x="366" y="386" type="line" smooth="yes"/>
      <point x="418" y="372"/>
      <point x="525" y="323"/>
      <point x="525" y="200" type="curve" smooth="yes"/>
      <point x="525" y="71"/>
      <point x="433" y="-6"/>
      <point x="306" y="-17" type="curve"/>
      <point x="306" y="-99" type="line"/>
      <point x="251" y="-99" type="line"/>
      <point x="251" y="-17" type="line"/>
      <point x="119" y="-4"/>
      <point x="36" y="79"/>
    </contour>
    <contour>
      <point x="306" y="314" type="curve"/>
      <point x="306" y="63" type="line"/>
      <point x="381" y="68"/>
      <point x="435" y="105"/>
      <point x="435" y="191" type="curve" smooth="yes"/>
      <point x="435" y="267"/>
      <point x="379" y="292"/>
    </contour>
    <contour>
      <point x="251" y="417" type="curve"/>
      <point x="251" y="651" type="line"/>
      <point x="187" y="644"/>
      <point x="136" y="606"/>
      <point x="136" y="530" type="curve" smooth="yes"/>
      <point x="136" y="460"/>
      <point x="184" y="436"/>
    </contour>
  </outline>
</glyph>
<glyph name="percent" format="1">
  <advance width="1000"/>
  <unicode hex="0025"/>
  <outline>
    <contour>
      <point x="167" y="508" type="curve" smooth="yes"/>
      <point x="167" y="449"/>
      <point x="176" y="363"/>
      <point x="251" y="363" type="curve" smooth="yes"/>
      <point x="327" y="363"/>
      <point x="339" y="447"/>
      <point x="339" y="509" type="curve" smooth="yes"/>
      <point x="339" y="568"/>
      <point x="330" y="654"/>
      <point x="254" y="654" type="curve" smooth="yes"/>
      <point x="179" y="654"/>
      <point x="167" y="568"/>
    </contour>
    <contour>
      <point x="92" y="506" type="curve" smooth="yes"/>
      <point x="92" y="614"/>
      <point x="131" y="709"/>
      <point x="254" y="709" type="curve" smooth="yes"/>
      <point x="378" y="709"/>
      <point x="414" y="618"/>
      <point x="414" y="509" type="curve" smooth="yes"/>
      <point x="414" y="405"/>
      <point x="370" y="308"/>
      <point x="254" y="308" type="curve" smooth="yes"/>
      <point x="134" y="308"/>
      <point x="92" y="397"/>
    </contour>
    <contour>
      <point x="661" y="188" type="curve" smooth="yes"/>
      <point x="661" y="129"/>
      <point x="670" y="43"/>
      <point x="745" y="43" type="curve" smooth="yes"/>
      <point x="821" y="43"/>
      <point x="833" y="127"/>
      <point x="833" y="189" type="curve" smooth="yes"/>
      <point x="833" y="248"/>
      <point x="824" y="334"/>
      <point x="748" y="334" type="curve" smooth="yes"/>
      <point x="673" y="334"/>
      <point x="661" y="248"/>
    </contour>
    <contour>
      <point x="586" y="186" type="curve" smooth="yes"/>
      <point x="586" y="294"/>
      <point x="625" y="389"/>
      <point x="748" y="389" type="curve" smooth="yes"/>
      <point x="872" y="389"/>
      <point x="908" y="298"/>
      <point x="908" y="189" type="curve" smooth="yes"/>
      <point x="908" y="85"/>
      <point x="864" y="-12"/>
      <point x="748" y="-12" type="curve" smooth="yes"/>
      <point x="628" y="-12"/>
      <point x="586" y="77"/>
    </contour>
    <contour>
      <point x="188" y="-22" type="line"/>
      <point x="726" y="722" type="line"/>
      <point x="811" y="722" type="line"/>
      <point x="274" y="-22" type="line"/>
    </contour>
  </outline>
</glyph>
<glyph name="ampersand" format="1">
  <advance width="630"/>
  <unicode hex="0026"/>
  <outline>
    <contour>
      <point x="275" y="439" type="curve"/>
      <point x="316" y="466"/>
      <point x="370" y="501"/>
      <point x="370" y="563" type="curve" smooth="yes"/>
      <point x="370" y="604"/>
      <point x="339" y="639"/>
      <point x="288" y="639" type="curve" smooth="yes"/>
      <point x="248" y="639"/>
      <point x="206" y="615"/>
      <point x="206" y="563" type="curve" smooth="yes"/>
      <point x="206" y="520"/>
      <point x="244" y="478"/>
    </contour>
    <contour>
      <point x="534" y="0" type="line"/>
      <point x="458" y="89" type="line"/>
      <point x="415" y="22"/>
      <point x="334" y="-12"/>
      <point x="256" y="-12" type="curve" smooth="yes"/>
      <point x="63" y="-12"/>
      <point x="33" y="125"/>
      <point x="33" y="183" type="curve" smooth="yes"/>
      <point x="33" y="294"/>
      <point x="109" y="351"/>
      <point x="200" y="399" type="curve"/>
      <point x="160" y="455"/>
      <point x="121" y="495"/>
      <point x="121" y="567" type="curve" smooth="yes"/>
      <point x="121" y="644"/>
      <point x="178" y="714"/>
      <point x="282" y="714" type="curve" smooth="yes"/>
      <point x="371" y="714"/>
      <point x="455" y="665"/>
      <point x="455" y="568" type="curve" smooth="yes"/>
      <point x="455" y="482"/>
      <point x="390" y="423"/>
      <point x="321" y="383" type="curve"/>
      <point x="450" y="226" type="line"/>
      <point x="463" y="262"/>
      <point x="471" y="299"/>
      <point x="473" y="337" type="curve"/>
      <point x="554" y="337" type="line"/>
      <point x="546" y="251"/>
      <point x="536" y="226"/>
      <point x="506" y="161" type="curve"/>
      <point x="645" y="0" type="line"/>
    </contour>
    <contour>
      <point x="411" y="148" type="curve"/>
      <point x="247" y="345" type="line"/>
      <point x="180" y="308"/>
      <point x="123" y="268"/>
      <point x="123" y="184" type="curve" smooth="yes"/>
      <point x="123" y="112"/>
      <point x="190" y="63"/>
      <point x="259" y="63" type="curve" smooth="yes"/>
      <point x="324" y="63"/>
      <point x="376" y="96"/>
    </contour>
  </outline>
</glyph>
<glyph name="quotesingle" format="1">
  <advance width="278"/>
  <unicode hex="0027"/>
  <outline>
    <contour>
      <point x="105" y="456" type="line"/>
      <point x="105" y="714" type="line"/>
      <point x="173" y="714" type="line"/>
      <point x="173" y="456" type="line"/>
    </contour>
  </outline>
</glyph>
<glyph name="parenleft" format="1">
  <advance width="259"/>
  <unicode hex="0028"/>
  <outline>
    <contour>
      <point x="269" y="-198" type="curve"/>
      <point x="204" y="-198" type="line"/>
      <point x="108" y="-49"/>
      <point x="47" y="95"/>
      <point x="47" y="270" type="curve" smooth="yes"/>
      <point x="47" y="427"/>
      <point x="101" y="594"/>
      <point x="204" y="731" type="curve"/>
      <point x="269" y="731" type="line"/>
      <point x="173" y="580"/>
      <point x="137" y="433"/>
      <point x="137" y="270" type="curve" smooth="yes"/>
      <point x="137" y="102"/>
      <point x="174" y="-45"/>
    </contour>
  </outline>
</glyph>
<glyph name="parenright" format="1">
  <advance width="259"/>
  <unicode hex="0029"/>
  <outline>
    <contour>
      <point x="55" y="-198" type="curve"/>
      <point x="-10" y="-198" type="line"/>
      <point x="86" y="-47"/>
      <point x="122" y="100"/>
      <point x="122" y="263" type="curve" smooth="yes"/>
      <point x="122" y="431"/>
      <point x="85" y="578"/>
      <point x="-10" y="731" type="curve"/>
      <point x="55" y="731" type="line"/>
      <point x="151" y="582"/>
      <point x="212" y="438"/>
      <point x="212" y="263" type="curve" smooth="yes"/>
      <point x="212" y="106"/>
      <point x="158" y="-61"/>
    </contour>
  </outline>
</glyph>
<glyph name="asterisk" format="1">
  <advance width="352"/>
  <unicode hex="002A"/>
  <outline>
    <contour>
      <point x="201" y="714" type="line"/>
      <point x="201" y="601" type="line"/>
      <point x="308" y="641" type="line"/>
      <point x="328" y="593" type="line"/>
      <point x="219" y="555" type="line"/>
      <point x="285" y="464" type="line"/>
      <point x="244" y="433" type="line"/>
      <point x="175" y="529" type="line"/>
      <point x="110" y="433" type="line"/>
      <point x="65" y="464" type="line"/>
      <point x="130" y="555" type="line"/>
      <point x="24" y="593" type="line"/>
      <point x="42" y="641" type="line"/>
      <point x="148" y="601" type="line"/>
      <point x="148" y="714" type="line"/>
    </contour>
  </outline>
</glyph>
<glyph name="plus" format="1">
  <advance width="600"/>
  <unicode hex="002B"/>
  <outline>
    <contour>
      <point x="334" y="506" type="line"/>
      <point x="334" y="287" type="line"/>
      <point x="552" y="287" type="line"/>
      <point x="552" y="219" type="line"/>
      <point x="334" y="219" type="line"/>
      <point x="334" y="0" type="line"/>
      <point x="266" y="0" type="line"/>
      <point x="266" y="219" type="line"/>
      <point x="48" y="219" type="line"/>
      <point x="48" y="287" type="line"/>
      <point x="266" y="287" type="line"/>
      <point x="266" y="506" type="line"/>
    </contour>
  </outline>
</glyph>
<glyph name="period" format="1">
  <advance width="278"/>
  <unicode hex="002E"/>
  <outline>
    <contour>
      <point x="83" y="0" type="line"/>
      <point x="83" y="111" type="line"/>
      <point x="194" y="111" type="line"/>
      <point x="194" y="0" type="line"/>
    </contour>
  </outline>
</glyph>
<glyph name="slash" format="1">
  <advance width="333"/>
  <unicode hex="002F"/>
  <outline>
    <contour>
      <point x="-18" y="-17" type="line"/>
      <point x="278" y="731" type="line"/>
      <point x="351" y="731" type="line"/>
      <point x="55" y="-17" type="line"/>
    </contour>
  </outline>
</glyph>
<glyph name="zero" format="1">
  <advance width="556"/>
  <unicode hex="0030"/>
  <outline>
    <contour>
      <point x="132" y="349" type="curve" smooth="yes"/>
      <point x="132" y="243"/>
      <point x="133" y="63"/>
      <point x="278" y="63" type="curve" smooth="yes"/>
      <point x="423" y="63"/>
      <point x="424" y="243"/>
      <point x="424" y="349" type="curve" smooth="yes"/>
      <point x="424" y="454"/>
      <point x="423" y="634"/>
      <point x="278" y="634" type="curve" smooth="yes"/>
      <point x="133" y="634"/>
      <point x="132" y="454"/>
    </contour>
    <contour>
      <point x="42" y="348" type="curve" smooth="yes"/>
      <point x="42" y="504"/>
      <point x="56" y="709"/>
      <point x="278" y="709" type="curve" smooth="yes"/>
      <point x="500" y="709"/>
      <point x="514" y="504"/>
      <point x="514" y="348" type="curve" smooth="yes"/>
      <point x="514" y="192"/>
      <point x="500" y="-12"/>
      <point x="278" y="-12" type="curve" smooth="yes"/>
      <point x="56" y="-12"/>
      <point x="42" y="192"/>
    </contour>
  </outline>
</glyph>
<glyph name="one" format="1">
  <advance width="556"/>
  <unicode hex="0031"/>
  <outline>
    <contour>
      <point x="356" y="709" type="line"/>
      <point x="356" y="0" type="line"/>
      <point x="271" y="0" type="line"/>
      <point x="271" y="508" type="line"/>
      <point x="87" y="508" type="line"/>
      <point x="87" y="576" type="line"/>
      <point x="184" y="576"/>
      <point x="272" y="601"/>
      <point x="291" y="709" type="curve"/>
    </contour>
  </outline>
</glyph>
<glyph name="two" format="1">
  <advance width="556"/>
  <unicode hex="0032"/>
  <outline>
    <contour>
      <point x="129" y="458" type="curve"/>
      <point x="44" y="458" type="line"/>
      <point x="36" y="602"/>
      <point x="122" y="709"/>
      <point x="272" y="709" type="curve" smooth="yes"/>
      <point x="395" y="709"/>
      <point x="494" y="637"/>
      <point x="494" y="505" type="curve" smooth="yes"/>
      <point x="494" y="380"/>
      <point x="410" y="318"/>
      <point x="322" y="262" type="curve" smooth="yes"/>
      <point x="234" y="209"/>
      <point x="139" y="162"/>
      <point x="123" y="75" type="curve"/>
      <point x="487" y="75" type="line"/>
      <point x="487" y="0" type="line"/>
      <point x="24" y="0" type="line"/>
      <point x="37" y="167"/>
      <point x="123" y="230"/>
      <point x="223" y="290" type="curve" smooth="yes"/>
      <point x="343" y="365"/>
      <point x="404" y="407"/>
      <point x="404" y="506" type="curve" smooth="yes"/>
      <point x="404" y="583"/>
      <point x="342" y="634"/>
      <point x="267" y="634" type="curve" smooth="yes"/>
      <point x="168" y="634"/>
      <point x="126" y="543"/>
    </contour>
  </outline>
</glyph>
<glyph name="three" format="1">
  <advance width="556"/>
  <unicode hex="0033"/>
  <outline>
    <contour>
      <point x="218" y="333" type="curve"/>
      <point x="218" y="405" type="line"/>
      <point x="225" y="404"/>
      <point x="231" y="404"/>
      <point x="237" y="404" type="curve" smooth="yes"/>
      <point x="255" y="404" type="line" smooth="yes"/>
      <point x="327" y="404"/>
      <point x="390" y="444"/>
      <point x="390" y="520" type="curve" smooth="yes"/>
      <point x="390" y="595"/>
      <point x="336" y="634"/>
      <point x="264" y="634" type="curve" smooth="yes"/>
      <point x="172" y="634"/>
      <point x="130" y="563"/>
      <point x="130" y="480" type="curve"/>
      <point x="45" y="480" type="line"/>
      <point x="50" y="615"/>
      <point x="122" y="709"/>
      <point x="264" y="709" type="curve" smooth="yes"/>
      <point x="387" y="709"/>
      <point x="480" y="650"/>
      <point x="480" y="519" type="curve" smooth="yes"/>
      <point x="480" y="456"/>
      <point x="437" y="403"/>
      <point x="382" y="378" type="curve"/>
      <point x="382" y="376" type="line"/>
      <point x="469" y="357"/>
      <point x="510" y="289"/>
      <point x="510" y="204" type="curve" smooth="yes"/>
      <point x="510" y="63"/>
      <point x="399" y="-12"/>
      <point x="266" y="-12" type="curve" smooth="yes"/>
      <point x="122" y="-12"/>
      <point x="27" y="72"/>
      <point x="30" y="219" type="curve"/>
      <point x="115" y="219" type="line"/>
      <point x="118" y="127"/>
      <point x="169" y="63"/>
      <point x="266" y="63" type="curve" smooth="yes"/>
      <point x="349" y="63"/>
      <point x="420" y="115"/>
      <point x="420" y="200" type="curve" smooth="yes"/>
      <point x="420" y="289"/>
      <point x="353" y="336"/>
      <point x="269" y="336" type="curve" smooth="yes"/>
      <point x="251" y="336"/>
      <point x="234" y="335"/>
    </contour>
  </outline>
</glyph>
<glyph name="four" format="1">
  <advance width="556"/>
  <unicode hex="0034"/>
  <outline>
    <contour>
      <point x="101" y="241" type="line"/>
      <point x="339" y="241" type="line"/>
      <point x="339" y="588" type="line"/>
      <point x="337" y="588" type="line"/>
    </contour>
    <contour>
      <point x="419" y="709" type="line"/>
      <point x="419" y="241" type="line"/>
      <point x="515" y="241" type="line"/>
      <point x="515" y="166" type="line"/>
      <point x="419" y="166" type="line"/>
      <point x="419" y="0" type="line"/>
      <point x="339" y="0" type="line"/>
      <point x="339" y="166" type="line"/>
      <point x="28" y="166" type="line"/>
      <point x="28" y="248" type="line"/>
      <point x="351" y="709" type="line"/>
    </contour>
  </outline>
</glyph>
<glyph name="five" format="1">
  <advance width="556"/>
  <unicode hex="0035"/>
  <outline>
    <contour>
      <point x="470" y="697" type="line"/>
      <point x="470" y="622" type="line"/>
      <point x="184" y="622" type="line"/>
      <point x="146" y="418" type="line"/>
      <point x="148" y="416" type="line"/>
      <point x="179" y="451"/>
      <point x="232" y="467"/>
      <point x="280" y="467" type="curve" smooth="yes"/>
      <point x="406" y="467"/>
      <point x="509" y="387"/>
      <point x="509" y="224" type="curve" smooth="yes"/>
      <point x="509" y="104"/>
      <point x="426" y="-12"/>
      <point x="261" y="-12" type="curve" smooth="yes"/>
      <point x="138" y="-12"/>
      <point x="38" y="63"/>
      <point x="35" y="191" type="curve"/>
      <point x="120" y="191" type="line"/>
      <point x="125" y="118"/>
      <point x="184" y="63"/>
      <point x="269" y="63" type="curve" smooth="yes"/>
      <point x="350" y="63"/>
      <point x="419" y="119"/>
      <point x="419" y="231" type="curve" smooth="yes"/>
      <point x="419" y="324"/>
      <point x="355" y="392"/>
      <point x="259" y="392" type="curve" smooth="yes"/>
      <point x="204" y="392"/>
      <point x="160" y="365"/>
      <point x="127" y="325" type="curve"/>
      <point x="54" y="329" type="line"/>
      <point x="120" y="697" type="line"/>
    </contour>
  </outline>
</glyph>
<glyph name="six" format="1">
  <advance width="556"/>
  <unicode hex="0036"/>
  <outline>
    <contour>
      <point x="499" y="528" type="curve"/>
      <point x="414" y="528" type="line"/>
      <point x="406" y="592"/>
      <point x="363" y="634"/>
      <point x="295" y="634" type="curve" smooth="yes"/>
      <point x="151" y="634"/>
      <point x="126" y="474"/>
      <point x="123" y="365" type="curve"/>
      <point x="125" y="363" type="line"/>
      <point x="165" y="428"/>
      <point x="225" y="456"/>
      <point x="302" y="456" type="curve" smooth="yes"/>
      <point x="438" y="456"/>
      <point x="519" y="357"/>
      <point x="519" y="226" type="curve" smooth="yes"/>
      <point x="519" y="122"/>
      <point x="461" y="-12"/>
      <point x="282" y="-12" type="curve" smooth="yes"/>
      <point x="71" y="-12"/>
      <point x="38" y="181"/>
      <point x="38" y="329" type="curve" smooth="yes"/>
      <point x="38" y="524"/>
      <point x="97" y="709"/>
      <point x="299" y="709" type="curve" smooth="yes"/>
      <point x="416" y="709"/>
      <point x="488" y="644"/>
    </contour>
    <contour>
      <point x="286" y="381" type="curve" smooth="yes"/>
      <point x="191" y="381"/>
      <point x="139" y="310"/>
      <point x="139" y="221" type="curve" smooth="yes"/>
      <point x="139" y="133"/>
      <point x="193" y="63"/>
      <point x="286" y="63" type="curve" smooth="yes"/>
      <point x="378" y="63"/>
      <point x="429" y="136"/>
      <point x="429" y="220" type="curve" smooth="yes"/>
      <point x="429" y="308"/>
      <point x="383" y="381"/>
    </contour>
  </outline>
</glyph>
<glyph name="seven" format="1">
  <advance width="556"/>
  <unicode hex="0037"/>
  <outline>
    <contour>
      <point x="509" y="697" type="line"/>
      <point x="509" y="624" type="line"/>
      <point x="366" y="483"/>
      <point x="250" y="221"/>
      <point x="237" y="0" type="curve"/>
      <point x="142" y="0" type="line"/>
      <point x="158" y="240"/>
      <point x="273" y="460"/>
      <point x="422" y="617" type="curve"/>
      <point x="50" y="617" type="line"/>
      <point x="50" y="697" type="line"/>
    </contour>
  </outline>
</glyph>
<glyph name="eight" format="1">
  <advance width="556"/>
  <unicode hex="0038"/>
  <outline>
    <contour>
      <point x="155" y="525" type="curve" smooth="yes"/>
      <point x="155" y="448"/>
      <point x="212" y="411"/>
      <point x="281" y="411" type="curve" smooth="yes"/>
      <point x="349" y="411"/>
      <point x="398" y="453"/>
      <point x="398" y="525" type="curve" smooth="yes"/>
      <point x="398" y="597"/>
      <point x="348" y="634"/>
      <point x="279" y="634" type="curve" smooth="yes"/>
      <point x="211" y="634"/>
      <point x="155" y="596"/>
    </contour>
    <contour>
      <point x="65" y="528" type="curve" smooth="yes"/>
      <point x="65" y="644"/>
      <point x="164" y="709"/>
      <point x="273" y="709" type="curve" smooth="yes"/>
      <point x="428" y="709"/>
      <point x="488" y="619"/>
      <point x="488" y="528" type="curve" smooth="yes"/>
      <point x="488" y="464"/>
      <point x="449" y="408"/>
      <point x="390" y="381" type="curve"/>
      <point x="475" y="354"/>
      <point x="516" y="292"/>
      <point x="516" y="204" type="curve" smooth="yes"/>
      <point x="516" y="67"/>
      <point x="412" y="-12"/>
      <point x="281" y="-12" type="curve" smooth="yes"/>
      <point x="145" y="-12"/>
      <point x="40" y="60"/>
      <point x="40" y="204" type="curve" smooth="yes"/>
      <point x="40" y="288"/>
      <point x="84" y="353"/>
      <point x="164" y="381" type="curve"/>
      <point x="104" y="405"/>
      <point x="65" y="464"/>
    </contour>
    <contour>
      <point x="130" y="200" type="curve" smooth="yes"/>
      <point x="130" y="115"/>
      <point x="193" y="63"/>
      <point x="281" y="63" type="curve" smooth="yes"/>
      <point x="366" y="63"/>
      <point x="426" y="122"/>
      <point x="426" y="201" type="curve" smooth="yes"/>
      <point x="426" y="277"/>
      <point x="360" y="336"/>
      <point x="280" y="336" type="curve" smooth="yes"/>
      <point x="196" y="336"/>
      <point x="130" y="283"/>
    </contour>
  </outline>
</glyph>
<glyph name="nine" format="1">
  <advance width="556"/>
  <unicode hex="0039"/>
  <outline>
    <contour>
      <point x="49" y="171" type="curve"/>
      <point x="134" y="171" type="line"/>
      <point x="141" y="102"/>
      <point x="196" y="63"/>
      <point x="264" y="63" type="curve" smooth="yes"/>
      <point x="368" y="63"/>
      <point x="419" y="153"/>
      <point x="424" y="337" type="curve"/>
      <point x="422" y="339" type="line"/>
      <point x="390" y="279"/>
      <point x="327" y="241"/>
      <point x="258" y="241" type="curve" smooth="yes"/>
      <point x="113" y="241"/>
      <point x="34" y="338"/>
      <point x="34" y="478" type="curve" smooth="yes"/>
      <point x="34" y="614"/>
      <point x="130" y="709"/>
      <point x="267" y="709" type="curve" smooth="yes"/>
      <point x="399" y="709"/>
      <point x="510" y="638"/>
      <point x="510" y="370" type="curve" smooth="yes"/>
      <point x="510" y="125"/>
      <point x="436" y="-12"/>
      <point x="264" y="-12" type="curve" smooth="yes"/>
      <point x="145" y="-12"/>
      <point x="60" y="49"/>
    </contour>
    <contour>
      <point x="409" y="472" type="curve" smooth="yes"/>
      <point x="409" y="559"/>
      <point x="358" y="634"/>
      <point x="263" y="634" type="curve" smooth="yes"/>
      <point x="162" y="634"/>
      <point x="124" y="553"/>
      <point x="124" y="466" type="curve" smooth="yes"/>
      <point x="124" y="389"/>
      <point x="182" y="316"/>
      <point x="264" y="316" type="curve" smooth="yes"/>
      <point x="353" y="316"/>
      <point x="409" y="388"/>
    </contour>
  </outline>
</glyph>
<glyph name="less" format="1">
  <advance width="600"/>
  <unicode hex="003C"/>
  <outline>
    <contour>
      <point x="554" y="514" type="line"/>
      <point x="554" y="446" type="line"/>
      <point x="129" y="253" type="line"/>
      <point x="554" y="60" type="line"/>
      <point x="554" y="-8" type="line"/>
      <point x="46" y="222" type="line"/>
      <point x="46" y="284" type="line"/>
    </contour>
  </outline>
</glyph>
<glyph name="equal" format="1">
  <advance width="600"/>
  <unicode hex="003D"/>
  <outline>
    <contour>
      <point x="48" y="118" type="line"/>
      <point x="48" y="186" type="line"/>
      <point x="552" y="186" type="line"/>
      <point x="552" y="118" type="line"/>
    </contour>
    <contour>
      <point x="552" y="388" type="line"/>
      <point x="552" y="320" type="line"/>
      <point x="48" y="320" type="line"/>
      <point x="48" y="388" type="line"/>
    </contour>
  </outline>
</glyph>
<glyph name="question" format="1">
  <advance width="556"/>
  <unicode hex="003F"/>
  <outline>
    <contour>
      <point x="218" y="0" type="line"/>
      <point x="218" y="111" type="line"/>
      <point x="329" y="111" type="line"/>
      <point x="329" y="0" type="line"/>
    </contour>
    <contour>
      <point x="140" y="491" type="curve"/>
      <point x="55" y="491" type="line"/>
      <point x="52" y="628"/>
      <point x="140" y="731"/>
      <point x="279" y="731" type="curve" smooth="yes"/>
      <point x="403" y="731"/>
      <point x="490" y="658"/>
      <point x="490" y="531" type="curve" smooth="yes"/>
      <point x="490" y="448"/>
      <point x="447" y="404"/>
      <point x="404" y="361" type="curve" smooth="yes"/>
      <point x="361" y="321"/>
      <point x="317" y="281"/>
      <point x="317" y="213" type="curve" smooth="yes"/>
      <point x="317" y="174" type="line"/>
      <point x="232" y="174" type="line"/>
      <point x="232" y="221" type="line"/>
      <point x="239" y="388"/>
      <point x="408" y="392"/>
      <point x="400" y="539" type="curve" smooth="yes"/>
      <point x="395" y="612"/>
      <point x="351" y="656"/>
      <point x="279" y="656" type="curve" smooth="yes"/>
      <point x="183" y="656"/>
      <point x="140" y="583"/>
    </contour>
  </outline>
</glyph>
<glyph name="at" format="1">
  <advance width="800"/>
  <unicode hex="0040"/>
  <outline>
    <contour>
      <point x="618" y="554" type="line"/>
      <point x="534" y="270" type="line" smooth="yes"/>
      <point x="529" y="253"/>
      <point x="523" y="234"/>
      <point x="523" y="219" type="curve" smooth="yes"/>
      <point x="523" y="200"/>
      <point x="530" y="188"/>
      <point x="547" y="188" type="curve" smooth="yes"/>
      <point x="608" y="188"/>
      <point x="685" y="311"/>
      <point x="685" y="418" type="curve" smooth="yes"/>
      <point x="685" y="576"/>
      <point x="554" y="676"/>
      <point x="414" y="676" type="curve" smooth="yes"/>
      <point x="243" y="676"/>
      <point x="110" y="530"/>
      <point x="110" y="355" type="curve" smooth="yes"/>
      <point x="110" y="176"/>
      <point x="251" y="38"/>
      <point x="419" y="38" type="curve" smooth="yes"/>
      <point x="514" y="38"/>
      <point x="610" y="86"/>
      <point x="667" y="159" type="curve"/>
      <point x="730" y="159" type="line"/>
      <point x="665" y="49"/>
      <point x="546" y="-17"/>
      <point x="417" y="-17" type="curve" smooth="yes"/>
      <point x="206" y="-17"/>
      <point x="42" y="148"/>
      <point x="42" y="360" type="curve" smooth="yes"/>
      <point x="42" y="565"/>
      <point x="210" y="731"/>
      <point x="413" y="731" type="curve" smooth="yes"/>
      <point x="598" y="731"/>
      <point x="753" y="603"/>
      <point x="753" y="423" type="curve" smooth="yes"/>
      <point x="753" y="250"/>
      <point x="612" y="133"/>
      <point x="519" y="133" type="curve" smooth="yes"/>
      <point x="484" y="133"/>
      <point x="458" y="154"/>
      <point x="455" y="198" type="curve"/>
      <point x="452" y="198" type="line"/>
      <point x="421" y="163"/>
      <point x="377" y="131"/>
      <point x="328" y="131" type="curve" smooth="yes"/>
      <point x="243" y="131"/>
      <point x="185" y="201"/>
      <point x="185" y="289" type="curve" smooth="yes"/>
      <point x="185" y="428"/>
      <point x="279" y="573"/>
      <point x="420" y="573" type="curve" smooth="yes"/>
      <point x="467" y="573"/>
      <point x="509" y="551"/>
      <point x="532" y="491" type="curve"/>
      <point x="555" y="554" type="line"/>
    </contour>
    <contour>
      <point x="420" y="505" type="curve" smooth="yes"/>
      <point x="327" y="505"/>
      <point x="260" y="383"/>
      <point x="260" y="296" type="curve" smooth="yes"/>
      <point x="260" y="240"/>
      <point x="295" y="199"/>
      <point x="346" y="199" type="curve" smooth="yes"/>
      <point x="433" y="199"/>
      <point x="501" y="329"/>
      <point x="501" y="412" type="curve" smooth="yes"/>
      <point x="501" y="460"/>
      <point x="462" y="505"/>
    </contour>
  </outline>
</glyph>
<glyph name="A" format="1">
  <advance width="648"/>
  <unicode hex="0041"/>
  <outline>
    <contour>
      <point x="322" y="628" type="line"/>
      <point x="201" y="295" type="line"/>
      <point x="443" y="295" type="line"/>
      <point x="324" y="628" type="line"/>
    </contour>
    <contour>
      <point x="-7" y="0" type="line"/>
      <point x="272" y="714" type="line"/>
      <point x="377" y="714" type="line"/>
      <point x="656" y="0" type="line"/>
      <point x="551" y="0" type="line"/>
      <point x="473" y="215" type="line"/>
      <point x="171" y="215" type="line"/>
      <point x="91" y="0" type="line"/>
    </contour>
  </outline>
</glyph>
<glyph name="B" format="1">
  <advance width="685"/>
  <unicode hex="0042"/>
  <outline>
    <contour>
      <point x="173" y="634" type="line"/>
      <point x="173" y="407" type="line"/>
      <point x="363" y="407" type="line" smooth="yes"/>
      <point x="471" y="407"/>
      <point x="515" y="445"/>
      <point x="515" y="521" type="curve" smooth="yes"/>
      <point x="515" y="621"/>
      <point x="446" y="634"/>
      <point x="363" y="634" type="curve" smooth="yes"/>
    </contour>
    <contour>
      <point x="78" y="0" type="line"/>
      <point x="78" y="714" type="line"/>
      <point x="337" y="714" type="line" smooth="yes"/>
      <point x="399" y="714"/>
      <point x="484" y="714"/>
      <point x="526" y="688" type="curve" smooth="yes"/>
      <point x="573" y="660"/>
      <point x="610" y="610"/>
      <point x="610" y="539" type="curve" smooth="yes"/>
      <point x="610" y="463"/>
      <point x="571" y="406"/>
      <point x="504" y="379" type="curve"/>
      <point x="504" y="377" type="line"/>
      <point x="592" y="358"/>
      <point x="640" y="293"/>
      <point x="640" y="205" type="curve" smooth="yes"/>
      <point x="640" y="101"/>
      <point x="564" y="0"/>
      <point x="423" y="0" type="curve" smooth="yes"/>
    </contour>
    <contour>
      <point x="173" y="327" type="line"/>
      <point x="173" y="80" type="line"/>
      <point x="411" y="80" type="line" smooth="yes"/>
      <point x="494" y="80"/>
      <point x="545" y="129"/>
      <point x="545" y="208" type="curve" smooth="yes"/>
      <point x="545" y="301"/>
      <point x="470" y="327"/>
      <point x="390" y="327" type="curve" smooth="yes"/>
    </contour>
  </outline>
</glyph>
<glyph name="C" format="1">
  <advance width="722"/>
  <unicode hex="0043"/>
  <outline>
    <contour>
      <point x="675" y="499" type="curve"/>
      <point x="580" y="499" type="line"/>
      <point x="559" y="600"/>
      <point x="480" y="651"/>
      <point x="380" y="651" type="curve" smooth="yes"/>
      <point x="210" y="651"/>
      <point x="138" y="511"/>
      <point x="138" y="362" type="curve" smooth="yes"/>
      <point x="138" y="199"/>
      <point x="210" y="63"/>
      <point x="381" y="63" type="curve" smooth="yes"/>
      <point x="505" y="63"/>
      <point x="579" y="151"/>
      <point x="587" y="269" type="curve"/>
      <point x="682" y="269" type="line"/>
      <point x="663" y="90"/>
      <point x="554" y="-17"/>
      <point x="373" y="-17" type="curve" smooth="yes"/>
      <point x="152" y="-17"/>
      <point x="43" y="147"/>
      <point x="43" y="355" type="curve" smooth="yes"/>
      <point x="43" y="563"/>
      <point x="161" y="731"/>
      <point x="381" y="731" type="curve" smooth="yes"/>
      <point x="530" y="731"/>
      <point x="654" y="651"/>
    </contour>
  </outline>
</glyph>
<glyph name="D" format="1">
  <advance width="704"/>
  <unicode hex="0044"/>
  <outline>
    <contour>
      <point x="173" y="634" type="line"/>
      <point x="173" y="80" type="line"/>
      <point x="331" y="80" type="line" smooth="yes"/>
      <point x="396" y="80"/>
      <point x="571" y="98"/>
      <point x="571" y="361" type="curve" smooth="yes"/>
      <point x="571" y="531"/>
      <point x="508" y="634"/>
      <point x="333" y="634" type="curve" smooth="yes"/>
    </contour>
    <contour>
      <point x="78" y="0" type="line"/>
      <point x="78" y="714" type="line"/>
      <point x="323" y="714" type="line" smooth="yes"/>
      <point x="543" y="714"/>
      <point x="666" y="603"/>
      <point x="666" y="374" type="curve" smooth="yes"/>
      <point x="666" y="135"/>
      <point x="561" y="0"/>
      <point x="323" y="0" type="curve" smooth="yes"/>
    </contour>
  </outline>
</glyph>
<glyph name="F" format="1">
  <advance width="574"/>
  <unicode hex="0046"/>
  <outline>
    <contour>
      <point x="78" y="0" type="line"/>
      <point x="78" y="714" type="line"/>
      <point x="547" y="714" type="line"/>
      <point x="547" y="634" type="line"/>
      <point x="173" y="634" type="line"/>
      <point x="173" y="407" type="line"/>
      <point x="501" y="407" type="line"/>
      <point x="501" y="327" type="line"/>
      <point x="173" y="327" type="line"/>
      <point x="173" y="0" type="line"/>
    </contour>
  </outline>
</glyph>
<glyph name="H" format="1">
  <advance width="722"/>
  <unicode hex="0048"/>
  <outline>
    <contour>
      <point x="78" y="0" type="line"/>
      <point x="78" y="714" type="line"/>
      <point x="173" y="714" type="line"/>
      <point x="173" y="407" type="line"/>
      <point x="549" y="407" type="line"/>
      <point x="549" y="714" type="line"/>
      <point x="644" y="714" type="line"/>
      <point x="644" y="0" type="line"/>
      <point x="549" y="0" type="line"/>
      <point x="549" y="327" type="line"/>
      <point x="173" y="327" type="line"/>
      <point x="173" y="0" type="line"/>
    </contour>
  </outline>
</glyph>
<glyph name="I" format="1">
  <advance width="259"/>
  <unicode hex="0049"/>
  <outline>
    <contour>
      <point x="82" y="0" type="line"/>
      <point x="82" y="714" type="line"/>
      <point x="177" y="714" type="line"/>
      <point x="177" y="0" type="line"/>
    </contour>
  </outline>
</glyph>
<glyph name="J" format="1">
  <advance width="519"/>
  <unicode hex="004A"/>
  <outline>
    <contour>
      <point x="441" y="714" type="line"/>
      <point x="441" y="178" type="line" smooth="yes"/>
      <point x="441" y="82"/>
      <point x="390" y="-17"/>
      <point x="230" y="-17" type="curve" smooth="yes"/>
      <point x="97" y="-17"/>
      <point x="22" y="56"/>
      <point x="22" y="191" type="curve" smooth="yes"/>
      <point x="22" y="235" type="line"/>
      <point x="117" y="235" type="line"/>
      <point x="117" y="205" type="line" smooth="yes"/>
      <point x="117" y="122"/>
      <point x="139" y="63"/>
      <point x="232" y="63" type="curve" smooth="yes"/>
      <point x="319" y="63"/>
      <point x="346" y="113"/>
      <point x="346" y="192" type="curve" smooth="yes"/>
      <point x="346" y="714" type="line"/>
    </contour>
  </outline>
</glyph>
<glyph name="K" format="1">
  <advance width="667"/>
  <unicode hex="004B"/>
  <outline>
    <contour>
      <point x="78" y="0" type="line"/>
      <point x="78" y="714" type="line"/>
      <point x="173" y="714" type="line"/>
      <point x="173" y="358" type="line"/>
      <point x="535" y="714" type="line"/>
      <point x="658" y="714" type="line"/>
      <point x="357" y="426" type="line"/>
      <point x="670" y="0" type="line"/>
      <point x="550" y="0" type="line"/>
      <point x="292" y="361" type="line"/>
      <point x="173" y="250" type="line"/>
      <point x="173" y="0" type="line"/>
    </contour>
  </outline>
</glyph>
<glyph name="M" format="1">
  <advance width="871"/>
  <unicode hex="004D"/>
  <outline>
    <contour>
      <point x="80" y="0" type="line"/>
      <point x="80" y="714" type="line"/>
      <point x="210" y="714" type="line"/>
      <point x="435" y="114" type="line"/>
      <point x="661" y="714" type="line"/>
      <point x="791" y="714" type="line"/>
      <point x="791" y="0" type="line"/>
      <point x="701" y="0" type="line"/>
      <point x="701" y="594" type="line"/>
      <point x="699" y="594" type="line"/>
      <point x="476" y="0" type="line"/>
      <point x="395" y="0" type="line"/>
      <point x="172" y="594" type="line"/>
      <point x="170" y="594" type="line"/>
      <point x="170" y="0" type="line"/>
    </contour>
  </outline>
</glyph>
<glyph name="N" format="1">
  <advance width="722"/>
  <unicode hex="004E"/>
  <outline>
    <contour>
      <point x="77" y="0" type="line"/>
      <point x="77" y="714" type="line"/>
      <point x="178" y="714" type="line"/>
      <point x="554" y="135" type="line"/>
      <point x="556" y="135" type="line"/>
      <point x="556" y="714" type="line"/>
      <point x="646" y="714" type="line"/>
      <point x="646" y="0" type="line"/>
      <point x="542" y="0" type="line"/>
      <point x="169" y="573" type="line"/>
      <point x="167" y="573" type="line"/>
      <point x="167" y="0" type="line"/>
    </contour>
  </outline>
</glyph>
<glyph name="P" format="1">
  <advance width="648"/>
  <unicode hex="0050"/>
  <outline>
    <contour>
      <point x="173" y="634" type="line"/>
      <point x="173" y="372" type="line"/>
      <point x="359" y="372" type="line" smooth="yes"/>
      <point x="467" y="371"/>
      <point x="515" y="418"/>
      <point x="515" y="503" type="curve" smooth="yes"/>
      <point x="515" y="588"/>
      <point x="467" y="634"/>
      <point x="359" y="634" type="curve" smooth="yes"/>
    </contour>
    <contour>
      <point x="78" y="0" type="line"/>
      <point x="78" y="714" type="line"/>
      <point x="391" y="714" type="line" smooth="yes"/>
      <point x="534" y="714"/>
      <point x="610" y="636"/>
      <point x="610" y="503" type="curve" smooth="yes"/>
      <point x="610" y="370"/>
      <point x="534" y="291"/>
      <point x="391" y="292" type="curve" smooth="yes"/>
      <point x="173" y="292" type="line"/>
      <point x="173" y="0" type="line"/>
    </contour>
  </outline>
</glyph>
<glyph name="Q" format="1">
  <advance width="760"/>
  <unicode hex="0051"/>
  <outline>
    <contour>
      <point x="400" y="146" type="line"/>
      <point x="450" y="204" type="line"/>
      <point x="545" y="128" type="line"/>
      <point x="601" y="184"/>
      <point x="627" y="270"/>
      <point x="627" y="357" type="curve" smooth="yes"/>
      <point x="627" y="501"/>
      <point x="554" y="651"/>
      <point x="380" y="651" type="curve" smooth="yes"/>
      <point x="206" y="651"/>
      <point x="133" y="501"/>
      <point x="133" y="357" type="curve" smooth="yes"/>
      <point x="133" y="213"/>
      <point x="206" y="63"/>
      <point x="380" y="63" type="curve" smooth="yes"/>
      <point x="415" y="63"/>
      <point x="448" y="70"/>
      <point x="479" y="83" type="curve"/>
    </contour>
    <contour>
      <point x="708" y="-2" type="line"/>
      <point x="660" y="-62" type="line"/>
      <point x="551" y="26" type="line"/>
      <point x="503" y="-3"/>
      <point x="446" y="-17"/>
      <point x="380" y="-17" type="curve" smooth="yes"/>
      <point x="153" y="-17"/>
      <point x="38" y="162"/>
      <point x="38" y="357" type="curve" smooth="yes"/>
      <point x="38" y="552"/>
      <point x="153" y="731"/>
      <point x="380" y="731" type="curve" smooth="yes"/>
      <point x="607" y="731"/>
      <point x="722" y="552"/>
      <point x="722" y="357" type="curve" smooth="yes"/>
      <point x="722" y="248"/>
      <point x="686" y="144"/>
      <point x="614" y="73" type="curve"/>
    </contour>
  </outline>
</glyph>
<glyph name="S" format="1">
  <advance width="648"/>
  <unicode hex="0053"/>
  <outline>
    <contour>
      <point x="581" y="505" type="curve"/>
      <point x="491" y="505" type="line"/>
      <point x="480" y="608"/>
      <point x="413" y="651"/>
      <point x="314" y="651" type="curve" smooth="yes"/>
      <point x="233" y="651"/>
      <point x="154" y="622"/>
      <point x="154" y="529" type="curve" smooth="yes"/>
      <point x="154" y="353"/>
      <point x="611" y="477"/>
      <point x="611" y="196" type="curve" smooth="yes"/>
      <point x="611" y="44"/>
      <point x="462" y="-17"/>
      <point x="332" y="-17" type="curve" smooth="yes"/>
      <point x="172" y="-17"/>
      <point x="37" y="62"/>
      <point x="37" y="235" type="curve"/>
      <point x="127" y="235" type="line"/>
      <point x="127" y="115"/>
      <point x="227" y="63"/>
      <point x="335" y="63" type="curve" smooth="yes"/>
      <point x="421" y="63"/>
      <point x="516" y="90"/>
      <point x="516" y="193" type="curve" smooth="yes"/>
      <point x="516" y="389"/>
      <point x="59" y="260"/>
      <point x="59" y="522" type="curve" smooth="yes"/>
      <point x="59" y="666"/>
      <point x="187" y="731"/>
      <point x="318" y="731" type="curve" smooth="yes"/>
      <point x="464" y="731"/>
      <point x="576" y="662"/>
    </contour>
  </outline>
</glyph>
<glyph name="U" format="1">
  <advance width="722"/>
  <unicode hex="0055"/>
  <outline>
    <contour>
      <point x="648" y="714" type="line"/>
      <point x="648" y="258" type="line" smooth="yes"/>
      <point x="648" y="77"/>
      <point x="546" y="-17"/>
      <point x="367" y="-17" type="curve" smooth="yes"/>
      <point x="183" y="-17"/>
      <point x="74" y="68"/>
      <point x="74" y="258" type="curve" smooth="yes"/>
      <point x="74" y="714" type="line"/>
      <point x="169" y="714" type="line"/>
      <point x="169" y="258" type="line" smooth="yes"/>
      <point x="169" y="131"/>
      <point x="240" y="63"/>
      <point x="367" y="63" type="curve" smooth="yes"/>
      <point x="488" y="63"/>
      <point x="553" y="131"/>
      <point x="553" y="258" type="curve" smooth="yes"/>
      <point x="553" y="714" type="line"/>
    </contour>
  </outline>
</glyph>
<glyph name="V" format="1">
  <advance width="611"/>
  <unicode hex="0056"/>
  <outline>
    <contour>
      <point x="613" y="714" type="line"/>
      <point x="359" y="0" type="line"/>
      <point x="251" y="0" type="line"/>
      <point x="-1" y="714" type="line"/>
      <point x="102" y="714" type="line"/>
      <point x="306" y="95" type="line"/>
      <point x="308" y="95" type="line"/>
      <point x="514" y="714" type="line"/>
    </contour>
  </outline>
</glyph>
<glyph name="W" format="1">
  <advance width="926"/>
  <unicode hex="0057"/>
  <outline>
    <contour>
      <point x="914" y="714" type="line"/>
      <point x="723" y="0" type="line"/>
      <point x="624" y="0" type="line"/>
      <point x="461" y="600" type="line"/>
      <point x="459" y="600" type="line"/>
      <point x="294" y="0" type="line"/>
      <point x="195" y="0" type="line"/>
      <point x="12" y="714" type="line"/>
      <point x="109" y="714" type="line"/>
      <point x="249" y="120" type="line"/>
      <point x="251" y="120" type="line"/>
      <point x="411" y="714" type="line"/>
      <point x="514" y="714" type="line"/>
      <point x="672" y="120" type="line"/>
      <point x="674" y="120" type="line"/>
      <point x="819" y="714" type="line"/>
    </contour>
  </outline>
</glyph>
<glyph name="X" format="1">
  <advance width="611"/>
  <unicode hex="0058"/>
  <outline>
    <contour>
      <point x="-1" y="0" type="line"/>
      <point x="248" y="367" type="line"/>
      <point x="13" y="714" type="line"/>
      <point x="127" y="714" type="line"/>
      <point x="305" y="435" type="line"/>
      <point x="491" y="714" type="line"/>
      <point x="597" y="714" type="line"/>
      <point x="361" y="367" type="line"/>
      <point x="612" y="0" type="line"/>
      <point x="496" y="0" type="line"/>
      <point x="304" y="295" type="line"/>
      <point x="106" y="0" type="line"/>
    </contour>
  </outline>
</glyph>
<glyph name="Y" format="1">
  <advance width="648"/>
  <unicode hex="0059"/>
  <outline>
    <contour>
      <point x="646" y="714" type="line"/>
      <point x="373" y="292" type="line"/>
      <point x="373" y="0" type="line"/>
      <point x="278" y="0" type="line"/>
      <point x="278" y="292" type="line"/>
      <point x="2" y="714" type="line"/>
      <point x="115" y="714" type="line"/>
      <point x="329" y="374" type="line"/>
      <point x="538" y="714" type="line"/>
    </contour>
  </outline>
</glyph>
<glyph name="Z" format="1">
  <advance width="611"/>
  <unicode hex="005A"/>
  <outline>
    <contour>
      <point x="22" y="0" type="line"/>
      <point x="22" y="80" type="line"/>
      <point x="466" y="634" type="line"/>
      <point x="56" y="634" type="line"/>
      <point x="56" y="714" type="line"/>
      <point x="578" y="714" type="line"/>
      <point x="578" y="634" type="line"/>
      <point x="135" y="80" type="line"/>
      <point x="590" y="80" type="line"/>
      <point x="590" y="0" type="line"/>
    </contour>
  </outline>
</glyph>
<glyph name="bracketleft" format="1">
  <advance width="259"/>
  <unicode hex="005B"/>
  <outline>
    <contour>
      <point x="259" y="731" type="line"/>
      <point x="259" y="663" type="line"/>
      <point x="152" y="663" type="line"/>
      <point x="152" y="-130" type="line"/>
      <point x="259" y="-130" type="line"/>
      <point x="259" y="-198" type="line"/>
      <point x="72" y="-198" type="line"/>
      <point x="72" y="731" type="line"/>
    </contour>
  </outline>
</glyph>
<glyph name="bracketright" format="1">
  <advance width="259"/>
  <unicode hex="005D"/>
  <outline>
    <contour>
      <point x="0" y="-198" type="line"/>
      <point x="0" y="-130" type="line"/>
      <point x="107" y="-130" type="line"/>
      <point x="107" y="663" type="line"/>
      <point x="0" y="663" type="line"/>
      <point x="0" y="731" type="line"/>
      <point x="187" y="731" type="line"/>
      <point x="187" y="-198" type="line"/>
    </contour>
  </outline>
</glyph>
<glyph name="asciicircum" format="1">
  <advance width="600"/>
  <unicode hex="005E"/>
  <outline>
    <contour>
      <point x="50" y="264" type="line"/>
      <point x="268" y="697" type="line"/>
      <point x="332" y="697" type="line"/>
      <point x="550" y="264" type="line"/>
      <point x="480" y="264" type="line"/>
      <point x="299" y="624" type="line"/>
      <point x="121" y="264" type="line"/>
    </contour>
  </outline>
</glyph>
<glyph name="grave" format="1">
  <advance width="222"/>
  <unicode hex="0060"/>
  <outline>
    <contour>
      <point x="108" y="589" type="line"/>
      <point x="-23" y="732" type="line"/>
      <point x="86" y="732" type="line"/>
      <point x="172" y="589" type="line"/>
    </contour>
  </outline>
</glyph>
<glyph name="f" format="1">
  <advance width="296"/>
  <unicode hex="0066"/>
  <outline>
    <contour>
      <point x="99" y="0" type="line"/>
      <point x="99" y="442" type="line"/>
      <point x="12" y="442" type="line"/>
      <point x="12" y="517" type="line"/>
      <point x="99" y="517" type="line"/>
      <point x="99" y="594" type="line" smooth="yes"/>
      <point x="99" y="678"/>
      <point x="149" y="722"/>
      <point x="242" y="722" type="curve" smooth="yes"/>
      <point x="258" y="722"/>
      <point x="281" y="719"/>
      <point x="297" y="714" type="curve"/>
      <point x="297" y="640" type="line"/>
      <point x="282" y="645"/>
      <point x="264" y="647"/>
      <point x="249" y="647" type="curve" smooth="yes"/>
      <point x="208" y="647"/>
      <point x="184" y="634"/>
      <point x="184" y="589" type="curve" smooth="yes"/>
      <point x="184" y="517" type="line"/>
      <point x="284" y="517" type="line"/>
      <point x="284" y="442" type="line"/>
      <point x="184" y="442" type="line"/>
      <point x="184" y="0" type="line"/>
    </contour>
  </outline>
</glyph>
<glyph name="h" format="1">
  <advance width="556"/>
  <unicode hex="0068"/>
  <outline>
    <contour>
      <point x="64" y="0" type="line"/>
      <point x="64" y="714" type="line"/>
      <point x="149" y="714" type="line"/>
      <point x="149" y="441" type="line"/>
      <point x="151" y="441" type="line"/>
      <point x="178" y="504"/>
      <point x="253" y="529"/>
      <point x="314" y="529" type="curve" smooth="yes"/>
      <point x="450" y="529"/>
      <point x="492" y="451"/>
      <point x="492" y="340" type="curve" smooth="yes"/>
      <point x="492" y="0" type="line"/>
      <point x="407" y="0" type="line"/>
      <point x="407" y="350" type="line" smooth="yes"/>
      <point x="407" y="414"/>
      <point x="367" y="454"/>
      <point x="302" y="454" type="curve" smooth="yes"/>
      <point x="199" y="454"/>
      <point x="149" y="385"/>
      <point x="149" y="292" type="curve" smooth="yes"/>
      <point x="149" y="0" type="line"/>
    </contour>
  </outline>
</glyph>
<glyph name="i" format="1">
  <advance width="222"/>
  <unicode hex="0069"/>
  <outline>
    <contour>
      <point x="154" y="714" type="line"/>
      <point x="154" y="610" type="line"/>
      <point x="69" y="610" type="line"/>
      <point x="69" y="714" type="line"/>
    </contour>
    <contour>
      <point x="69" y="0" type="line"/>
      <point x="69" y="517" type="line"/>
      <point x="154" y="517" type="line"/>
      <point x="154" y="0" type="line"/>
    </contour>
  </outline>
</glyph>
<glyph name="k" format="1">
  <advance width="519"/>
  <unicode hex="006B"/>
  <outline>
    <contour>
      <point x="69" y="0" type="line"/>
      <point x="69" y="714" type="line"/>
      <point x="154" y="714" type="line"/>
      <point x="154" y="291" type="line"/>
      <point x="390" y="517" type="line"/>
      <point x="504" y="517" type="line"/>
      <point x="299" y="329" type="line"/>
      <point x="519" y="0" type="line"/>
      <point x="411" y="0" type="line"/>
      <point x="234" y="270" type="line"/>
      <point x="154" y="196" type="line"/>
      <point x="154" y="0" type="line"/>
    </contour>
  </outline>
</glyph>
<glyph name="l" format="1">
  <advance width="222"/>
  <unicode hex="006C"/>
  <outline>
    <contour>
      <point x="69" y="0" type="line"/>
      <point x="69" y="714" type="line"/>
      <point x="154" y="714" type="line"/>
      <point x="154" y="0" type="line"/>
    </contour>
  </outline>
</glyph>
<glyph name="m" format="1">
  <advance width="853"/>
  <unicode hex="006D"/>
  <outline>
    <contour>
      <point x="64" y="0" type="line"/>
      <point x="64" y="517" type="line"/>
      <point x="144" y="517" type="line"/>
      <point x="144" y="441" type="line"/>
      <point x="146" y="441" type="line"/>
      <point x="185" y="500"/>
      <point x="240" y="529"/>
      <point x="313" y="529" type="curve" smooth="yes"/>
      <point x="377" y="529"/>
      <point x="434" y="505"/>
      <point x="455" y="441" type="curve"/>
      <point x="490" y="497"/>
      <point x="550" y="529"/>
      <point x="617" y="529" type="curve" smooth="yes"/>
      <point x="720" y="529"/>
      <point x="789" y="486"/>
      <point x="789" y="379" type="curve" smooth="yes"/>
      <point x="789" y="0" type="line"/>
      <point x="704" y="0" type="line"/>
      <point x="704" y="339" type="line" smooth="yes"/>
      <point x="704" y="403"/>
      <point x="687" y="454"/>
      <point x="604" y="454" type="curve" smooth="yes"/>
      <point x="521" y="454"/>
      <point x="469" y="402"/>
      <point x="469" y="322" type="curve" smooth="yes"/>
      <point x="469" y="0" type="line"/>
      <point x="384" y="0" type="line"/>
      <point x="384" y="339" type="line" smooth="yes"/>
      <point x="384" y="406"/>
      <point x="363" y="454"/>
      <point x="287" y="454" type="curve" smooth="yes"/>
      <point x="187" y="454"/>
      <point x="149" y="362"/>
      <point x="149" y="322" type="curve" smooth="yes"/>
      <point x="149" y="0" type="line"/>
    </contour>
  </outline>
</glyph>
<glyph name="n" format="1">
  <advance width="556"/>
  <unicode hex="006E"/>
  <outline>
    <contour>
      <point x="64" y="0" type="line"/>
      <point x="64" y="517" type="line"/>
      <point x="144" y="517" type="line"/>
      <point x="144" y="435" type="line"/>
      <point x="146" y="435" type="line"/>
      <point x="182" y="499"/>
      <point x="239" y="529"/>
      <point x="314" y="529" type="curve" smooth="yes"/>
      <point x="450" y="529"/>
      <point x="492" y="451"/>
      <point x="492" y="340" type="curve" smooth="yes"/>
      <point x="492" y="0" type="line"/>
      <point x="407" y="0" type="line"/>
      <point x="407" y="350" type="line" smooth="yes"/>
      <point x="407" y="414"/>
      <point x="367" y="454"/>
      <point x="302" y="454" type="curve" smooth="yes"/>
      <point x="199" y="454"/>
      <point x="149" y="385"/>
      <point x="149" y="292" type="curve" smooth="yes"/>
      <point x="149" y="0" type="line"/>
    </contour>
  </outline>
</glyph>
<glyph name="q" format="1">
  <advance width="593"/>
  <unicode hex="0071"/>
  <outline>
    <contour>
      <point x="126" y="254" type="curve" smooth="yes"/>
      <point x="126" y="157"/>
      <point x="176" y="63"/>
      <point x="286" y="63" type="curve" smooth="yes"/>
      <point x="401" y="63"/>
      <point x="444" y="162"/>
      <point x="444" y="258" type="curve" smooth="yes"/>
      <point x="444" y="359"/>
      <point x="398" y="454"/>
      <point x="281" y="454" type="curve" smooth="yes"/>
      <point x="165" y="454"/>
      <point x="126" y="355"/>
    </contour>
    <contour>
      <point x="526" y="517" type="line"/>
      <point x="526" y="-198" type="line"/>
      <point x="441" y="-198" type="line"/>
      <point x="441" y="70" type="line"/>
      <point x="439" y="70" type="line"/>
      <point x="411" y="13"/>
      <point x="346" y="-12"/>
      <point x="274" y="-12" type="curve" smooth="yes"/>
      <point x="115" y="-12"/>
      <point x="36" y="114"/>
      <point x="36" y="260" type="curve" smooth="yes"/>
      <point x="36" y="406"/>
      <point x="114" y="529"/>
      <point x="272" y="529" type="curve" smooth="yes"/>
      <point x="324" y="529"/>
      <point x="402" y="509"/>
      <point x="439" y="448" type="curve"/>
      <point x="441" y="448" type="line"/>
      <point x="441" y="517" type="line"/>
    </contour>
  </outline>
</glyph>
<glyph name="v" format="1">
  <advance width="500"/>
  <unicode hex="0076"/>
  <outline>
    <contour>
      <point x="486" y="517" type="line"/>
      <point x="297" y="0" type="line"/>
      <point x="206" y="0" type="line"/>
      <point x="14" y="517" type="line"/>
      <point x="109" y="517" type="line"/>
      <point x="254" y="86" type="line"/>
      <point x="256" y="86" type="line"/>
      <point x="397" y="517" type="line"/>
    </contour>
  </outline>
</glyph>
<glyph name="w" format="1">
  <advance width="758"/>
  <unicode hex="0077"/>
  <outline>
    <contour>
      <point x="741" y="517" type="line"/>
      <point x="576" y="0" type="line"/>
      <point x="486" y="0" type="line"/>
      <point x="381" y="411" type="line"/>
      <point x="379" y="411" type="line"/>
      <point x="275" y="0" type="line"/>
      <point x="183" y="0" type="line"/>
      <point x="17" y="517" type="line"/>
      <point x="111" y="517" type="line"/>
      <point x="228" y="94" type="line"/>
      <point x="230" y="94" type="line"/>
      <point x="334" y="517" type="line"/>
      <point x="427" y="517" type="line"/>
      <point x="535" y="94" type="line"/>
      <point x="537" y="94" type="line"/>
      <point x="653" y="517" type="line"/>
    </contour>
  </outline>
</glyph>
<glyph name="x" format="1">
  <advance width="518"/>
  <unicode hex="0078"/>
  <outline>
    <contour>
      <point x="9" y="0" type="line"/>
      <point x="203" y="272" type="line"/>
      <point x="23" y="517" type="line"/>
      <point x="132" y="517" type="line"/>
      <point x="256" y="336" type="line"/>
      <point x="385" y="517" type="line"/>
      <point x="487" y="517" type="line"/>
      <point x="309" y="279" type="line"/>
      <point x="509" y="0" type="line"/>
      <point x="400" y="0" type="line"/>
      <point x="256" y="214" type="line"/>
      <point x="112" y="0" type="line"/>
    </contour>
  </outline>
</glyph>
<glyph name="y" format="1">
  <advance width="500"/>
  <unicode hex="0079"/>
  <outline>
    <contour>
      <point x="492" y="517" type="line"/>
      <point x="267" y="-69" type="line" smooth="yes"/>
      <point x="227" y="-169"/>
      <point x="193" y="-207"/>
      <point x="117" y="-207" type="curve" smooth="yes"/>
      <point x="97" y="-207"/>
      <point x="77" y="-205"/>
      <point x="58" y="-198" type="curve"/>
      <point x="58" y="-120" type="line"/>
      <point x="74" y="-125"/>
      <point x="91" y="-132"/>
      <point x="108" y="-132" type="curve" smooth="yes"/>
      <point x="143" y="-132"/>
      <point x="162" y="-116"/>
      <point x="178" y="-85" type="curve" smooth="yes"/>
      <point x="213" y="3" type="line"/>
      <point x="8" y="517" type="line"/>
      <point x="104" y="517" type="line"/>
      <point x="255" y="94" type="line"/>
      <point x="257" y="94" type="line"/>
      <point x="402" y="517" type="line"/>
    </contour>
  </outline>
</glyph>
<glyph name="z" format="1">
  <advance width="480"/>
  <unicode hex="007A"/>
  <outline>
    <contour>
      <point x="22" y="0" type="line"/>
      <point x="22" y="65" type="line"/>
      <point x="334" y="442" type="line"/>
      <point x="42" y="442" type="line"/>
      <point x="42" y="517" type="line"/>
      <point x="444" y="517" type="line"/>
      <point x="444" y="459" type="line"/>
      <point x="128" y="75" type="line"/>
      <point x="458" y="75" type="line"/>
      <point x="458" y="0" type="line"/>
    </contour>
  </outline>
</glyph>
<glyph name="braceleft" format="1">
  <advance width="333"/>
  <unicode hex="007B"/>
  <outline>
    <contour>
      <point x="309" y="731" type="line"/>
      <point x="309" y="671" type="line"/>
      <point x="259" y="671" type="line" smooth="yes"/>
      <point x="220" y="671"/>
      <point x="211" y="628"/>
      <point x="211" y="585" type="curve" smooth="yes"/>
      <point x="211" y="402" type="line" smooth="yes"/>
      <point x="211" y="309"/>
      <point x="147" y="273"/>
      <point x="124" y="268" type="curve"/>
      <point x="124" y="265" type="line"/>
      <point x="147" y="262"/>
      <point x="211" y="232"/>
      <point x="211" y="131" type="curve" smooth="yes"/>
      <point x="211" y="-52" type="line" smooth="yes"/>
      <point x="211" y="-93"/>
      <point x="220" y="-138"/>
      <point x="259" y="-138" type="curve" smooth="yes"/>
      <point x="309" y="-138" type="line"/>
      <point x="309" y="-198" type="line"/>
      <point x="239" y="-198" type="line" smooth="yes"/>
      <point x="189" y="-198"/>
      <point x="131" y="-152"/>
      <point x="131" y="-67" type="curve" smooth="yes"/>
      <point x="131" y="115" type="line" smooth="yes"/>
      <point x="131" y="188"/>
      <point x="91" y="232"/>
      <point x="48" y="232" type="curve"/>
      <point x="48" y="300" type="line"/>
      <point x="91" y="300"/>
      <point x="131" y="348"/>
      <point x="131" y="418" type="curve" smooth="yes"/>
      <point x="131" y="600" type="line" smooth="yes"/>
      <point x="131" y="685"/>
      <point x="189" y="731"/>
      <point x="239" y="731" type="curve" smooth="yes"/>
    </contour>
  </outline>
</glyph>
<glyph name="bar" format="1">
  <advance width="222"/>
  <unicode hex="007C"/>
  <outline>
    <contour>
      <point x="77" y="-214" type="line"/>
      <point x="77" y="786" type="line"/>
      <point x="145" y="786" type="line"/>
      <point x="145" y="-214" type="line"/>
    </contour>
  </outline>
</glyph>
<glyph name="braceright" format="1">
  <advance width="333"/>
  <unicode hex="007D"/>
  <outline>
    <contour>
      <point x="24" y="-198" type="line"/>
      <point x="24" y="-138" type="line"/>
      <point x="74" y="-138" type="line" smooth="yes"/>
      <point x="113" y="-138"/>
      <point x="122" y="-95"/>
      <point x="122" y="-52" type="curve" smooth="yes"/>
      <point x="122" y="131" type="line" smooth="yes"/>
      <point x="122" y="224"/>
      <point x="186" y="260"/>
      <point x="209" y="265" type="curve"/>
      <point x="209" y="268" type="line"/>
      <point x="186" y="271"/>
      <point x="122" y="301"/>
      <point x="122" y="402" type="curve" smooth="yes"/>
      <point x="122" y="583" type="line" smooth="yes"/>
      <point x="122" y="627"/>
      <point x="113" y="671"/>
      <point x="74" y="671" type="curve" smooth="yes"/>
      <point x="24" y="671" type="line"/>
      <point x="24" y="731" type="line"/>
      <point x="94" y="731" type="line" smooth="yes"/>
      <point x="144" y="731"/>
      <point x="202" y="685"/>
      <point x="202" y="600" type="curve" smooth="yes"/>
      <point x="202" y="418" type="line" smooth="yes"/>
      <point x="202" y="345"/>
      <point x="242" y="300"/>
      <point x="285" y="300" type="curve"/>
      <point x="285" y="232" type="line"/>
      <point x="242" y="232"/>
      <point x="202" y="184"/>
      <point x="202" y="115" type="curve" smooth="yes"/>
      <point x="202" y="-67" type="line" smooth="yes"/>
      <point x="202" y="-152"/>
      <point x="144" y="-198"/>
      <point x="94" y="-198" type="curve" smooth="yes"/>
    </contour>
  </outline>
</glyph>
<glyph name="asciitilde" format="1">
  <advance width="600"/>
  <unicode hex="007E"/>
  <outline>
    <contour>
      <point x="495" y="319" type="curve"/>
      <point x="531" y="269" type="line"/>
      <point x="502" y="226"/>
      <point x="468" y="183"/>
      <point x="406" y="183" type="curve" smooth="yes"/>
      <point x="369" y="183"/>
      <point x="337" y="197"/>
      <point x="304" y="216" type="curve" smooth="yes"/>
      <point x="272" y="235"/>
      <point x="236" y="255"/>
      <point x="189" y="255" type="curve" smooth="yes"/>
      <point x="145" y="255"/>
      <point x="121" y="214"/>
      <point x="105" y="179" type="curve"/>
      <point x="69" y="229" type="line"/>
      <point x="90" y="272"/>
      <point x="128" y="315"/>
      <point x="194" y="315" type="curve" smooth="yes"/>
      <point x="229" y="315"/>
      <point x="266" y="300"/>
      <point x="305" y="283" type="curve" smooth="yes"/>
      <point x="342" y="267"/>
      <point x="380" y="243"/>
      <point x="407" y="243" type="curve" smooth="yes"/>
      <point x="448" y="243"/>
      <point x="471" y="284"/>
    </contour>
  </outline>
</glyph>
<glyph name="Euro" format="1">
  <advance width="556"/>
  <unicode hex="0080"/>
  <unicode hex="20AC"/>
  <outline>
    <contour>
      <point x="558" y="662" type="curve"/>
      <point x="512" y="579" type="line"/>
      <point x="465" y="625"/>
      <point x="417" y="648"/>
      <point x="369" y="648" type="curve" smooth="yes"/>
      <point x="319" y="648"/>
      <point x="278" y="627"/>
      <point x="245" y="584" type="curve" smooth="yes"/>
      <point x="219" y="550"/>
      <point x="200" y="505"/>
      <point x="189" y="450" type="curve"/>
      <point x="472" y="450" type="line"/>
      <point x="445" y="389" type="line"/>
      <point x="182" y="389" type="line"/>
      <point x="181" y="384"/>
      <point x="181" y="378"/>
      <point x="181" y="373" type="curve" smooth="yes"/>
      <point x="181" y="358" type="line"/>
      <point x="181" y="347" type="line" smooth="yes"/>
      <point x="181" y="344"/>
      <point x="181" y="340"/>
      <point x="182" y="337" type="curve" smooth="yes"/>
      <point x="431" y="337" type="line"/>
      <point x="405" y="276" type="line"/>
      <point x="187" y="276" type="line"/>
      <point x="209" y="133"/>
      <point x="272" y="61"/>
      <point x="377" y="61" type="curve" smooth="yes"/>
      <point x="409" y="61"/>
      <point x="437" y="67"/>
      <point x="462" y="80" type="curve" smooth="yes"/>
      <point x="480" y="89"/>
      <point x="503" y="107"/>
      <point x="531" y="133" type="curve"/>
      <point x="531" y="28" type="line"/>
      <point x="486" y="-1"/>
      <point x="434" y="-16"/>
      <point x="377" y="-16" type="curve" smooth="yes"/>
      <point x="214" y="-16"/>
      <point x="118" y="81"/>
      <point x="90" y="276" type="curve"/>
      <point x="13" y="276" type="line"/>
      <point x="40" y="337" type="line"/>
      <point x="86" y="337" type="line" smooth="yes"/>
      <point x="85" y="340"/>
      <point x="85" y="344"/>
      <point x="85" y="347" type="curve" smooth="yes"/>
      <point x="85" y="357" type="line"/>
      <point x="85" y="374" type="line" smooth="yes"/>
      <point x="85" y="379"/>
      <point x="85" y="384"/>
      <point x="86" y="389" type="curve"/>
      <point x="13" y="389" type="line"/>
      <point x="39" y="450" type="line"/>
      <point x="93" y="450" type="line"/>
      <point x="109" y="532"/>
      <point x="139" y="597"/>
      <point x="184" y="644" type="curve" smooth="yes"/>
      <point x="234" y="698"/>
      <point x="298" y="725"/>
      <point x="377" y="725" type="curve" smooth="yes"/>
      <point x="438" y="725"/>
      <point x="498" y="704"/>
    </contour>
  </outline>
</glyph>
<glyph name="exclamdown" format="1">
  <advance width="259"/>
  <unicode hex="00A1"/>
  <outline>
    <contour>
      <point x="185" y="517" type="line"/>
      <point x="185" y="406" type="line"/>
      <point x="74" y="406" type="line"/>
      <point x="74" y="517" type="line"/>
    </contour>
    <contour>
      <point x="82" y="-198" type="line"/>
      <point x="82" y="22" type="line"/>
      <point x="107" y="333" type="line"/>
      <point x="152" y="333" type="line"/>
      <point x="177" y="22" type="line"/>
      <point x="177" y="-198" type="line"/>
    </contour>
  </outline>
</glyph>
<glyph name="cent" format="1">
  <advance width="556"/>
  <unicode hex="00A2"/>
  <outline>
    <contour>
      <point x="272" y="-116" type="line"/>
      <point x="272" y="-12" type="line"/>
      <point x="126" y="-7"/>
      <point x="46" y="105"/>
      <point x="46" y="252" type="curve" smooth="yes"/>
      <point x="46" y="396"/>
      <point x="122" y="518"/>
      <point x="272" y="529" type="curve"/>
      <point x="272" y="624" type="line"/>
      <point x="311" y="624" type="line"/>
      <point x="311" y="529" type="line"/>
      <point x="420" y="526"/>
      <point x="499" y="472"/>
      <point x="514" y="351" type="curve"/>
      <point x="427" y="351" type="line"/>
      <point x="414" y="412"/>
      <point x="375" y="451"/>
      <point x="311" y="454" type="curve"/>
      <point x="311" y="63" type="line"/>
      <point x="383" y="70"/>
      <point x="421" y="121"/>
      <point x="432" y="189" type="curve"/>
      <point x="517" y="189" type="line"/>
      <point x="506" y="90"/>
      <point x="436" y="-12"/>
      <point x="311" y="-12" type="curve"/>
      <point x="311" y="-116" type="line"/>
    </contour>
    <contour>
      <point x="272" y="63" type="curve"/>
      <point x="272" y="454" type="line"/>
      <point x="169" y="441"/>
      <point x="136" y="351"/>
      <point x="136" y="252" type="curve" smooth="yes"/>
      <point x="136" y="160"/>
      <point x="175" y="71"/>
    </contour>
  </outline>
</glyph>
<glyph name="sterling" format="1">
  <advance width="556"/>
  <unicode hex="00A3"/>
  <outline>
    <contour>
      <point x="47" y="327" type="line"/>
      <point x="47" y="372" type="line"/>
      <point x="105" y="372" type="line"/>
      <point x="78" y="417"/>
      <point x="58" y="465"/>
      <point x="58" y="528" type="curve" smooth="yes"/>
      <point x="58" y="655"/>
      <point x="164" y="731"/>
      <point x="286" y="731" type="curve" smooth="yes"/>
      <point x="434" y="731"/>
      <point x="525" y="645"/>
      <point x="522" y="473" type="curve"/>
      <point x="437" y="473" type="line"/>
      <point x="434" y="589"/>
      <point x="387" y="656"/>
      <point x="291" y="656" type="curve" smooth="yes"/>
      <point x="211" y="656"/>
      <point x="148" y="600"/>
      <point x="148" y="525" type="curve" smooth="yes"/>
      <point x="148" y="460"/>
      <point x="176" y="420"/>
      <point x="200" y="372" type="curve"/>
      <point x="359" y="372" type="line"/>
      <point x="359" y="327" type="line"/>
      <point x="222" y="327" type="line"/>
      <point x="233" y="306"/>
      <point x="242" y="280"/>
      <point x="242" y="252" type="curve" smooth="yes"/>
      <point x="242" y="162"/>
      <point x="185" y="113"/>
      <point x="126" y="64" type="curve"/>
      <point x="128" y="62" type="line"/>
      <point x="163" y="77"/>
      <point x="193" y="91"/>
      <point x="233" y="91" type="curve" smooth="yes"/>
      <point x="272" y="91"/>
      <point x="301" y="83"/>
      <point x="328" y="76" type="curve" smooth="yes"/>
      <point x="355" y="68"/>
      <point x="381" y="58"/>
      <point x="412" y="58" type="curve" smooth="yes"/>
      <point x="444" y="58"/>
      <point x="477" y="76"/>
      <point x="501" y="95" type="curve"/>
      <point x="544" y="29" type="line"/>
      <point x="504" y="-6"/>
      <point x="450" y="-17"/>
      <point x="398" y="-17" type="curve" smooth="yes"/>
      <point x="365" y="-17"/>
      <point x="334" y="-8"/>
      <point x="299" y="3" type="curve" smooth="yes"/>
      <point x="266" y="14"/>
      <point x="233" y="24"/>
      <point x="194" y="24" type="curve" smooth="yes"/>
      <point x="155" y="24"/>
      <point x="125" y="10"/>
      <point x="94" y="-11" type="curve"/>
      <point x="47" y="55" type="line"/>
      <point x="104" y="93"/>
      <point x="157" y="157"/>
      <point x="157" y="234" type="curve" smooth="yes"/>
      <point x="157" y="265"/>
      <point x="144" y="300"/>
      <point x="132" y="327" type="curve"/>
    </contour>
  </outline>
</glyph>
<glyph name="currency" format="1">
  <advance width="556"/>
  <unicode hex="00A4"/>
  <outline>
    <contour>
      <point x="281" y="524" type="curve" smooth="yes"/>
      <point x="186" y="524"/>
      <point x="113" y="448"/>
      <point x="113" y="349" type="curve" smooth="yes"/>
      <point x="113" y="252"/>
      <point x="187" y="176"/>
      <point x="280" y="176" type="curve" smooth="yes"/>
      <point x="373" y="176"/>
      <point x="443" y="255"/>
      <point x="443" y="351" type="curve" smooth="yes"/>
      <point x="443" y="444"/>
      <point x="373" y="524"/>
    </contour>
    <contour>
      <point x="25" y="555" type="line"/>
      <point x="74" y="604" type="line"/>
      <point x="130" y="548" type="line"/>
      <point x="169" y="580"/>
      <point x="225" y="599"/>
      <point x="281" y="599" type="curve" smooth="yes"/>
      <point x="334" y="599"/>
      <point x="388" y="580"/>
      <point x="424" y="549" type="curve"/>
      <point x="481" y="605" type="line"/>
      <point x="531" y="554" type="line"/>
      <point x="476" y="499" type="line"/>
      <point x="511" y="462"/>
      <point x="528" y="407"/>
      <point x="528" y="351" type="curve" smooth="yes"/>
      <point x="528" y="295"/>
      <point x="511" y="242"/>
      <point x="476" y="201" type="curve"/>
      <point x="531" y="145" type="line"/>
      <point x="484" y="98" type="line"/>
      <point x="428" y="156" type="line"/>
      <point x="389" y="120"/>
      <point x="336" y="101"/>
      <point x="280" y="101" type="curve" smooth="yes"/>
      <point x="221" y="101"/>
      <point x="168" y="119"/>
      <point x="128" y="155" type="curve"/>
      <point x="73" y="97" type="line"/>
      <point x="25" y="145" type="line"/>
      <point x="80" y="203" type="line"/>
      <point x="47" y="243"/>
      <point x="28" y="293"/>
      <point x="28" y="349" type="curve" smooth="yes"/>
      <point x="28" y="405"/>
      <point x="45" y="460"/>
      <point x="82" y="497" type="curve"/>
    </contour>
  </outline>
</glyph>
<glyph name="yen" format="1">
  <advance width="556"/>
  <unicode hex="00A5"/>
  <outline>
    <contour>
      <point x="232" y="0" type="line"/>
      <point x="232" y="174" type="line"/>
      <point x="91" y="174" type="line"/>
      <point x="91" y="234" type="line"/>
      <point x="232" y="234" type="line"/>
      <point x="232" y="276" type="line"/>
      <point x="214" y="309" type="line"/>
      <point x="91" y="309" type="line"/>
      <point x="91" y="369" type="line"/>
      <point x="183" y="369" type="line"/>
      <point x="0" y="714" type="line"/>
      <point x="109" y="714" type="line"/>
      <point x="283" y="361" type="line"/>
      <point x="452" y="714" type="line"/>
      <point x="556" y="714" type="line"/>
      <point x="378" y="369" type="line"/>
      <point x="471" y="369" type="line"/>
      <point x="471" y="309" type="line"/>
      <point x="345" y="309" type="line"/>
      <point x="327" y="276" type="line"/>
      <point x="327" y="234" type="line"/>
      <point x="471" y="234" type="line"/>
      <point x="471" y="174" type="line"/>
      <point x="327" y="174" type="line"/>
      <point x="327" y="0" type="line"/>
    </contour>
  </outline>
</glyph>
<glyph name="brokenbar" format="1">
  <advance width="222"/>
  <unicode hex="00A6"/>
  <outline>
    <contour>
      <point x="145" y="661" type="line"/>
      <point x="145" y="411" type="line"/>
      <point x="77" y="411" type="line"/>
      <point x="77" y="661" type="line"/>
    </contour>
    <contour>
      <point x="77" y="-89" type="line"/>
      <point x="77" y="161" type="line"/>
      <point x="145" y="161" type="line"/>
      <point x="145" y="-89" type="line"/>
    </contour>
  </outline>
</glyph>
<glyph name="section" format="1">
  <advance width="556"/>
  <unicode hex="00A7"/>
  <outline>
    <contour>
      <point x="465" y="546" type="curve"/>
      <point x="380" y="546" type="line"/>
      <point x="379" y="607"/>
      <point x="343" y="656"/>
      <point x="279" y="656" type="curve" smooth="yes"/>
      <point x="226" y="656"/>
      <point x="184" y="629"/>
      <point x="184" y="570" type="curve" smooth="yes"/>
      <point x="184" y="507"/>
      <point x="266" y="468"/>
      <point x="350" y="423" type="curve" smooth="yes"/>
      <point x="433" y="378"/>
      <point x="516" y="327"/>
      <point x="516" y="229" type="curve" smooth="yes"/>
      <point x="516" y="163"/>
      <point x="472" y="106"/>
      <point x="412" y="82" type="curve"/>
      <point x="451" y="53"/>
      <point x="471" y="13"/>
      <point x="471" y="-38" type="curve" smooth="yes"/>
      <point x="471" y="-134"/>
      <point x="392" y="-198"/>
      <point x="284" y="-198" type="curve" smooth="yes"/>
      <point x="165" y="-198"/>
      <point x="91" y="-126"/>
      <point x="83" y="-9" type="curve"/>
      <point x="168" y="-9" type="line"/>
      <point x="169" y="-77"/>
      <point x="214" y="-123"/>
      <point x="282" y="-123" type="curve" smooth="yes"/>
      <point x="331" y="-123"/>
      <point x="383" y="-96"/>
      <point x="383" y="-40" type="curve" smooth="yes"/>
      <point x="383" y="29"/>
      <point x="296" y="68"/>
      <point x="209" y="116" type="curve" smooth="yes"/>
      <point x="123" y="162"/>
      <point x="35" y="216"/>
      <point x="35" y="325" type="curve" smooth="yes"/>
      <point x="35" y="387"/>
      <point x="83" y="447"/>
      <point x="142" y="463" type="curve"/>
      <point x="113" y="494"/>
      <point x="96" y="526"/>
      <point x="96" y="569" type="curve" smooth="yes"/>
      <point x="96" y="673"/>
      <point x="189" y="731"/>
      <point x="281" y="731" type="curve" smooth="yes"/>
      <point x="390" y="731"/>
      <point x="462" y="671"/>
    </contour>
    <contour>
      <point x="190" y="420" type="curve"/>
      <point x="151" y="407"/>
      <point x="117" y="372"/>
      <point x="117" y="329" type="curve" smooth="yes"/>
      <point x="117" y="265"/>
      <point x="173" y="237"/>
      <point x="222" y="207" type="curve" smooth="yes"/>
      <point x="270" y="182"/>
      <point x="317" y="155"/>
      <point x="362" y="124" type="curve"/>
      <point x="401" y="140"/>
      <point x="434" y="172"/>
      <point x="434" y="217" type="curve" smooth="yes"/>
      <point x="434" y="274"/>
      <point x="370" y="308"/>
      <point x="328" y="335" type="curve" smooth="yes"/>
      <point x="281" y="363"/>
      <point x="235" y="389"/>
    </contour>
  </outline>
</glyph>
<glyph name="copyright" format="1">
  <advance width="800"/>
  <unicode hex="00A9"/>
  <outline>
    <contour>
      <point x="535" y="285" type="curve"/>
      <point x="599" y="285" type="line"/>
      <point x="578" y="188"/>
      <point x="505" y="128"/>
      <point x="413" y="128" type="curve" smooth="yes"/>
      <point x="277" y="128"/>
      <point x="191" y="226"/>
      <point x="191" y="357" type="curve" smooth="yes"/>
      <point x="191" y="490"/>
      <point x="273" y="585"/>
      <point x="410" y="585" type="curve" smooth="yes"/>
      <point x="506" y="585"/>
      <point x="582" y="532"/>
      <point x="598" y="433" type="curve"/>
      <point x="535" y="433" type="line"/>
      <point x="524" y="489"/>
      <point x="478" y="530"/>
      <point x="411" y="530" type="curve" smooth="yes"/>
      <point x="312" y="530"/>
      <point x="259" y="455"/>
      <point x="259" y="359" type="curve" smooth="yes"/>
      <point x="259" y="266"/>
      <point x="317" y="183"/>
      <point x="413" y="183" type="curve" smooth="yes"/>
      <point x="480" y="183"/>
      <point x="526" y="225"/>
    </contour>
    <contour>
      <point x="92" y="359" type="curve" smooth="yes"/>
      <point x="92" y="176"/>
      <point x="225" y="38"/>
      <point x="401" y="38" type="curve" smooth="yes"/>
      <point x="574" y="38"/>
      <point x="708" y="176"/>
      <point x="708" y="359" type="curve" smooth="yes"/>
      <point x="708" y="537"/>
      <point x="574" y="676"/>
      <point x="401" y="676" type="curve" smooth="yes"/>
      <point x="225" y="676"/>
      <point x="92" y="537"/>
    </contour>
    <contour>
      <point x="24" y="359" type="curve" smooth="yes"/>
      <point x="24" y="570"/>
      <point x="196" y="731"/>
      <point x="401" y="731" type="curve" smooth="yes"/>
      <point x="605" y="731"/>
      <point x="776" y="570"/>
      <point x="776" y="359" type="curve" smooth="yes"/>
      <point x="776" y="144"/>
      <point x="605" y="-17"/>
      <point x="401" y="-17" type="curve" smooth="yes"/>
      <point x="196" y="-17"/>
      <point x="24" y="144"/>
    </contour>
  </outline>
</glyph>
<glyph name="ordfeminine" format="1">
  <advance width="378"/>
  <unicode hex="00AA"/>
  <outline>
    <contour>
      <point x="155" y="430" type="curve" smooth="yes"/>
      <point x="230" y="430"/>
      <point x="257" y="469"/>
      <point x="257" y="499" type="curve" smooth="yes"/>
      <point x="257" y="546" type="line"/>
      <point x="236" y="533"/>
      <point x="194" y="530"/>
      <point x="157" y="523" type="curve" smooth="yes"/>
      <point x="121" y="516"/>
      <point x="93" y="506"/>
      <point x="93" y="471" type="curve" smooth="yes"/>
      <point x="93" y="436"/>
      <point x="122" y="430"/>
    </contour>
    <contour>
      <point x="317" y="622" type="curve" smooth="yes"/>
      <point x="317" y="462" type="line" smooth="yes"/>
      <point x="317" y="438"/>
      <point x="320" y="430"/>
      <point x="331" y="430" type="curve" smooth="yes"/>
      <point x="342" y="430" type="line" smooth="yes"/>
      <point x="346" y="430"/>
      <point x="350" y="431"/>
      <point x="353" y="432" type="curve" smooth="yes"/>
      <point x="353" y="388" type="line"/>
      <point x="340" y="383"/>
      <point x="327" y="380"/>
      <point x="310" y="380" type="curve" smooth="yes"/>
      <point x="278" y="380"/>
      <point x="261" y="395"/>
      <point x="259" y="426" type="curve"/>
      <point x="230" y="395"/>
      <point x="191" y="380"/>
      <point x="142" y="380" type="curve" smooth="yes"/>
      <point x="79" y="380"/>
      <point x="25" y="407"/>
      <point x="25" y="469" type="curve" smooth="yes"/>
      <point x="25" y="538"/>
      <point x="86" y="563"/>
      <point x="145" y="568" type="curve" smooth="yes"/>
      <point x="238" y="579"/>
      <point x="260" y="582"/>
      <point x="260" y="610" type="curve" smooth="yes"/>
      <point x="260" y="654"/>
      <point x="221" y="659"/>
      <point x="183" y="659" type="curve" smooth="yes"/>
      <point x="135" y="659"/>
      <point x="103" y="646"/>
      <point x="100" y="603" type="curve"/>
      <point x="40" y="603" type="line"/>
      <point x="43" y="680"/>
      <point x="111" y="709"/>
      <point x="187" y="709" type="curve" smooth="yes"/>
      <point x="247" y="709"/>
      <point x="317" y="694"/>
    </contour>
  </outline>
</glyph>
<glyph name="guillemotleft" format="1">
  <advance width="463"/>
  <unicode hex="00AB"/>
  <outline>
    <contour>
      <point x="202" y="114" type="line"/>
      <point x="50" y="234" type="line"/>
      <point x="50" y="322" type="line"/>
      <point x="202" y="442" type="line"/>
      <point x="202" y="356" type="line"/>
      <point x="102" y="278" type="line"/>
      <point x="202" y="200" type="line"/>
    </contour>
    <contour>
      <point x="398" y="114" type="line"/>
      <point x="246" y="234" type="line"/>
      <point x="246" y="322" type="line"/>
      <point x="398" y="442" type="line"/>
      <point x="398" y="356" type="line"/>
      <point x="298" y="278" type="line"/>
      <point x="398" y="200" type="line"/>
    </contour>
  </outline>
</glyph>
<glyph name="logicalnot" format="1">
  <advance width="600"/>
  <unicode hex="00AC"/>
  <outline>
    <contour>
      <point x="552" y="388" type="line"/>
      <point x="552" y="109" type="line"/>
      <point x="484" y="109" type="line"/>
      <point x="484" y="320" type="line"/>
      <point x="48" y="320" type="line"/>
      <point x="48" y="388" type="line"/>
    </contour>
  </outline>
</glyph>
<glyph name="uni00AD" format="1">
  <advance width="389"/>
  <unicode hex="00AD"/>
  <outline>
    <contour>
      <point x="50" y="238" type="line"/>
      <point x="50" y="318" type="line"/>
      <point x="339" y="318" type="line"/>
      <point x="339" y="238" type="line"/>
    </contour>
  </outline>
</glyph>
<glyph name="registered" format="1">
  <advance width="800"/>
  <unicode hex="00AE"/>
  <outline>
    <contour>
      <point x="323" y="521" type="line"/>
      <point x="323" y="382" type="line"/>
      <point x="394" y="382" type="line" smooth="yes"/>
      <point x="454" y="382"/>
      <point x="509" y="385"/>
      <point x="509" y="454" type="curve" smooth="yes"/>
      <point x="509" y="512"/>
      <point x="459" y="521"/>
      <point x="413" y="521" type="curve" smooth="yes"/>
    </contour>
    <contour>
      <point x="255" y="139" type="line"/>
      <point x="255" y="576" type="line"/>
      <point x="424" y="576" type="line" smooth="yes"/>
      <point x="528" y="576"/>
      <point x="577" y="535"/>
      <point x="577" y="451" type="curve" smooth="yes"/>
      <point x="577" y="372"/>
      <point x="527" y="339"/>
      <point x="462" y="332" type="curve"/>
      <point x="587" y="139" type="line"/>
      <point x="514" y="139" type="line"/>
      <point x="395" y="327" type="line"/>
      <point x="323" y="327" type="line"/>
      <point x="323" y="139" type="line"/>
    </contour>
    <contour>
      <point x="92" y="359" type="curve" smooth="yes"/>
      <point x="92" y="176"/>
      <point x="225" y="38"/>
      <point x="401" y="38" type="curve" smooth="yes"/>
      <point x="574" y="38"/>
      <point x="708" y="176"/>
      <point x="708" y="359" type="curve" smooth="yes"/>
      <point x="708" y="538"/>
      <point x="574" y="676"/>
      <point x="401" y="676" type="curve" smooth="yes"/>
      <point x="225" y="676"/>
      <point x="92" y="538"/>
    </contour>
    <contour>
      <point x="24" y="359" type="curve" smooth="yes"/>
      <point x="24" y="570"/>
      <point x="196" y="731"/>
      <point x="401" y="731" type="curve" smooth="yes"/>
      <point x="605" y="731"/>
      <point x="776" y="570"/>
      <point x="776" y="359" type="curve" smooth="yes"/>
      <point x="776" y="144"/>
      <point x="605" y="-17"/>
      <point x="401" y="-17" type="curve" smooth="yes"/>
      <point x="196" y="-17"/>
      <point x="24" y="144"/>
    </contour>
  </outline>
</glyph>
<glyph name="degree" format="1">
  <advance width="400"/>
  <unicode hex="00B0"/>
  <outline>
    <contour>
      <point x="106" y="565" type="curve" smooth="yes"/>
      <point x="106" y="518"/>
      <point x="141" y="471"/>
      <point x="200" y="471" type="curve" smooth="yes"/>
      <point x="259" y="471"/>
      <point x="294" y="518"/>
      <point x="294" y="565" type="curve" smooth="yes"/>
      <point x="294" y="612"/>
      <point x="259" y="659"/>
      <point x="200" y="659" type="curve" smooth="yes"/>
      <point x="141" y="659"/>
      <point x="106" y="612"/>
    </contour>
    <contour>
      <point x="56" y="565" type="curve" smooth="yes"/>
      <point x="56" y="644"/>
      <point x="119" y="709"/>
      <point x="200" y="709" type="curve" smooth="yes"/>
      <point x="279" y="709"/>
      <point x="344" y="644"/>
      <point x="344" y="565" type="curve" smooth="yes"/>
      <point x="344" y="484"/>
      <point x="279" y="421"/>
      <point x="200" y="421" type="curve" smooth="yes"/>
      <point x="119" y="421"/>
      <point x="56" y="484"/>
    </contour>
  </outline>
</glyph>
<glyph name="plusminus" format="1">
  <advance width="600"/>
  <unicode hex="00B1"/>
  <outline>
    <contour>
      <point x="48" y="0" type="line"/>
      <point x="48" y="68" type="line"/>
      <point x="552" y="68" type="line"/>
      <point x="552" y="0" type="line"/>
    </contour>
    <contour>
      <point x="48" y="271" type="line"/>
      <point x="48" y="339" type="line"/>
      <point x="266" y="339" type="line"/>
      <point x="266" y="505" type="line"/>
      <point x="334" y="505" type="line"/>
      <point x="334" y="339" type="line"/>
      <point x="552" y="339" type="line"/>
      <point x="552" y="271" type="line"/>
      <point x="334" y="271" type="line"/>
      <point x="334" y="104" type="line"/>
      <point x="266" y="104" type="line"/>
      <point x="266" y="271" type="line"/>
    </contour>
  </outline>
</glyph>
<glyph name="twosuperior" format="1">
  <advance width="333"/>
  <unicode hex="00B2"/>
  <outline>
    <contour>
      <point x="90" y="555" type="curve"/>
      <point x="22" y="555" type="line"/>
      <point x="22" y="647"/>
      <point x="82" y="709"/>
      <point x="175" y="709" type="curve" smooth="yes"/>
      <point x="256" y="709"/>
      <point x="323" y="663"/>
      <point x="323" y="583" type="curve" smooth="yes"/>
      <point x="323" y="509"/>
      <point x="266" y="470"/>
      <point x="210" y="438" type="curve" smooth="yes"/>
      <point x="153" y="403"/>
      <point x="93" y="377"/>
      <point x="82" y="335" type="curve"/>
      <point x="317" y="335" type="line"/>
      <point x="317" y="280" type="line"/>
      <point x="14" y="280" type="line"/>
      <point x="19" y="381"/>
      <point x="74" y="416"/>
      <point x="139" y="454" type="curve" smooth="yes"/>
      <point x="217" y="500"/>
      <point x="255" y="524"/>
      <point x="255" y="584" type="curve" smooth="yes"/>
      <point x="255" y="627"/>
      <point x="219" y="654"/>
      <point x="172" y="654" type="curve" smooth="yes"/>
      <point x="112" y="654"/>
      <point x="90" y="607"/>
    </contour>
  </outline>
</glyph>
<glyph name="threesuperior" format="1">
  <advance width="333"/>
  <unicode hex="00B3"/>
  <outline>
    <contour>
      <point x="132" y="477" type="line"/>
      <point x="132" y="527" type="line"/>
      <point x="156" y="527" type="line" smooth="yes"/>
      <point x="200" y="527"/>
      <point x="239" y="545"/>
      <point x="239" y="592" type="curve" smooth="yes"/>
      <point x="239" y="632"/>
      <point x="206" y="654"/>
      <point x="162" y="654" type="curve" smooth="yes"/>
      <point x="107" y="654"/>
      <point x="82" y="617"/>
      <point x="82" y="568" type="curve"/>
      <point x="14" y="568" type="line"/>
      <point x="19" y="655"/>
      <point x="73" y="709"/>
      <point x="162" y="709" type="curve" smooth="yes"/>
      <point x="245" y="709"/>
      <point x="307" y="669"/>
      <point x="307" y="592" type="curve" smooth="yes"/>
      <point x="307" y="553"/>
      <point x="276" y="522"/>
      <point x="239" y="507" type="curve"/>
      <point x="239" y="505" type="line"/>
      <point x="298" y="494"/>
      <point x="326" y="454"/>
      <point x="326" y="403" type="curve" smooth="yes"/>
      <point x="326" y="315"/>
      <point x="248" y="273"/>
      <point x="164" y="273" type="curve" smooth="yes"/>
      <point x="75" y="273"/>
      <point x="4" y="321"/>
      <point x="4" y="414" type="curve"/>
      <point x="72" y="414" type="line"/>
      <point x="73" y="358"/>
      <point x="105" y="328"/>
      <point x="164" y="328" type="curve" smooth="yes"/>
      <point x="215" y="328"/>
      <point x="258" y="355"/>
      <point x="258" y="400" type="curve" smooth="yes"/>
      <point x="258" y="456"/>
      <point x="212" y="477"/>
      <point x="165" y="477" type="curve" smooth="yes"/>
    </contour>
  </outline>
</glyph>
<glyph name="mu" format="1">
  <advance width="556"/>
  <unicode hex="00B5"/>
  <outline>
    <contour>
      <point x="492" y="517" type="line"/>
      <point x="492" y="0" type="line"/>
      <point x="412" y="0" type="line"/>
      <point x="412" y="82" type="line"/>
      <point x="410" y="82" type="line"/>
      <point x="374" y="18"/>
      <point x="317" y="-12"/>
      <point x="242" y="-12" type="curve" smooth="yes"/>
      <point x="199" y="-12"/>
      <point x="168" y="-1"/>
      <point x="151" y="26" type="curve"/>
      <point x="149" y="26" type="line"/>
      <point x="149" y="-198" type="line"/>
      <point x="64" y="-198" type="line"/>
      <point x="64" y="517" type="line"/>
      <point x="149" y="517" type="line"/>
      <point x="149" y="167" type="line" smooth="yes"/>
      <point x="149" y="103"/>
      <point x="189" y="63"/>
      <point x="254" y="63" type="curve" smooth="yes"/>
      <point x="357" y="63"/>
      <point x="407" y="132"/>
      <point x="407" y="225" type="curve" smooth="yes"/>
      <point x="407" y="517" type="line"/>
    </contour>
  </outline>
</glyph>
<glyph name="paragraph" format="1">
  <advance width="600"/>
  <unicode hex="00B6"/>
  <outline>
    <contour>
      <point x="515" y="714" type="line"/>
      <point x="515" y="-155" type="line"/>
      <point x="447" y="-155" type="line"/>
      <point x="447" y="659" type="line"/>
      <point x="325" y="659" type="line"/>
      <point x="325" y="-155" type="line"/>
      <point x="257" y="-155" type="line"/>
      <point x="257" y="322" type="line"/>
      <point x="134" y="322"/>
      <point x="48" y="404"/>
      <point x="48" y="508" type="curve" smooth="yes"/>
      <point x="48" y="639"/>
      <point x="135" y="714"/>
      <point x="276" y="714" type="curve" smooth="yes"/>
    </contour>
  </outline>
</glyph>
<glyph name="cedilla" format="1">
  <advance width="222"/>
  <unicode hex="00B8"/>
  <outline>
    <contour>
      <point x="5" y="-191" type="curve"/>
      <point x="23" y="-147" type="line"/>
      <point x="39" y="-154"/>
      <point x="63" y="-160"/>
      <point x="84" y="-160" type="curve" smooth="yes"/>
      <point x="111" y="-160"/>
      <point x="146" y="-152"/>
      <point x="146" y="-129" type="curve" smooth="yes"/>
      <point x="146" y="-110"/>
      <point x="126" y="-98"/>
      <point x="99" y="-98" type="curve" smooth="yes"/>
      <point x="83" y="-98"/>
      <point x="73" y="-101"/>
      <point x="58" y="-106" type="curve"/>
      <point x="41" y="-78" type="line"/>
      <point x="102" y="0" type="line"/>
      <point x="144" y="0" type="line"/>
      <point x="102" y="-53" type="line"/>
      <point x="104" y="-55" type="line"/>
      <point x="111" y="-50"/>
      <point x="122" y="-48"/>
      <point x="137" y="-48" type="curve" smooth="yes"/>
      <point x="180" y="-48"/>
      <point x="221" y="-72"/>
      <point x="221" y="-121" type="curve" smooth="yes"/>
      <point x="221" y="-188"/>
      <point x="153" y="-210"/>
      <point x="97" y="-210" type="curve" smooth="yes"/>
      <point x="65" y="-210"/>
      <point x="36" y="-202"/>
    </contour>
  </outline>
</glyph>
<glyph name="onesuperior" format="1">
  <advance width="333"/>
  <unicode hex="00B9"/>
  <outline>
    <contour>
      <point x="249" y="709" type="line"/>
      <point x="249" y="280" type="line"/>
      <point x="181" y="280" type="line"/>
      <point x="181" y="588" type="line"/>
      <point x="66" y="588" type="line"/>
      <point x="66" y="638" type="line"/>
      <point x="131" y="638"/>
      <point x="186" y="654"/>
      <point x="199" y="709" type="curve"/>
    </contour>
  </outline>
</glyph>
<glyph name="ordmasculine" format="1">
  <advance width="384"/>
  <unicode hex="00BA"/>
  <outline>
    <contour>
      <point x="192" y="659" type="curve" smooth="yes"/>
      <point x="137" y="659"/>
      <point x="93" y="623"/>
      <point x="93" y="543" type="curve" smooth="yes"/>
      <point x="93" y="483"/>
      <point x="121" y="430"/>
      <point x="193" y="430" type="curve" smooth="yes"/>
      <point x="264" y="430"/>
      <point x="291" y="482"/>
      <point x="291" y="542" type="curve" smooth="yes"/>
      <point x="291" y="639"/>
      <point x="235" y="659"/>
    </contour>
    <contour>
      <point x="192" y="709" type="curve" smooth="yes"/>
      <point x="300" y="709"/>
      <point x="359" y="637"/>
      <point x="359" y="543" type="curve" smooth="yes"/>
      <point x="359" y="447"/>
      <point x="302" y="380"/>
      <point x="193" y="380" type="curve" smooth="yes"/>
      <point x="87" y="380"/>
      <point x="25" y="448"/>
      <point x="25" y="543" type="curve" smooth="yes"/>
      <point x="25" y="635"/>
      <point x="84" y="709"/>
    </contour>
  </outline>
</glyph>
<glyph name="guillemotright" format="1">
  <advance width="463"/>
  <unicode hex="00BB"/>
  <outline>
    <contour>
      <point x="261" y="442" type="line"/>
      <point x="413" y="322" type="line"/>
      <point x="413" y="234" type="line"/>
      <point x="261" y="114" type="line"/>
      <point x="261" y="200" type="line"/>
      <point x="361" y="278" type="line"/>
      <point x="261" y="356" type="line"/>
    </contour>
    <contour>
      <point x="65" y="442" type="line"/>
      <point x="217" y="322" type="line"/>
      <point x="217" y="234" type="line"/>
      <point x="65" y="114" type="line"/>
      <point x="65" y="200" type="line"/>
      <point x="165" y="278" type="line"/>
      <point x="65" y="356" type="line"/>
    </contour>
  </outline>
</glyph>
<glyph name="onequarter" format="1">
  <advance width="834"/>
  <unicode hex="00BC"/>
  <outline>
    <contour>
      <point x="219" y="709" type="line"/>
      <point x="219" y="280" type="line"/>
      <point x="151" y="280" type="line"/>
      <point x="151" y="588" type="line"/>
      <point x="36" y="588" type="line"/>
      <point x="36" y="638" type="line"/>
      <point x="101" y="638"/>
      <point x="156" y="653"/>
      <point x="169" y="709" type="curve"/>
    </contour>
    <contour>
      <point x="150" y="-28" type="line"/>
      <point x="585" y="725" type="line"/>
      <point x="649" y="725" type="line"/>
      <point x="214" y="-28" type="line"/>
    </contour>
    <contour>
      <point x="659" y="344" type="line"/>
      <point x="511" y="151" type="line"/>
      <point x="661" y="151" type="line"/>
      <point x="661" y="344" type="line"/>
    </contour>
    <contour>
      <point x="723" y="429" type="line"/>
      <point x="723" y="151" type="line"/>
      <point x="783" y="151" type="line"/>
      <point x="783" y="96" type="line"/>
      <point x="723" y="96" type="line"/>
      <point x="723" y="0" type="line"/>
      <point x="661" y="0" type="line"/>
      <point x="661" y="96" type="line"/>
      <point x="462" y="96" type="line"/>
      <point x="462" y="154" type="line"/>
      <point x="672" y="429" type="line"/>
    </contour>
  </outline>
</glyph>
<glyph name="onehalf" format="1">
  <advance width="834"/>
  <unicode hex="00BD"/>
  <outline>
    <contour>
      <point x="570" y="275" type="curve"/>
      <point x="502" y="275" type="line"/>
      <point x="502" y="367"/>
      <point x="562" y="429"/>
      <point x="655" y="429" type="curve" smooth="yes"/>
      <point x="736" y="429"/>
      <point x="803" y="383"/>
      <point x="803" y="303" type="curve" smooth="yes"/>
      <point x="803" y="229"/>
      <point x="746" y="190"/>
      <point x="690" y="158" type="curve" smooth="yes"/>
      <point x="633" y="123"/>
      <point x="573" y="97"/>
      <point x="562" y="55" type="curve"/>
      <point x="797" y="55" type="line"/>
      <point x="797" y="0" type="line"/>
      <point x="494" y="0" type="line"/>
      <point x="499" y="101"/>
      <point x="554" y="136"/>
      <point x="619" y="174" type="curve" smooth="yes"/>
      <point x="697" y="220"/>
      <point x="735" y="244"/>
      <point x="735" y="304" type="curve" smooth="yes"/>
      <point x="735" y="347"/>
      <point x="699" y="374"/>
      <point x="652" y="374" type="curve" smooth="yes"/>
      <point x="592" y="374"/>
      <point x="570" y="327"/>
    </contour>
    <contour>
      <point x="219" y="709" type="line"/>
      <point x="219" y="280" type="line"/>
      <point x="151" y="280" type="line"/>
      <point x="151" y="588" type="line"/>
      <point x="36" y="588" type="line"/>
      <point x="36" y="638" type="line"/>
      <point x="101" y="638"/>
      <point x="156" y="653"/>
      <point x="169" y="709" type="curve"/>
    </contour>
    <contour>
      <point x="135" y="-28" type="line"/>
      <point x="570" y="725" type="line"/>
      <point x="634" y="725" type="line"/>
      <point x="199" y="-28" type="line"/>
    </contour>
  </outline>
</glyph>
<glyph name="threequarters" format="1">
  <advance width="834"/>
  <unicode hex="00BE"/>
  <outline>
    <contour>
      <point x="177" y="477" type="line"/>
      <point x="177" y="527" type="line"/>
      <point x="201" y="527" type="line" smooth="yes"/>
      <point x="245" y="527"/>
      <point x="284" y="545"/>
      <point x="284" y="592" type="curve" smooth="yes"/>
      <point x="284" y="632"/>
      <point x="251" y="654"/>
      <point x="207" y="654" type="curve" smooth="yes"/>
      <point x="152" y="654"/>
      <point x="127" y="617"/>
      <point x="127" y="568" type="curve"/>
      <point x="59" y="568" type="line"/>
      <point x="64" y="655"/>
      <point x="118" y="709"/>
      <point x="207" y="709" type="curve" smooth="yes"/>
      <point x="290" y="709"/>
      <point x="352" y="669"/>
      <point x="352" y="592" type="curve" smooth="yes"/>
      <point x="352" y="553"/>
      <point x="321" y="522"/>
      <point x="284" y="507" type="curve"/>
      <point x="284" y="505" type="line"/>
      <point x="343" y="494"/>
      <point x="371" y="454"/>
      <point x="371" y="403" type="curve" smooth="yes"/>
      <point x="371" y="315"/>
      <point x="293" y="273"/>
      <point x="209" y="273" type="curve" smooth="yes"/>
      <point x="120" y="273"/>
      <point x="49" y="321"/>
      <point x="49" y="414" type="curve"/>
      <point x="117" y="414" type="line"/>
      <point x="118" y="358"/>
      <point x="150" y="328"/>
      <point x="209" y="328" type="curve" smooth="yes"/>
      <point x="260" y="328"/>
      <point x="303" y="355"/>
      <point x="303" y="400" type="curve" smooth="yes"/>
      <point x="303" y="456"/>
      <point x="257" y="477"/>
      <point x="210" y="477" type="curve" smooth="yes"/>
    </contour>
    <contour>
      <point x="215" y="-28" type="line"/>
      <point x="650" y="725" type="line"/>
      <point x="714" y="725" type="line"/>
      <point x="279" y="-28" type="line"/>
    </contour>
    <contour>
      <point x="677" y="340" type="line"/>
      <point x="529" y="147" type="line"/>
      <point x="679" y="147" type="line"/>
      <point x="679" y="340" type="line"/>
    </contour>
    <contour>
      <point x="740" y="429" type="line"/>
      <point x="740" y="151" type="line"/>
      <point x="800" y="151" type="line"/>
      <point x="800" y="96" type="line"/>
      <point x="740" y="96" type="line"/>
      <point x="740" y="0" type="line"/>
      <point x="678" y="0" type="line"/>
      <point x="678" y="96" type="line"/>
      <point x="479" y="96" type="line"/>
      <point x="479" y="154" type="line"/>
      <point x="689" y="429" type="line"/>
    </contour>
  </outline>
</glyph>
<glyph name="questiondown" format="1">
  <advance width="556"/>
  <unicode hex="00BF"/>
  <outline>
    <contour>
      <point x="337" y="517" type="line"/>
      <point x="337" y="406" type="line"/>
      <point x="226" y="406" type="line"/>
      <point x="226" y="517" type="line"/>
    </contour>
    <contour>
      <point x="418" y="30" type="curve"/>
      <point x="503" y="30" type="line"/>
      <point x="506" y="-107"/>
      <point x="418" y="-210"/>
      <point x="279" y="-210" type="curve" smooth="yes"/>
      <point x="155" y="-210"/>
      <point x="68" y="-137"/>
      <point x="68" y="-10" type="curve" smooth="yes"/>
      <point x="68" y="73"/>
      <point x="109" y="117"/>
      <point x="154" y="160" type="curve" smooth="yes"/>
      <point x="197" y="200"/>
      <point x="241" y="240"/>
      <point x="241" y="308" type="curve" smooth="yes"/>
      <point x="241" y="339" type="line"/>
      <point x="326" y="339" type="line"/>
      <point x="326" y="300" type="line"/>
      <point x="319" y="133"/>
      <point x="150" y="129"/>
      <point x="158" y="-18" type="curve" smooth="yes"/>
      <point x="163" y="-91"/>
      <point x="207" y="-135"/>
      <point x="279" y="-135" type="curve" smooth="yes"/>
      <point x="375" y="-135"/>
      <point x="418" y="-62"/>
    </contour>
  </outline>
</glyph>
<glyph name="Atilde" format="1">
  <advance width="648"/>
  <unicode hex="00C3"/>
  <outline>
    <contour>
      <point x="322" y="628" type="line"/>
      <point x="201" y="295" type="line"/>
      <point x="443" y="295" type="line"/>
      <point x="324" y="628" type="line"/>
    </contour>
    <contour>
      <point x="-7" y="0" type="line"/>
      <point x="272" y="714" type="line"/>
      <point x="377" y="714" type="line"/>
      <point x="656" y="0" type="line"/>
      <point x="551" y="0" type="line"/>
      <point x="473" y="215" type="line"/>
      <point x="171" y="215" type="line"/>
      <point x="91" y="0" type="line"/>
    </contour>
    <contour>
      <point x="445" y="907" type="curve"/>
      <point x="497" y="907" type="line"/>
      <point x="493" y="878"/>
      <point x="482" y="851"/>
      <point x="465" y="828" type="curve" smooth="yes"/>
      <point x="448" y="807"/>
      <point x="427" y="796"/>
      <point x="396" y="796" type="curve" smooth="yes"/>
      <point x="368" y="796"/>
      <point x="345" y="805"/>
      <point x="321" y="816" type="curve" smooth="yes"/>
      <point x="297" y="825"/>
      <point x="274" y="835"/>
      <point x="255" y="835" type="curve" smooth="yes"/>
      <point x="244" y="835"/>
      <point x="232" y="831"/>
      <point x="224" y="823" type="curve" smooth="yes"/>
      <point x="216" y="816"/>
      <point x="213" y="810"/>
      <point x="206" y="793" type="curve"/>
      <point x="154" y="793" type="line"/>
      <point x="167" y="854"/>
      <point x="197" y="903"/>
      <point x="260" y="903" type="curve" smooth="yes"/>
      <point x="313" y="903"/>
      <point x="356" y="863"/>
      <point x="399" y="863" type="curve" smooth="yes"/>
      <point x="423" y="863"/>
      <point x="437" y="880"/>
    </contour>
  </outline>
</glyph>
<glyph name="Adieresis" format="1">
  <advance width="648"/>
  <unicode hex="00C4"/>
  <outline>
    <contour>
      <point x="322" y="628" type="line"/>
      <point x="201" y="295" type="line"/>
      <point x="443" y="295" type="line"/>
      <point x="324" y="628" type="line"/>
    </contour>
    <contour>
      <point x="-7" y="0" type="line"/>
      <point x="272" y="714" type="line"/>
      <point x="377" y="714" type="line"/>
      <point x="656" y="0" type="line"/>
      <point x="551" y="0" type="line"/>
      <point x="473" y="215" type="line"/>
      <point x="171" y="215" type="line"/>
      <point x="91" y="0" type="line"/>
    </contour>
    <contour>
      <point x="185" y="793" type="line"/>
      <point x="185" y="897" type="line"/>
      <point x="275" y="897" type="line"/>
      <point x="275" y="793" type="line"/>
    </contour>
    <contour>
      <point x="373" y="793" type="line"/>
      <point x="373" y="897" type="line"/>
      <point x="463" y="897" type="line"/>
      <point x="463" y="793" type="line"/>
    </contour>
  </outline>
</glyph>
<glyph name="Aring" format="1">
  <advance width="648"/>
  <unicode hex="00C5"/>
  <outline>
    <contour>
      <point x="211" y="861" type="curve" smooth="yes"/>
      <point x="211" y="923"/>
      <point x="263" y="973"/>
      <point x="324" y="973" type="curve" smooth="yes"/>
      <point x="385" y="973"/>
      <point x="437" y="923"/>
      <point x="437" y="861" type="curve" smooth="yes"/>
      <point x="437" y="799"/>
      <point x="385" y="749"/>
      <point x="324" y="749" type="curve" smooth="yes"/>
      <point x="263" y="749"/>
      <point x="211" y="799"/>
    </contour>
    <contour>
      <point x="257" y="860" type="curve" smooth="yes"/>
      <point x="257" y="821"/>
      <point x="285" y="792"/>
      <point x="324" y="792" type="curve" smooth="yes"/>
      <point x="363" y="792"/>
      <point x="391" y="821"/>
      <point x="391" y="860" type="curve" smooth="yes"/>
      <point x="391" y="899"/>
      <point x="363" y="928"/>
      <point x="324" y="928" type="curve" smooth="yes"/>
      <point x="285" y="928"/>
      <point x="257" y="899"/>
    </contour>
    <contour>
      <point x="322" y="628" type="line"/>
      <point x="201" y="295" type="line"/>
      <point x="443" y="295" type="line"/>
      <point x="324" y="628" type="line"/>
    </contour>
    <contour>
      <point x="-7" y="0" type="line"/>
      <point x="272" y="714" type="line"/>
      <point x="377" y="714" type="line"/>
      <point x="656" y="0" type="line"/>
      <point x="551" y="0" type="line"/>
      <point x="473" y="215" type="line"/>
      <point x="171" y="215" type="line"/>
      <point x="91" y="0" type="line"/>
    </contour>
  </outline>
</glyph>
<glyph name="AE" format="1">
  <advance width="926"/>
  <unicode hex="00C6"/>
  <outline>
    <contour>
      <point x="448" y="634" type="line"/>
      <point x="407" y="634" type="line"/>
      <point x="239" y="288" type="line"/>
      <point x="448" y="288" type="line"/>
    </contour>
    <contour>
      <point x="-7" y="0" type="line"/>
      <point x="354" y="714" type="line"/>
      <point x="889" y="714" type="line"/>
      <point x="889" y="634" type="line"/>
      <point x="538" y="634" type="line"/>
      <point x="538" y="407" type="line"/>
      <point x="868" y="407" type="line"/>
      <point x="868" y="327" type="line"/>
      <point x="538" y="327" type="line"/>
      <point x="538" y="80" type="line"/>
      <point x="895" y="80" type="line"/>
      <point x="895" y="0" type="line"/>
      <point x="448" y="0" type="line"/>
      <point x="448" y="208" type="line"/>
      <point x="202" y="208" type="line"/>
      <point x="100" y="0" type="line"/>
    </contour>
  </outline>
</glyph>
<glyph name="Ccedilla" format="1">
  <advance width="722"/>
  <unicode hex="00C7"/>
  <outline>
    <contour>
      <point x="675" y="499" type="curve"/>
      <point x="580" y="499" type="line"/>
      <point x="559" y="600"/>
      <point x="480" y="651"/>
      <point x="380" y="651" type="curve" smooth="yes"/>
      <point x="210" y="651"/>
      <point x="138" y="511"/>
      <point x="138" y="362" type="curve" smooth="yes"/>
      <point x="138" y="199"/>
      <point x="210" y="63"/>
      <point x="381" y="63" type="curve" smooth="yes"/>
      <point x="505" y="63"/>
      <point x="579" y="151"/>
      <point x="587" y="269" type="curve"/>
      <point x="682" y="269" type="line"/>
      <point x="663" y="93"/>
      <point x="557" y="-13"/>
      <point x="381" y="-16" type="curve"/>
      <point x="352" y="-53" type="line"/>
      <point x="354" y="-55" type="line"/>
      <point x="361" y="-50"/>
      <point x="372" y="-48"/>
      <point x="387" y="-48" type="curve" smooth="yes"/>
      <point x="430" y="-48"/>
      <point x="471" y="-72"/>
      <point x="471" y="-121" type="curve" smooth="yes"/>
      <point x="471" y="-188"/>
      <point x="403" y="-210"/>
      <point x="347" y="-210" type="curve" smooth="yes"/>
      <point x="315" y="-210"/>
      <point x="286" y="-202"/>
      <point x="255" y="-191" type="curve"/>
      <point x="273" y="-147" type="line"/>
      <point x="289" y="-154"/>
      <point x="313" y="-160"/>
      <point x="334" y="-160" type="curve" smooth="yes"/>
      <point x="361" y="-160"/>
      <point x="396" y="-152"/>
      <point x="396" y="-129" type="curve" smooth="yes"/>
      <point x="396" y="-110"/>
      <point x="376" y="-98"/>
      <point x="349" y="-98" type="curve" smooth="yes"/>
      <point x="333" y="-98"/>
      <point x="323" y="-101"/>
      <point x="308" y="-106" type="curve"/>
      <point x="291" y="-78" type="line"/>
      <point x="340" y="-15" type="line"/>
      <point x="140" y="1"/>
      <point x="43" y="157"/>
      <point x="43" y="355" type="curve" smooth="yes"/>
      <point x="43" y="563"/>
      <point x="161" y="731"/>
      <point x="381" y="731" type="curve" smooth="yes"/>
      <point x="530" y="731"/>
      <point x="654" y="651"/>
    </contour>
  </outline>
</glyph>
<glyph name="Egrave" format="1">
  <advance width="611"/>
  <unicode hex="00C8"/>
  <outline>
    <contour>
      <point x="78" y="0" type="line"/>
      <point x="78" y="714" type="line"/>
      <point x="571" y="714" type="line"/>
      <point x="571" y="634" type="line"/>
      <point x="173" y="634" type="line"/>
      <point x="173" y="407" type="line"/>
      <point x="544" y="407" type="line"/>
      <point x="544" y="327" type="line"/>
      <point x="173" y="327" type="line"/>
      <point x="173" y="80" type="line"/>
      <point x="574" y="80" type="line"/>
      <point x="574" y="0" type="line"/>
    </contour>
    <contour>
      <point x="299" y="779" type="line"/>
      <point x="168" y="922" type="line"/>
      <point x="277" y="922" type="line"/>
      <point x="363" y="779" type="line"/>
    </contour>
  </outline>
</glyph>
<glyph name="Eacute" format="1">
  <advance width="611"/>
  <unicode hex="00C9"/>
  <outline>
    <contour>
      <point x="78" y="0" type="line"/>
      <point x="78" y="714" type="line"/>
      <point x="571" y="714" type="line"/>
      <point x="571" y="634" type="line"/>
      <point x="173" y="634" type="line"/>
      <point x="173" y="407" type="line"/>
      <point x="544" y="407" type="line"/>
      <point x="544" y="327" type="line"/>
      <point x="173" y="327" type="line"/>
      <point x="173" y="80" type="line"/>
      <point x="574" y="80" type="line"/>
      <point x="574" y="0" type="line"/>
    </contour>
    <contour>
      <point x="284" y="779" type="line"/>
      <point x="370" y="922" type="line"/>
      <point x="479" y="922" type="line"/>
      <point x="348" y="779" type="line"/>
    </contour>
  </outline>
</glyph>
<glyph name="Edieresis" format="1">
  <advance width="611"/>
  <unicode hex="00CB"/>
  <outline>
    <contour>
      <point x="78" y="0" type="line"/>
      <point x="78" y="714" type="line"/>
      <point x="571" y="714" type="line"/>
      <point x="571" y="634" type="line"/>
      <point x="173" y="634" type="line"/>
      <point x="173" y="407" type="line"/>
      <point x="544" y="407" type="line"/>
      <point x="544" y="327" type="line"/>
      <point x="173" y="327" type="line"/>
      <point x="173" y="80" type="line"/>
      <point x="574" y="80" type="line"/>
      <point x="574" y="0" type="line"/>
    </contour>
    <contour>
      <point x="189" y="792" type="line"/>
      <point x="189" y="896" type="line"/>
      <point x="279" y="896" type="line"/>
      <point x="279" y="792" type="line"/>
    </contour>
    <contour>
      <point x="377" y="792" type="line"/>
      <point x="377" y="896" type="line"/>
      <point x="467" y="896" type="line"/>
      <point x="467" y="792" type="line"/>
    </contour>
  </outline>
</glyph>
<glyph name="Igrave" format="1">
  <advance width="259"/>
  <unicode hex="00CC"/>
  <outline>
    <contour>
      <point x="82" y="0" type="line"/>
      <point x="82" y="714" type="line"/>
      <point x="177" y="714" type="line"/>
      <point x="177" y="0" type="line"/>
    </contour>
    <contour>
      <point x="113" y="779" type="line"/>
      <point x="-18" y="922" type="line"/>
      <point x="91" y="922" type="line"/>
      <point x="177" y="779" type="line"/>
    </contour>
  </outline>
</glyph>
<glyph name="Iacute" format="1">
  <advance width="259"/>
  <unicode hex="00CD"/>
  <outline>
    <contour>
      <point x="82" y="0" type="line"/>
      <point x="82" y="714" type="line"/>
      <point x="177" y="714" type="line"/>
      <point x="177" y="0" type="line"/>
    </contour>
    <contour>
      <point x="83" y="779" type="line"/>
      <point x="169" y="922" type="line"/>
      <point x="278" y="922" type="line"/>
      <point x="147" y="779" type="line"/>
    </contour>
  </outline>
</glyph>
<glyph name="Icircumflex" format="1">
  <advance width="259"/>
  <unicode hex="00CE"/>
  <outline>
    <contour>
      <point x="82" y="0" type="line"/>
      <point x="82" y="714" type="line"/>
      <point x="177" y="714" type="line"/>
      <point x="177" y="0" type="line"/>
    </contour>
    <contour>
      <point x="-16" y="779" type="line"/>
      <point x="87" y="922" type="line"/>
      <point x="180" y="922" type="line"/>
      <point x="284" y="779" type="line"/>
      <point x="200" y="779" type="line"/>
      <point x="131" y="875" type="line"/>
      <point x="61" y="779" type="line"/>
    </contour>
  </outline>
</glyph>
<glyph name="Idieresis" format="1">
  <advance width="259"/>
  <unicode hex="00CF"/>
  <outline>
    <contour>
      <point x="82" y="0" type="line"/>
      <point x="82" y="714" type="line"/>
      <point x="177" y="714" type="line"/>
      <point x="177" y="0" type="line"/>
    </contour>
    <contour>
      <point x="-9" y="792" type="line"/>
      <point x="-9" y="896" type="line"/>
      <point x="81" y="896" type="line"/>
      <point x="81" y="792" type="line"/>
    </contour>
    <contour>
      <point x="179" y="792" type="line"/>
      <point x="179" y="896" type="line"/>
      <point x="269" y="896" type="line"/>
      <point x="269" y="792" type="line"/>
    </contour>
  </outline>
</glyph>
<glyph name="Ntilde" format="1">
  <advance width="722"/>
  <unicode hex="00D1"/>
  <outline>
    <contour>
      <point x="77" y="0" type="line"/>
      <point x="77" y="714" type="line"/>
      <point x="178" y="714" type="line"/>
      <point x="554" y="135" type="line"/>
      <point x="556" y="135" type="line"/>
      <point x="556" y="714" type="line"/>
      <point x="646" y="714" type="line"/>
      <point x="646" y="0" type="line"/>
      <point x="542" y="0" type="line"/>
      <point x="169" y="573" type="line"/>
      <point x="167" y="573" type="line"/>
      <point x="167" y="0" type="line"/>
    </contour>
    <contour>
      <point x="487" y="907" type="curve"/>
      <point x="539" y="907" type="line"/>
      <point x="535" y="878"/>
      <point x="524" y="851"/>
      <point x="507" y="828" type="curve" smooth="yes"/>
      <point x="490" y="807"/>
      <point x="469" y="796"/>
      <point x="438" y="796" type="curve" smooth="yes"/>
      <point x="410" y="796"/>
      <point x="387" y="805"/>
      <point x="363" y="816" type="curve" smooth="yes"/>
      <point x="339" y="825"/>
      <point x="316" y="835"/>
      <point x="297" y="835" type="curve" smooth="yes"/>
      <point x="286" y="835"/>
      <point x="274" y="831"/>
      <point x="266" y="823" type="curve" smooth="yes"/>
      <point x="258" y="816"/>
      <point x="255" y="810"/>
      <point x="248" y="793" type="curve"/>
      <point x="196" y="793" type="line"/>
      <point x="209" y="854"/>
      <point x="239" y="903"/>
      <point x="302" y="903" type="curve" smooth="yes"/>
      <point x="355" y="903"/>
      <point x="398" y="863"/>
      <point x="441" y="863" type="curve" smooth="yes"/>
      <point x="465" y="863"/>
      <point x="479" y="880"/>
    </contour>
  </outline>
</glyph>
<glyph name="Oacute" format="1">
  <advance width="760"/>
  <unicode hex="00D3"/>
  <outline>
    <contour>
      <point x="133" y="357" type="curve" smooth="yes"/>
      <point x="133" y="213"/>
      <point x="206" y="63"/>
      <point x="380" y="63" type="curve" smooth="yes"/>
      <point x="554" y="63"/>
      <point x="627" y="213"/>
      <point x="627" y="357" type="curve" smooth="yes"/>
      <point x="627" y="501"/>
      <point x="554" y="651"/>
      <point x="380" y="651" type="curve" smooth="yes"/>
      <point x="206" y="651"/>
      <point x="133" y="501"/>
    </contour>
    <contour>
      <point x="38" y="357" type="curve" smooth="yes"/>
      <point x="38" y="552"/>
      <point x="153" y="731"/>
      <point x="380" y="731" type="curve" smooth="yes"/>
      <point x="607" y="731"/>
      <point x="722" y="552"/>
      <point x="722" y="357" type="curve" smooth="yes"/>
      <point x="722" y="162"/>
      <point x="607" y="-17"/>
      <point x="380" y="-17" type="curve" smooth="yes"/>
      <point x="153" y="-17"/>
      <point x="38" y="162"/>
    </contour>
    <contour>
      <point x="325" y="779" type="line"/>
      <point x="411" y="922" type="line"/>
      <point x="520" y="922" type="line"/>
      <point x="389" y="779" type="line"/>
    </contour>
  </outline>
</glyph>
<glyph name="Otilde" format="1">
  <advance width="760"/>
  <unicode hex="00D5"/>
  <outline>
    <contour>
      <point x="133" y="357" type="curve" smooth="yes"/>
      <point x="133" y="213"/>
      <point x="206" y="63"/>
      <point x="380" y="63" type="curve" smooth="yes"/>
      <point x="554" y="63"/>
      <point x="627" y="213"/>
      <point x="627" y="357" type="curve" smooth="yes"/>
      <point x="627" y="501"/>
      <point x="554" y="651"/>
      <point x="380" y="651" type="curve" smooth="yes"/>
      <point x="206" y="651"/>
      <point x="133" y="501"/>
    </contour>
    <contour>
      <point x="38" y="357" type="curve" smooth="yes"/>
      <point x="38" y="552"/>
      <point x="153" y="731"/>
      <point x="380" y="731" type="curve" smooth="yes"/>
      <point x="607" y="731"/>
      <point x="722" y="552"/>
      <point x="722" y="357" type="curve" smooth="yes"/>
      <point x="722" y="162"/>
      <point x="607" y="-17"/>
      <point x="380" y="-17" type="curve" smooth="yes"/>
      <point x="153" y="-17"/>
      <point x="38" y="162"/>
    </contour>
    <contour>
      <point x="502" y="907" type="curve"/>
      <point x="554" y="907" type="line"/>
      <point x="550" y="878"/>
      <point x="539" y="851"/>
      <point x="522" y="828" type="curve" smooth="yes"/>
      <point x="505" y="807"/>
      <point x="484" y="796"/>
      <point x="453" y="796" type="curve" smooth="yes"/>
      <point x="425" y="796"/>
      <point x="402" y="805"/>
      <point x="378" y="816" type="curve" smooth="yes"/>
      <point x="354" y="825"/>
      <point x="331" y="835"/>
      <point x="312" y="835" type="curve" smooth="yes"/>
      <point x="301" y="835"/>
      <point x="289" y="831"/>
      <point x="281" y="823" type="curve" smooth="yes"/>
      <point x="273" y="816"/>
      <point x="270" y="810"/>
      <point x="263" y="793" type="curve"/>
      <point x="211" y="793" type="line"/>
      <point x="224" y="854"/>
      <point x="254" y="903"/>
      <point x="317" y="903" type="curve" smooth="yes"/>
      <point x="370" y="903"/>
      <point x="413" y="863"/>
      <point x="456" y="863" type="curve" smooth="yes"/>
      <point x="480" y="863"/>
      <point x="494" y="880"/>
    </contour>
  </outline>
</glyph>
<glyph name="multiply" format="1">
  <advance width="600"/>
  <unicode hex="00D7"/>
  <outline>
    <contour>
      <point x="119" y="24" type="line"/>
      <point x="71" y="72" type="line"/>
      <point x="253" y="254" type="line"/>
      <point x="72" y="434" type="line"/>
      <point x="120" y="482" type="line"/>
      <point x="301" y="302" type="line"/>
      <point x="481" y="482" type="line"/>
      <point x="529" y="434" type="line"/>
      <point x="349" y="254" type="line"/>
      <point x="530" y="72" type="line"/>
      <point x="482" y="24" type="line"/>
      <point x="301" y="206" type="line"/>
    </contour>
  </outline>
</glyph>
<glyph name="Oslash" format="1">
  <advance width="760"/>
  <unicode hex="00D8"/>
  <outline>
    <contour>
      <point x="691" y="730" type="line"/>
      <point x="723" y="700" type="line"/>
      <point x="641" y="610" type="line"/>
      <point x="696" y="541"/>
      <point x="722" y="452"/>
      <point x="722" y="357" type="curve" smooth="yes"/>
      <point x="722" y="162"/>
      <point x="607" y="-17"/>
      <point x="380" y="-17" type="curve" smooth="yes"/>
      <point x="283" y="-17"/>
      <point x="207" y="16"/>
      <point x="151" y="69" type="curve"/>
      <point x="70" y="-20" type="line"/>
      <point x="37" y="10" type="line"/>
      <point x="121" y="102" type="line"/>
      <point x="65" y="170"/>
      <point x="38" y="261"/>
      <point x="38" y="357" type="curve" smooth="yes"/>
      <point x="38" y="552"/>
      <point x="153" y="731"/>
      <point x="380" y="731" type="curve" smooth="yes"/>
      <point x="480" y="731"/>
      <point x="556" y="698"/>
      <point x="612" y="643" type="curve"/>
    </contour>
    <contour>
      <point x="579" y="541" type="curve"/>
      <point x="210" y="134" type="line"/>
      <point x="249" y="90"/>
      <point x="304" y="63"/>
      <point x="380" y="63" type="curve" smooth="yes"/>
      <point x="554" y="63"/>
      <point x="627" y="213"/>
      <point x="627" y="357" type="curve" smooth="yes"/>
      <point x="627" y="422"/>
      <point x="612" y="489"/>
    </contour>
    <contour>
      <point x="183" y="170" type="curve"/>
      <point x="552" y="577" type="line"/>
      <point x="513" y="622"/>
      <point x="456" y="651"/>
      <point x="380" y="651" type="curve" smooth="yes"/>
      <point x="206" y="651"/>
      <point x="133" y="501"/>
      <point x="133" y="357" type="curve" smooth="yes"/>
      <point x="133" y="289"/>
      <point x="148" y="223"/>
    </contour>
  </outline>
</glyph>
<glyph name="Thorn" format="1">
  <advance width="648"/>
  <unicode hex="00DE"/>
  <outline>
    <contour>
      <point x="173" y="520" type="line"/>
      <point x="173" y="258" type="line"/>
      <point x="359" y="258" type="line" smooth="yes"/>
      <point x="467" y="257"/>
      <point x="515" y="303"/>
      <point x="515" y="388" type="curve" smooth="yes"/>
      <point x="515" y="475"/>
      <point x="467" y="520"/>
      <point x="359" y="520" type="curve" smooth="yes"/>
    </contour>
    <contour>
      <point x="173" y="0" type="line"/>
      <point x="78" y="0" type="line"/>
      <point x="78" y="714" type="line"/>
      <point x="173" y="714" type="line"/>
      <point x="173" y="600" type="line"/>
      <point x="391" y="600" type="line" smooth="yes"/>
      <point x="534" y="600"/>
      <point x="610" y="521"/>
      <point x="610" y="388" type="curve" smooth="yes"/>
      <point x="610" y="255"/>
      <point x="534" y="177"/>
      <point x="391" y="178" type="curve" smooth="yes"/>
      <point x="173" y="178" type="line"/>
    </contour>
  </outline>
</glyph>
<glyph name="germandbls" format="1">
  <advance width="556"/>
  <unicode hex="00DF"/>
  <outline>
    <contour>
      <point x="64" y="0" type="line"/>
      <point x="64" y="531" type="line" smooth="yes"/>
      <point x="64" y="650"/>
      <point x="142" y="731"/>
      <point x="262" y="731" type="curve" smooth="yes"/>
      <point x="361" y="731"/>
      <point x="469" y="672"/>
      <point x="469" y="556" type="curve" smooth="yes"/>
      <point x="469" y="481"/>
      <point x="440" y="425"/>
      <point x="365" y="401" type="curve"/>
      <point x="365" y="399" type="line"/>
      <point x="456" y="388"/>
      <point x="501" y="307"/>
      <point x="501" y="220" type="curve" smooth="yes"/>
      <point x="501" y="83"/>
      <point x="406" y="-12"/>
      <point x="270" y="-12" type="curve" smooth="yes"/>
      <point x="255" y="-12"/>
      <point x="242" y="-11"/>
      <point x="227" y="-8" type="curve"/>
      <point x="227" y="66" type="line"/>
      <point x="238" y="63"/>
      <point x="250" y="63"/>
      <point x="261" y="63" type="curve" smooth="yes"/>
      <point x="353" y="63"/>
      <point x="411" y="122"/>
      <point x="411" y="209" type="curve" smooth="yes"/>
      <point x="411" y="340"/>
      <point x="339" y="359"/>
      <point x="227" y="359" type="curve"/>
      <point x="227" y="427" type="line"/>
      <point x="307" y="422"/>
      <point x="379" y="451"/>
      <point x="379" y="543" type="curve" smooth="yes"/>
      <point x="379" y="606"/>
      <point x="331" y="656"/>
      <point x="268" y="656" type="curve" smooth="yes"/>
      <point x="198" y="656"/>
      <point x="149" y="627"/>
      <point x="149" y="516" type="curve" smooth="yes"/>
      <point x="149" y="0" type="line"/>
    </contour>
  </outline>
</glyph>
<glyph name="atilde" format="1">
  <advance width="537"/>
  <unicode hex="00E3"/>
  <outline>
    <contour>
      <point x="522" y="68" type="curve"/>
      <point x="522" y="2" type="line"/>
      <point x="507" y="-7"/>
      <point x="486" y="-12"/>
      <point x="461" y="-12" type="curve" smooth="yes"/>
      <point x="417" y="-12"/>
      <point x="389" y="12"/>
      <point x="389" y="68" type="curve"/>
      <point x="342" y="12"/>
      <point x="279" y="-12"/>
      <point x="207" y="-12" type="curve" smooth="yes"/>
      <point x="113" y="-12"/>
      <point x="36" y="29"/>
      <point x="36" y="133" type="curve" smooth="yes"/>
      <point x="36" y="250"/>
      <point x="123" y="276"/>
      <point x="211" y="292" type="curve" smooth="yes"/>
      <point x="304" y="311"/>
      <point x="385" y="303"/>
      <point x="385" y="368" type="curve" smooth="yes"/>
      <point x="385" y="443"/>
      <point x="323" y="454"/>
      <point x="270" y="454" type="curve" smooth="yes"/>
      <point x="198" y="454"/>
      <point x="145" y="432"/>
      <point x="141" y="356" type="curve"/>
      <point x="56" y="356" type="line"/>
      <point x="61" y="484"/>
      <point x="159" y="529"/>
      <point x="275" y="529" type="curve" smooth="yes"/>
      <point x="368" y="529"/>
      <point x="469" y="508"/>
      <point x="469" y="387" type="curve" smooth="yes"/>
      <point x="469" y="121" type="line" smooth="yes"/>
      <point x="469" y="81"/>
      <point x="469" y="63"/>
      <point x="496" y="63" type="curve" smooth="yes"/>
      <point x="504" y="63"/>
      <point x="513" y="65"/>
    </contour>
    <contour>
      <point x="384" y="180" type="curve" smooth="yes"/>
      <point x="384" y="267" type="line"/>
      <point x="318" y="218"/>
      <point x="126" y="266"/>
      <point x="126" y="139" type="curve" smooth="yes"/>
      <point x="126" y="83"/>
      <point x="174" y="63"/>
      <point x="226" y="63" type="curve" smooth="yes"/>
      <point x="338" y="63"/>
      <point x="384" y="132"/>
    </contour>
    <contour>
      <point x="395" y="717" type="curve"/>
      <point x="447" y="717" type="line"/>
      <point x="443" y="688"/>
      <point x="432" y="661"/>
      <point x="415" y="638" type="curve" smooth="yes"/>
      <point x="398" y="617"/>
      <point x="377" y="606"/>
      <point x="346" y="606" type="curve" smooth="yes"/>
      <point x="318" y="606"/>
      <point x="295" y="615"/>
      <point x="271" y="626" type="curve" smooth="yes"/>
      <point x="247" y="635"/>
      <point x="224" y="645"/>
      <point x="205" y="645" type="curve" smooth="yes"/>
      <point x="194" y="645"/>
      <point x="182" y="641"/>
      <point x="174" y="633" type="curve" smooth="yes"/>
      <point x="166" y="626"/>
      <point x="163" y="620"/>
      <point x="156" y="603" type="curve"/>
      <point x="104" y="603" type="line"/>
      <point x="117" y="664"/>
      <point x="147" y="713"/>
      <point x="210" y="713" type="curve" smooth="yes"/>
      <point x="263" y="713"/>
      <point x="306" y="673"/>
      <point x="349" y="673" type="curve" smooth="yes"/>
      <point x="373" y="673"/>
      <point x="387" y="690"/>
    </contour>
  </outline>
</glyph>
<glyph name="aring" format="1">
  <advance width="537"/>
  <unicode hex="00E5"/>
  <outline>
    <contour>
      <point x="522" y="68" type="curve"/>
      <point x="522" y="2" type="line"/>
      <point x="507" y="-7"/>
      <point x="486" y="-12"/>
      <point x="461" y="-12" type="curve" smooth="yes"/>
      <point x="417" y="-12"/>
      <point x="389" y="12"/>
      <point x="389" y="68" type="curve"/>
      <point x="342" y="12"/>
      <point x="279" y="-12"/>
      <point x="207" y="-12" type="curve" smooth="yes"/>
      <point x="113" y="-12"/>
      <point x="36" y="29"/>
      <point x="36" y="133" type="curve" smooth="yes"/>
      <point x="36" y="250"/>
      <point x="123" y="276"/>
      <point x="211" y="292" type="curve" smooth="yes"/>
      <point x="304" y="311"/>
      <point x="385" y="303"/>
      <point x="385" y="368" type="curve" smooth="yes"/>
      <point x="385" y="443"/>
      <point x="323" y="454"/>
      <point x="270" y="454" type="curve" smooth="yes"/>
      <point x="198" y="454"/>
      <point x="145" y="432"/>
      <point x="141" y="356" type="curve"/>
      <point x="56" y="356" type="line"/>
      <point x="61" y="484"/>
      <point x="159" y="529"/>
      <point x="275" y="529" type="curve" smooth="yes"/>
      <point x="368" y="529"/>
      <point x="469" y="508"/>
      <point x="469" y="387" type="curve" smooth="yes"/>
      <point x="469" y="121" type="line" smooth="yes"/>
      <point x="469" y="81"/>
      <point x="469" y="63"/>
      <point x="496" y="63" type="curve" smooth="yes"/>
      <point x="504" y="63"/>
      <point x="513" y="65"/>
    </contour>
    <contour>
      <point x="384" y="180" type="curve" smooth="yes"/>
      <point x="384" y="267" type="line"/>
      <point x="318" y="218"/>
      <point x="126" y="266"/>
      <point x="126" y="139" type="curve" smooth="yes"/>
      <point x="126" y="83"/>
      <point x="174" y="63"/>
      <point x="226" y="63" type="curve" smooth="yes"/>
      <point x="338" y="63"/>
      <point x="384" y="132"/>
    </contour>
    <contour>
      <point x="160" y="675" type="curve" smooth="yes"/>
      <point x="160" y="737"/>
      <point x="212" y="787"/>
      <point x="273" y="787" type="curve" smooth="yes"/>
      <point x="334" y="787"/>
      <point x="386" y="737"/>
      <point x="386" y="675" type="curve" smooth="yes"/>
      <point x="386" y="613"/>
      <point x="334" y="563"/>
      <point x="273" y="563" type="curve" smooth="yes"/>
      <point x="212" y="563"/>
      <point x="160" y="613"/>
    </contour>
    <contour>
      <point x="206" y="674" type="curve" smooth="yes"/>
      <point x="206" y="635"/>
      <point x="234" y="606"/>
      <point x="273" y="606" type="curve" smooth="yes"/>
      <point x="312" y="606"/>
      <point x="340" y="635"/>
      <point x="340" y="674" type="curve" smooth="yes"/>
      <point x="340" y="713"/>
      <point x="312" y="742"/>
      <point x="273" y="742" type="curve" smooth="yes"/>
      <point x="234" y="742"/>
      <point x="206" y="713"/>
    </contour>
  </outline>
</glyph>
<glyph name="ae" format="1">
  <advance width="870"/>
  <unicode hex="00E6"/>
  <outline>
    <contour>
      <point x="846" y="233" type="curve"/>
      <point x="467" y="233" type="line"/>
      <point x="467" y="141"/>
      <point x="517" y="63"/>
      <point x="622" y="63" type="curve" smooth="yes"/>
      <point x="686" y="63"/>
      <point x="737" y="95"/>
      <point x="753" y="163" type="curve"/>
      <point x="840" y="163" type="line"/>
      <point x="815" y="50"/>
      <point x="732" y="-12"/>
      <point x="616" y="-12" type="curve" smooth="yes"/>
      <point x="536" y="-12"/>
      <point x="464" y="12"/>
      <point x="429" y="89" type="curve"/>
      <point x="390" y="18"/>
      <point x="307" y="-12"/>
      <point x="211" y="-12" type="curve" smooth="yes"/>
      <point x="112" y="-12"/>
      <point x="36" y="29"/>
      <point x="36" y="133" type="curve" smooth="yes"/>
      <point x="36" y="250"/>
      <point x="123" y="276"/>
      <point x="211" y="292" type="curve" smooth="yes"/>
      <point x="336" y="316"/>
      <point x="387" y="312"/>
      <point x="387" y="374" type="curve" smooth="yes"/>
      <point x="387" y="444"/>
      <point x="326" y="454"/>
      <point x="270" y="454" type="curve" smooth="yes"/>
      <point x="198" y="454"/>
      <point x="145" y="432"/>
      <point x="141" y="356" type="curve"/>
      <point x="56" y="356" type="line"/>
      <point x="61" y="484"/>
      <point x="159" y="529"/>
      <point x="275" y="529" type="curve" smooth="yes"/>
      <point x="335" y="529"/>
      <point x="416" y="519"/>
      <point x="448" y="454" type="curve"/>
      <point x="483" y="507"/>
      <point x="550" y="529"/>
      <point x="613" y="529" type="curve" smooth="yes"/>
      <point x="793" y="529"/>
      <point x="846" y="394"/>
    </contour>
    <contour>
      <point x="126" y="139" type="curve" smooth="yes"/>
      <point x="126" y="83"/>
      <point x="174" y="63"/>
      <point x="226" y="63" type="curve" smooth="yes"/>
      <point x="338" y="63"/>
      <point x="387" y="132"/>
      <point x="387" y="180" type="curve" smooth="yes"/>
      <point x="387" y="267" type="line"/>
      <point x="352" y="245"/>
      <point x="284" y="243"/>
      <point x="230" y="232" type="curve" smooth="yes"/>
      <point x="174" y="221"/>
      <point x="126" y="203"/>
    </contour>
    <contour>
      <point x="467" y="308" type="curve"/>
      <point x="756" y="308" type="line"/>
      <point x="753" y="389"/>
      <point x="704" y="454"/>
      <point x="613" y="454" type="curve" smooth="yes"/>
      <point x="522" y="454"/>
      <point x="467" y="392"/>
    </contour>
  </outline>
</glyph>
<glyph name="ccedilla" format="1">
  <advance width="537"/>
  <unicode hex="00E7"/>
  <outline>
    <contour>
      <point x="503" y="351" type="curve"/>
      <point x="415" y="351" type="line"/>
      <point x="402" y="416"/>
      <point x="358" y="454"/>
      <point x="287" y="454" type="curve" smooth="yes"/>
      <point x="164" y="454"/>
      <point x="126" y="356"/>
      <point x="126" y="252" type="curve" smooth="yes"/>
      <point x="126" y="156"/>
      <point x="169" y="63"/>
      <point x="277" y="63" type="curve" smooth="yes"/>
      <point x="360" y="63"/>
      <point x="408" y="110"/>
      <point x="419" y="189" type="curve"/>
      <point x="506" y="189" type="line"/>
      <point x="487" y="68"/>
      <point x="414" y="-6"/>
      <point x="293" y="-11" type="curve"/>
      <point x="260" y="-53" type="line"/>
      <point x="262" y="-55" type="line"/>
      <point x="269" y="-50"/>
      <point x="280" y="-48"/>
      <point x="295" y="-48" type="curve" smooth="yes"/>
      <point x="338" y="-48"/>
      <point x="379" y="-72"/>
      <point x="379" y="-121" type="curve" smooth="yes"/>
      <point x="379" y="-188"/>
      <point x="311" y="-210"/>
      <point x="255" y="-210" type="curve" smooth="yes"/>
      <point x="223" y="-210"/>
      <point x="194" y="-202"/>
      <point x="163" y="-191" type="curve"/>
      <point x="181" y="-147" type="line"/>
      <point x="197" y="-154"/>
      <point x="221" y="-160"/>
      <point x="242" y="-160" type="curve" smooth="yes"/>
      <point x="269" y="-160"/>
      <point x="304" y="-152"/>
      <point x="304" y="-129" type="curve" smooth="yes"/>
      <point x="304" y="-110"/>
      <point x="284" y="-98"/>
      <point x="257" y="-98" type="curve" smooth="yes"/>
      <point x="241" y="-98"/>
      <point x="231" y="-101"/>
      <point x="216" y="-106" type="curve"/>
      <point x="199" y="-78" type="line"/>
      <point x="252" y="-10" type="line"/>
      <point x="111" y="1"/>
      <point x="36" y="107"/>
      <point x="36" y="252" type="curve" smooth="yes"/>
      <point x="36" y="407"/>
      <point x="116" y="529"/>
      <point x="280" y="529" type="curve" smooth="yes"/>
      <point x="398" y="529"/>
      <point x="490" y="474"/>
    </contour>
  </outline>
</glyph>
<glyph name="iacute" format="1">
  <advance width="222"/>
  <unicode hex="00ED"/>
  <outline>
    <contour>
      <point x="154" y="0" type="line"/>
      <point x="69" y="0" type="line"/>
      <point x="69" y="517" type="line"/>
      <point x="154" y="517" type="line"/>
    </contour>
    <contour>
      <point x="67" y="589" type="line"/>
      <point x="153" y="732" type="line"/>
      <point x="262" y="732" type="line"/>
      <point x="131" y="589" type="line"/>
    </contour>
  </outline>
</glyph>
<glyph name="icircumflex" format="1">
  <advance width="222"/>
  <unicode hex="00EE"/>
  <outline>
    <contour>
      <point x="154" y="0" type="line"/>
      <point x="69" y="0" type="line"/>
      <point x="69" y="517" type="line"/>
      <point x="154" y="517" type="line"/>
    </contour>
    <contour>
      <point x="-37" y="589" type="line"/>
      <point x="66" y="732" type="line"/>
      <point x="159" y="732" type="line"/>
      <point x="263" y="589" type="line"/>
      <point x="179" y="589" type="line"/>
      <point x="110" y="685" type="line"/>
      <point x="40" y="589" type="line"/>
    </contour>
  </outline>
</glyph>
<glyph name="idieresis" format="1">
  <advance width="222"/>
  <unicode hex="00EF"/>
  <outline>
    <contour>
      <point x="-27" y="602" type="line"/>
      <point x="-27" y="706" type="line"/>
      <point x="63" y="706" type="line"/>
      <point x="63" y="602" type="line"/>
    </contour>
    <contour>
      <point x="161" y="602" type="line"/>
      <point x="161" y="706" type="line"/>
      <point x="251" y="706" type="line"/>
      <point x="251" y="602" type="line"/>
    </contour>
    <contour>
      <point x="154" y="0" type="line"/>
      <point x="69" y="0" type="line"/>
      <point x="69" y="517" type="line"/>
      <point x="154" y="517" type="line"/>
    </contour>
  </outline>
</glyph>
<glyph name="eth" format="1">
  <advance width="574"/>
  <unicode hex="00F0"/>
  <outline>
    <contour>
      <point x="282" y="431" type="curve" smooth="yes"/>
      <point x="179" y="431"/>
      <point x="126" y="361"/>
      <point x="126" y="258" type="curve" smooth="yes"/>
      <point x="126" y="133"/>
      <point x="198" y="63"/>
      <point x="287" y="63" type="curve" smooth="yes"/>
      <point x="376" y="63"/>
      <point x="448" y="133"/>
      <point x="448" y="258" type="curve" smooth="yes"/>
      <point x="448" y="350"/>
      <point x="399" y="431"/>
    </contour>
    <contour>
      <point x="272" y="506" type="curve" smooth="yes"/>
      <point x="325" y="506"/>
      <point x="375" y="491"/>
      <point x="411" y="450" type="curve"/>
      <point x="413" y="450" type="line"/>
      <point x="381" y="518"/>
      <point x="323" y="580"/>
      <point x="291" y="601" type="curve"/>
      <point x="176" y="547" type="line"/>
      <point x="138" y="587" type="line"/>
      <point x="247" y="638" type="line"/>
      <point x="226" y="657"/>
      <point x="196" y="675"/>
      <point x="177" y="686" type="curve"/>
      <point x="247" y="731" type="line"/>
      <point x="266" y="718"/>
      <point x="297" y="696"/>
      <point x="324" y="675" type="curve"/>
      <point x="444" y="731" type="line"/>
      <point x="479" y="694" type="line"/>
      <point x="364" y="641" type="line"/>
      <point x="484" y="542"/>
      <point x="538" y="411"/>
      <point x="538" y="258" type="curve" smooth="yes"/>
      <point x="538" y="107"/>
      <point x="451" y="-12"/>
      <point x="287" y="-12" type="curve" smooth="yes"/>
      <point x="123" y="-12"/>
      <point x="36" y="107"/>
      <point x="36" y="258" type="curve" smooth="yes"/>
      <point x="36" y="388"/>
      <point x="120" y="506"/>
    </contour>
  </outline>
</glyph>
<glyph name="ntilde" format="1">
  <advance width="556"/>
  <unicode hex="00F1"/>
  <outline>
    <contour>
      <point x="64" y="0" type="line"/>
      <point x="64" y="517" type="line"/>
      <point x="144" y="517" type="line"/>
      <point x="144" y="435" type="line"/>
      <point x="146" y="435" type="line"/>
      <point x="182" y="499"/>
      <point x="239" y="529"/>
      <point x="314" y="529" type="curve" smooth="yes"/>
      <point x="450" y="529"/>
      <point x="492" y="451"/>
      <point x="492" y="340" type="curve" smooth="yes"/>
      <point x="492" y="0" type="line"/>
      <point x="407" y="0" type="line"/>
      <point x="407" y="350" type="line" smooth="yes"/>
      <point x="407" y="414"/>
      <point x="367" y="454"/>
      <point x="302" y="454" type="curve" smooth="yes"/>
      <point x="199" y="454"/>
      <point x="149" y="385"/>
      <point x="149" y="292" type="curve" smooth="yes"/>
      <point x="149" y="0" type="line"/>
    </contour>
    <contour>
      <point x="398" y="717" type="curve"/>
      <point x="450" y="717" type="line"/>
      <point x="446" y="688"/>
      <point x="435" y="661"/>
      <point x="418" y="638" type="curve" smooth="yes"/>
      <point x="401" y="617"/>
      <point x="380" y="606"/>
      <point x="349" y="606" type="curve" smooth="yes"/>
      <point x="321" y="606"/>
      <point x="298" y="615"/>
      <point x="274" y="626" type="curve" smooth="yes"/>
      <point x="250" y="635"/>
      <point x="227" y="645"/>
      <point x="208" y="645" type="curve" smooth="yes"/>
      <point x="197" y="645"/>
      <point x="185" y="641"/>
      <point x="177" y="633" type="curve" smooth="yes"/>
      <point x="169" y="626"/>
      <point x="166" y="620"/>
      <point x="159" y="603" type="curve"/>
      <point x="107" y="603" type="line"/>
      <point x="120" y="664"/>
      <point x="150" y="713"/>
      <point x="213" y="713" type="curve" smooth="yes"/>
      <point x="266" y="713"/>
      <point x="309" y="673"/>
      <point x="352" y="673" type="curve" smooth="yes"/>
      <point x="376" y="673"/>
      <point x="390" y="690"/>
    </contour>
  </outline>
</glyph>
<glyph name="otilde" format="1">
  <advance width="574"/>
  <unicode hex="00F5"/>
  <outline>
    <contour>
      <point x="126" y="258" type="curve" smooth="yes"/>
      <point x="126" y="133"/>
      <point x="198" y="63"/>
      <point x="287" y="63" type="curve" smooth="yes"/>
      <point x="376" y="63"/>
      <point x="448" y="133"/>
      <point x="448" y="258" type="curve" smooth="yes"/>
      <point x="448" y="383"/>
      <point x="376" y="454"/>
      <point x="287" y="454" type="curve" smooth="yes"/>
      <point x="198" y="454"/>
      <point x="126" y="383"/>
    </contour>
    <contour>
      <point x="36" y="258" type="curve" smooth="yes"/>
      <point x="36" y="410"/>
      <point x="123" y="529"/>
      <point x="287" y="529" type="curve" smooth="yes"/>
      <point x="451" y="529"/>
      <point x="538" y="410"/>
      <point x="538" y="258" type="curve" smooth="yes"/>
      <point x="538" y="107"/>
      <point x="451" y="-12"/>
      <point x="287" y="-12" type="curve" smooth="yes"/>
      <point x="123" y="-12"/>
      <point x="36" y="107"/>
    </contour>
    <contour>
      <point x="408" y="717" type="curve"/>
      <point x="460" y="717" type="line"/>
      <point x="456" y="688"/>
      <point x="445" y="661"/>
      <point x="428" y="638" type="curve" smooth="yes"/>
      <point x="411" y="617"/>
      <point x="390" y="606"/>
      <point x="359" y="606" type="curve" smooth="yes"/>
      <point x="331" y="606"/>
      <point x="308" y="615"/>
      <point x="284" y="626" type="curve" smooth="yes"/>
      <point x="260" y="635"/>
      <point x="237" y="645"/>
      <point x="218" y="645" type="curve" smooth="yes"/>
      <point x="207" y="645"/>
      <point x="195" y="641"/>
      <point x="187" y="633" type="curve" smooth="yes"/>
      <point x="179" y="626"/>
      <point x="176" y="620"/>
      <point x="169" y="603" type="curve"/>
      <point x="117" y="603" type="line"/>
      <point x="130" y="664"/>
      <point x="160" y="713"/>
      <point x="223" y="713" type="curve" smooth="yes"/>
      <point x="276" y="713"/>
      <point x="319" y="673"/>
      <point x="362" y="673" type="curve" smooth="yes"/>
      <point x="386" y="673"/>
      <point x="400" y="690"/>
    </contour>
  </outline>
</glyph>
<glyph name="odieresis" format="1">
  <advance width="574"/>
  <unicode hex="00F6"/>
  <outline>
    <contour>
      <point x="126" y="258" type="curve" smooth="yes"/>
      <point x="126" y="133"/>
      <point x="198" y="63"/>
      <point x="287" y="63" type="curve" smooth="yes"/>
      <point x="376" y="63"/>
      <point x="448" y="133"/>
      <point x="448" y="258" type="curve" smooth="yes"/>
      <point x="448" y="383"/>
      <point x="376" y="454"/>
      <point x="287" y="454" type="curve" smooth="yes"/>
      <point x="198" y="454"/>
      <point x="126" y="383"/>
    </contour>
    <contour>
      <point x="36" y="258" type="curve" smooth="yes"/>
      <point x="36" y="410"/>
      <point x="123" y="529"/>
      <point x="287" y="529" type="curve" smooth="yes"/>
      <point x="451" y="529"/>
      <point x="538" y="410"/>
      <point x="538" y="258" type="curve" smooth="yes"/>
      <point x="538" y="107"/>
      <point x="451" y="-12"/>
      <point x="287" y="-12" type="curve" smooth="yes"/>
      <point x="123" y="-12"/>
      <point x="36" y="107"/>
    </contour>
    <contour>
      <point x="148" y="602" type="line"/>
      <point x="148" y="706" type="line"/>
      <point x="238" y="706" type="line"/>
      <point x="238" y="602" type="line"/>
    </contour>
    <contour>
      <point x="336" y="602" type="line"/>
      <point x="336" y="706" type="line"/>
      <point x="426" y="706" type="line"/>
      <point x="426" y="602" type="line"/>
    </contour>
  </outline>
</glyph>
<glyph name="divide" format="1">
  <advance width="600"/>
  <unicode hex="00F7"/>
  <outline>
    <contour>
      <point x="236" y="47" type="curve" smooth="yes"/>
      <point x="236" y="82"/>
      <point x="265" y="111"/>
      <point x="300" y="111" type="curve" smooth="yes"/>
      <point x="335" y="111"/>
      <point x="364" y="82"/>
      <point x="364" y="47" type="curve" smooth="yes"/>
      <point x="364" y="15"/>
      <point x="334" y="-17"/>
      <point x="301" y="-17" type="curve" smooth="yes"/>
      <point x="266" y="-17"/>
      <point x="236" y="12"/>
    </contour>
    <contour>
      <point x="236" y="459" type="curve" smooth="yes"/>
      <point x="236" y="494"/>
      <point x="265" y="523"/>
      <point x="300" y="523" type="curve" smooth="yes"/>
      <point x="335" y="523"/>
      <point x="364" y="494"/>
      <point x="364" y="459" type="curve" smooth="yes"/>
      <point x="364" y="427"/>
      <point x="334" y="395"/>
      <point x="301" y="395" type="curve" smooth="yes"/>
      <point x="266" y="395"/>
      <point x="236" y="424"/>
    </contour>
    <contour>
      <point x="48" y="219" type="line"/>
      <point x="48" y="287" type="line"/>
      <point x="552" y="287" type="line"/>
      <point x="552" y="219" type="line"/>
    </contour>
  </outline>
</glyph>
<glyph name="oslash" format="1">
  <advance width="574"/>
  <unicode hex="00F8"/>
  <outline>
    <contour>
      <point x="540" y="509" type="line"/>
      <point x="480" y="443" type="line"/>
      <point x="519" y="396"/>
      <point x="538" y="331"/>
      <point x="538" y="258" type="curve" smooth="yes"/>
      <point x="538" y="107"/>
      <point x="451" y="-12"/>
      <point x="287" y="-12" type="curve" smooth="yes"/>
      <point x="218" y="-12"/>
      <point x="163" y="9"/>
      <point x="122" y="45" type="curve"/>
      <point x="62" y="-22" type="line"/>
      <point x="34" y="2" type="line"/>
      <point x="96" y="71" type="line"/>
      <point x="56" y="120"/>
      <point x="36" y="185"/>
      <point x="36" y="258" type="curve" smooth="yes"/>
      <point x="36" y="410"/>
      <point x="123" y="529"/>
      <point x="287" y="529" type="curve" smooth="yes"/>
      <point x="358" y="529"/>
      <point x="412" y="509"/>
      <point x="455" y="470" type="curve"/>
      <point x="513" y="535" type="line"/>
    </contour>
    <contour>
      <point x="420" y="377" type="curve"/>
      <point x="178" y="108" type="line"/>
      <point x="208" y="78"/>
      <point x="244" y="63"/>
      <point x="287" y="63" type="curve" smooth="yes"/>
      <point x="376" y="63"/>
      <point x="448" y="133"/>
      <point x="448" y="258" type="curve" smooth="yes"/>
      <point x="448" y="307"/>
      <point x="437" y="346"/>
    </contour>
    <contour>
      <point x="156" y="137" type="curve"/>
      <point x="398" y="407" type="line"/>
      <point x="369" y="438"/>
      <point x="332" y="454"/>
      <point x="287" y="454" type="curve" smooth="yes"/>
      <point x="198" y="454"/>
      <point x="126" y="383"/>
      <point x="126" y="258" type="curve" smooth="yes"/>
      <point x="126" y="210"/>
      <point x="137" y="170"/>
    </contour>
  </outline>
</glyph>
<glyph name="thorn" format="1">
  <advance width="593"/>
  <unicode hex="00FE"/>
  <outline>
    <contour>
      <point x="152" y="714" type="line"/>
      <point x="152" y="447" type="line"/>
      <point x="154" y="447" type="line"/>
      <point x="182" y="504"/>
      <point x="247" y="529"/>
      <point x="319" y="529" type="curve" smooth="yes"/>
      <point x="478" y="529"/>
      <point x="557" y="403"/>
      <point x="557" y="257" type="curve" smooth="yes"/>
      <point x="557" y="110"/>
      <point x="479" y="-12"/>
      <point x="321" y="-12" type="curve" smooth="yes"/>
      <point x="269" y="-12"/>
      <point x="191" y="8"/>
      <point x="154" y="69" type="curve"/>
      <point x="152" y="69" type="line"/>
      <point x="152" y="-198" type="line"/>
      <point x="67" y="-198" type="line"/>
      <point x="67" y="714" type="line"/>
    </contour>
    <contour>
      <point x="467" y="263" type="curve" smooth="yes"/>
      <point x="467" y="360"/>
      <point x="417" y="454"/>
      <point x="307" y="454" type="curve" smooth="yes"/>
      <point x="192" y="454"/>
      <point x="149" y="355"/>
      <point x="149" y="259" type="curve" smooth="yes"/>
      <point x="149" y="158"/>
      <point x="195" y="63"/>
      <point x="312" y="63" type="curve" smooth="yes"/>
      <point x="428" y="63"/>
      <point x="467" y="162"/>
    </contour>
  </outline>
</glyph>
<glyph name="amacron" format="1">
  <advance width="537"/>
  <unicode hex="0101"/>
  <outline>
    <contour>
      <point x="522" y="68" type="curve"/>
      <point x="522" y="2" type="line"/>
      <point x="507" y="-7"/>
      <point x="486" y="-12"/>
      <point x="461" y="-12" type="curve" smooth="yes"/>
      <point x="417" y="-12"/>
      <point x="389" y="12"/>
      <point x="389" y="68" type="curve"/>
      <point x="342" y="12"/>
      <point x="279" y="-12"/>
      <point x="207" y="-12" type="curve" smooth="yes"/>
      <point x="113" y="-12"/>
      <point x="36" y="29"/>
      <point x="36" y="133" type="curve" smooth="yes"/>
      <point x="36" y="250"/>
      <point x="123" y="276"/>
      <point x="211" y="292" type="curve" smooth="yes"/>
      <point x="304" y="311"/>
      <point x="385" y="303"/>
      <point x="385" y="368" type="curve" smooth="yes"/>
      <point x="385" y="443"/>
      <point x="323" y="454"/>
      <point x="270" y="454" type="curve" smooth="yes"/>
      <point x="198" y="454"/>
      <point x="145" y="432"/>
      <point x="141" y="356" type="curve"/>
      <point x="56" y="356" type="line"/>
      <point x="61" y="484"/>
      <point x="159" y="529"/>
      <point x="275" y="529" type="curve" smooth="yes"/>
      <point x="368" y="529"/>
      <point x="469" y="508"/>
      <point x="469" y="387" type="curve" smooth="yes"/>
      <point x="469" y="121" type="line" smooth="yes"/>
      <point x="469" y="81"/>
      <point x="469" y="63"/>
      <point x="496" y="63" type="curve" smooth="yes"/>
      <point x="504" y="63"/>
      <point x="513" y="65"/>
    </contour>
    <contour>
      <point x="384" y="180" type="curve" smooth="yes"/>
      <point x="384" y="267" type="line"/>
      <point x="318" y="218"/>
      <point x="126" y="266"/>
      <point x="126" y="139" type="curve" smooth="yes"/>
      <point x="126" y="83"/>
      <point x="174" y="63"/>
      <point x="226" y="63" type="curve" smooth="yes"/>
      <point x="338" y="63"/>
      <point x="384" y="132"/>
    </contour>
    <contour>
      <point x="108" y="627" type="line"/>
      <point x="108" y="682" type="line"/>
      <point x="449" y="682" type="line"/>
      <point x="449" y="627" type="line"/>
    </contour>
  </outline>
</glyph>
<glyph name="Abreve" format="1">
  <advance width="648"/>
  <unicode hex="0102"/>
  <outline>
    <contour>
      <point x="322" y="628" type="line"/>
      <point x="201" y="295" type="line"/>
      <point x="443" y="295" type="line"/>
      <point x="324" y="628" type="line"/>
    </contour>
    <contour>
      <point x="-7" y="0" type="line"/>
      <point x="272" y="714" type="line"/>
      <point x="377" y="714" type="line"/>
      <point x="656" y="0" type="line"/>
      <point x="551" y="0" type="line"/>
      <point x="473" y="215" type="line"/>
      <point x="171" y="215" type="line"/>
      <point x="91" y="0" type="line"/>
    </contour>
    <contour>
      <point x="167" y="919" type="curve"/>
      <point x="217" y="919" type="line"/>
      <point x="233" y="864"/>
      <point x="270" y="836"/>
      <point x="329" y="836" type="curve" smooth="yes"/>
      <point x="386" y="836"/>
      <point x="408" y="868"/>
      <point x="428" y="919" type="curve"/>
      <point x="479" y="919" type="line"/>
      <point x="464" y="834"/>
      <point x="409" y="781"/>
      <point x="321" y="781" type="curve" smooth="yes"/>
      <point x="229" y="781"/>
      <point x="180" y="830"/>
    </contour>
  </outline>
</glyph>
<glyph name="Aogonek" format="1">
  <advance width="648"/>
  <unicode hex="0104"/>
  <outline>
    <contour>
      <point x="656" y="0" type="line"/>
      <point x="591" y="0" type="line"/>
      <point x="523" y="-57"/>
      <point x="507" y="-88"/>
      <point x="507" y="-118" type="curve" smooth="yes"/>
      <point x="507" y="-139"/>
      <point x="518" y="-160"/>
      <point x="545" y="-160" type="curve" smooth="yes"/>
      <point x="576" y="-160"/>
      <point x="592" y="-149"/>
      <point x="607" y="-130" type="curve"/>
      <point x="639" y="-148" type="line"/>
      <point x="612" y="-195"/>
      <point x="572" y="-210"/>
      <point x="531" y="-210" type="curve" smooth="yes"/>
      <point x="507" y="-210"/>
      <point x="439" y="-208"/>
      <point x="439" y="-128" type="curve" smooth="yes"/>
      <point x="439" y="-112"/>
      <point x="453" y="-54"/>
      <point x="551" y="0" type="curve"/>
      <point x="473" y="215" type="line"/>
      <point x="171" y="215" type="line"/>
      <point x="91" y="0" type="line"/>
      <point x="-7" y="0" type="line"/>
      <point x="272" y="714" type="line"/>
      <point x="377" y="714" type="line"/>
    </contour>
    <contour>
      <point x="322" y="628" type="line"/>
      <point x="201" y="295" type="line"/>
      <point x="443" y="295" type="line"/>
      <point x="324" y="628" type="line"/>
    </contour>
  </outline>
</glyph>
<glyph name="aogonek" format="1">
  <advance width="537"/>
  <unicode hex="0105"/>
  <outline>
    <contour>
      <point x="522" y="68" type="curve"/>
      <point x="522" y="2" type="line"/>
      <point x="507" y="-7"/>
      <point x="486" y="-12"/>
      <point x="461" y="-12" type="curve" smooth="yes"/>
      <point x="458" y="-12"/>
      <point x="455" y="-12"/>
      <point x="452" y="-11" type="curve" smooth="yes"/>
      <point x="441" y="-21"/>
      <point x="431" y="-30"/>
      <point x="424" y="-38" type="curve" smooth="yes"/>
      <point x="391" y="-71"/>
      <point x="382" y="-97"/>
      <point x="382" y="-118" type="curve" smooth="yes"/>
      <point x="382" y="-139"/>
      <point x="393" y="-160"/>
      <point x="420" y="-160" type="curve" smooth="yes"/>
      <point x="451" y="-160"/>
      <point x="467" y="-149"/>
      <point x="482" y="-130" type="curve"/>
      <point x="514" y="-148" type="line"/>
      <point x="487" y="-195"/>
      <point x="447" y="-210"/>
      <point x="406" y="-210" type="curve" smooth="yes"/>
      <point x="382" y="-210"/>
      <point x="314" y="-208"/>
      <point x="314" y="-128" type="curve" smooth="yes"/>
      <point x="314" y="-113"/>
      <point x="322" y="-83"/>
      <point x="367" y="-40" type="curve" smooth="yes"/>
      <point x="381" y="-27"/>
      <point x="399" y="-15"/>
      <point x="421" y="-2" type="curve"/>
      <point x="416" y="0"/>
      <point x="412" y="3"/>
      <point x="408" y="7" type="curve" smooth="yes"/>
      <point x="395" y="20"/>
      <point x="389" y="40"/>
      <point x="389" y="68" type="curve"/>
      <point x="342" y="12"/>
      <point x="279" y="-12"/>
      <point x="207" y="-12" type="curve" smooth="yes"/>
      <point x="113" y="-12"/>
      <point x="36" y="29"/>
      <point x="36" y="133" type="curve" smooth="yes"/>
      <point x="36" y="250"/>
      <point x="123" y="276"/>
      <point x="211" y="292" type="curve" smooth="yes"/>
      <point x="304" y="311"/>
      <point x="385" y="303"/>
      <point x="385" y="368" type="curve" smooth="yes"/>
      <point x="385" y="443"/>
      <point x="323" y="454"/>
      <point x="270" y="454" type="curve" smooth="yes"/>
      <point x="198" y="454"/>
      <point x="145" y="432"/>
      <point x="141" y="356" type="curve"/>
      <point x="56" y="356" type="line"/>
      <point x="61" y="484"/>
      <point x="159" y="529"/>
      <point x="275" y="529" type="curve" smooth="yes"/>
      <point x="368" y="529"/>
      <point x="469" y="508"/>
      <point x="469" y="387" type="curve" smooth="yes"/>
      <point x="469" y="121" type="line" smooth="yes"/>
      <point x="469" y="81"/>
      <point x="469" y="63"/>
      <point x="496" y="63" type="curve" smooth="yes"/>
      <point x="504" y="63"/>
      <point x="513" y="65"/>
    </contour>
    <contour>
      <point x="384" y="180" type="curve" smooth="yes"/>
      <point x="384" y="267" type="line"/>
      <point x="318" y="218"/>
      <point x="126" y="266"/>
      <point x="126" y="139" type="curve" smooth="yes"/>
      <point x="126" y="83"/>
      <point x="174" y="63"/>
      <point x="226" y="63" type="curve" smooth="yes"/>
      <point x="338" y="63"/>
      <point x="384" y="132"/>
    </contour>
  </outline>
</glyph>
<glyph name="ccaron" format="1">
  <advance width="537"/>
  <unicode hex="010D"/>
  <outline>
    <contour>
      <point x="503" y="351" type="curve"/>
      <point x="415" y="351" type="line"/>
      <point x="402" y="416"/>
      <point x="358" y="454"/>
      <point x="287" y="454" type="curve" smooth="yes"/>
      <point x="164" y="454"/>
      <point x="126" y="356"/>
      <point x="126" y="252" type="curve" smooth="yes"/>
      <point x="126" y="156"/>
      <point x="169" y="63"/>
      <point x="277" y="63" type="curve" smooth="yes"/>
      <point x="360" y="63"/>
      <point x="408" y="110"/>
      <point x="419" y="189" type="curve"/>
      <point x="506" y="189" type="line"/>
      <point x="487" y="62"/>
      <point x="409" y="-12"/>
      <point x="278" y="-12" type="curve" smooth="yes"/>
      <point x="120" y="-12"/>
      <point x="36" y="97"/>
      <point x="36" y="252" type="curve" smooth="yes"/>
      <point x="36" y="407"/>
      <point x="116" y="529"/>
      <point x="280" y="529" type="curve" smooth="yes"/>
      <point x="398" y="529"/>
      <point x="490" y="474"/>
    </contour>
    <contour>
      <point x="426" y="732" type="line"/>
      <point x="323" y="589" type="line"/>
      <point x="230" y="589" type="line"/>
      <point x="126" y="732" type="line"/>
      <point x="210" y="732" type="line"/>
      <point x="279" y="636" type="line"/>
      <point x="349" y="732" type="line"/>
    </contour>
  </outline>
</glyph>
<glyph name="Dcaron" format="1">
  <advance width="704"/>
  <unicode hex="010E"/>
  <outline>
    <contour>
      <point x="173" y="634" type="line"/>
      <point x="173" y="80" type="line"/>
      <point x="331" y="80" type="line" smooth="yes"/>
      <point x="396" y="80"/>
      <point x="571" y="98"/>
      <point x="571" y="361" type="curve" smooth="yes"/>
      <point x="571" y="531"/>
      <point x="508" y="634"/>
      <point x="333" y="634" type="curve" smooth="yes"/>
    </contour>
    <contour>
      <point x="78" y="0" type="line"/>
      <point x="78" y="714" type="line"/>
      <point x="323" y="714" type="line" smooth="yes"/>
      <point x="543" y="714"/>
      <point x="666" y="603"/>
      <point x="666" y="374" type="curve" smooth="yes"/>
      <point x="666" y="135"/>
      <point x="561" y="0"/>
      <point x="323" y="0" type="curve" smooth="yes"/>
    </contour>
    <contour>
      <point x="467" y="922" type="line"/>
      <point x="364" y="779" type="line"/>
      <point x="271" y="779" type="line"/>
      <point x="167" y="922" type="line"/>
      <point x="251" y="922" type="line"/>
      <point x="320" y="826" type="line"/>
      <point x="390" y="922" type="line"/>
    </contour>
  </outline>
</glyph>
<glyph name="Dcroat" format="1">
  <advance width="704"/>
  <unicode hex="0110"/>
  <outline>
    <contour>
      <point x="173" y="634" type="line"/>
      <point x="173" y="407" type="line"/>
      <point x="387" y="407" type="line"/>
      <point x="387" y="339" type="line"/>
      <point x="173" y="339" type="line"/>
      <point x="173" y="80" type="line"/>
      <point x="331" y="80" type="line" smooth="yes"/>
      <point x="396" y="80"/>
      <point x="571" y="98"/>
      <point x="571" y="361" type="curve" smooth="yes"/>
      <point x="571" y="531"/>
      <point x="508" y="634"/>
      <point x="333" y="634" type="curve" smooth="yes"/>
    </contour>
    <contour>
      <point x="78" y="0" type="line"/>
      <point x="78" y="339" type="line"/>
      <point x="8" y="339" type="line"/>
      <point x="8" y="407" type="line"/>
      <point x="78" y="407" type="line"/>
      <point x="78" y="714" type="line"/>
      <point x="323" y="714" type="line" smooth="yes"/>
      <point x="543" y="714"/>
      <point x="666" y="603"/>
      <point x="666" y="374" type="curve" smooth="yes"/>
      <point x="666" y="135"/>
      <point x="561" y="0"/>
      <point x="323" y="0" type="curve" smooth="yes"/>
    </contour>
  </outline>
</glyph>
<glyph name="Ebreve" format="1">
  <advance width="611"/>
  <unicode hex="0114"/>
  <outline>
    <contour>
      <point x="78" y="0" type="line"/>
      <point x="78" y="714" type="line"/>
      <point x="571" y="714" type="line"/>
      <point x="571" y="634" type="line"/>
      <point x="173" y="634" type="line"/>
      <point x="173" y="407" type="line"/>
      <point x="544" y="407" type="line"/>
      <point x="544" y="327" type="line"/>
      <point x="173" y="327" type="line"/>
      <point x="173" y="80" type="line"/>
      <point x="574" y="80" type="line"/>
      <point x="574" y="0" type="line"/>
    </contour>
    <contour>
      <point x="163" y="919" type="curve"/>
      <point x="213" y="919" type="line"/>
      <point x="229" y="864"/>
      <point x="266" y="836"/>
      <point x="325" y="836" type="curve" smooth="yes"/>
      <point x="382" y="836"/>
      <point x="404" y="868"/>
      <point x="424" y="919" type="curve"/>
      <point x="475" y="919" type="line"/>
      <point x="460" y="834"/>
      <point x="405" y="781"/>
      <point x="317" y="781" type="curve" smooth="yes"/>
      <point x="225" y="781"/>
      <point x="176" y="830"/>
    </contour>
  </outline>
</glyph>
<glyph name="ebreve" format="1">
  <advance width="537"/>
  <unicode hex="0115"/>
  <outline>
    <contour>
      <point x="126" y="308" type="curve"/>
      <point x="423" y="308" type="line"/>
      <point x="418" y="389"/>
      <point x="359" y="454"/>
      <point x="274" y="454" type="curve" smooth="yes"/>
      <point x="186" y="454"/>
      <point x="131" y="388"/>
    </contour>
    <contour>
      <point x="421" y="164" type="curve"/>
      <point x="505" y="164" type="line"/>
      <point x="482" y="49"/>
      <point x="401" y="-12"/>
      <point x="284" y="-12" type="curve" smooth="yes"/>
      <point x="119" y="-12"/>
      <point x="41" y="103"/>
      <point x="36" y="260" type="curve"/>
      <point x="36" y="416"/>
      <point x="138" y="529"/>
      <point x="279" y="529" type="curve" smooth="yes"/>
      <point x="462" y="529"/>
      <point x="518" y="358"/>
      <point x="513" y="233" type="curve"/>
      <point x="126" y="233" type="line"/>
      <point x="123" y="143"/>
      <point x="174" y="63"/>
      <point x="287" y="63" type="curve" smooth="yes"/>
      <point x="358" y="63"/>
      <point x="406" y="96"/>
    </contour>
    <contour>
      <point x="124" y="729" type="curve"/>
      <point x="174" y="729" type="line"/>
      <point x="190" y="674"/>
      <point x="227" y="646"/>
      <point x="286" y="646" type="curve" smooth="yes"/>
      <point x="343" y="646"/>
      <point x="365" y="678"/>
      <point x="385" y="729" type="curve"/>
      <point x="436" y="729" type="line"/>
      <point x="421" y="644"/>
      <point x="366" y="591"/>
      <point x="278" y="591" type="curve" smooth="yes"/>
      <point x="186" y="591"/>
      <point x="137" y="640"/>
    </contour>
  </outline>
</glyph>
<glyph name="edotaccent" format="1">
  <advance width="537"/>
  <unicode hex="0117"/>
  <outline>
    <contour>
      <point x="126" y="308" type="curve"/>
      <point x="423" y="308" type="line"/>
      <point x="418" y="389"/>
      <point x="359" y="454"/>
      <point x="274" y="454" type="curve" smooth="yes"/>
      <point x="186" y="454"/>
      <point x="131" y="388"/>
    </contour>
    <contour>
      <point x="421" y="164" type="curve"/>
      <point x="505" y="164" type="line"/>
      <point x="482" y="49"/>
      <point x="401" y="-12"/>
      <point x="284" y="-12" type="curve" smooth="yes"/>
      <point x="119" y="-12"/>
      <point x="41" y="103"/>
      <point x="36" y="260" type="curve"/>
      <point x="36" y="416"/>
      <point x="138" y="529"/>
      <point x="279" y="529" type="curve" smooth="yes"/>
      <point x="462" y="529"/>
      <point x="518" y="358"/>
      <point x="513" y="233" type="curve"/>
      <point x="126" y="233" type="line"/>
      <point x="123" y="143"/>
      <point x="174" y="63"/>
      <point x="287" y="63" type="curve" smooth="yes"/>
      <point x="358" y="63"/>
      <point x="406" y="96"/>
    </contour>
    <contour>
      <point x="325" y="708" type="line"/>
      <point x="325" y="604" type="line"/>
      <point x="235" y="604" type="line"/>
      <point x="235" y="708" type="line"/>
    </contour>
  </outline>
</glyph>
<glyph name="Eogonek" format="1">
  <advance width="611"/>
  <unicode hex="0118"/>
  <outline>
    <contour>
      <point x="574" y="0" type="line"/>
      <point x="526" y="0" type="line"/>
      <point x="458" y="-57"/>
      <point x="442" y="-88"/>
      <point x="442" y="-118" type="curve" smooth="yes"/>
      <point x="442" y="-139"/>
      <point x="453" y="-160"/>
      <point x="480" y="-160" type="curve" smooth="yes"/>
      <point x="511" y="-160"/>
      <point x="527" y="-149"/>
      <point x="542" y="-130" type="curve"/>
      <point x="574" y="-148" type="line"/>
      <point x="547" y="-195"/>
      <point x="507" y="-210"/>
      <point x="466" y="-210" type="curve" smooth="yes"/>
      <point x="442" y="-210"/>
      <point x="374" y="-208"/>
      <point x="374" y="-128" type="curve" smooth="yes"/>
      <point x="374" y="-112"/>
      <point x="388" y="-54"/>
      <point x="486" y="0" type="curve"/>
      <point x="78" y="0" type="line"/>
      <point x="78" y="714" type="line"/>
      <point x="571" y="714" type="line"/>
      <point x="571" y="634" type="line"/>
      <point x="173" y="634" type="line"/>
      <point x="173" y="407" type="line"/>
      <point x="544" y="407" type="line"/>
      <point x="544" y="327" type="line"/>
      <point x="173" y="327" type="line"/>
      <point x="173" y="80" type="line"/>
      <point x="574" y="80" type="line"/>
    </contour>
  </outline>
</glyph>
<glyph name="eogonek" format="1">
  <advance width="537"/>
  <unicode hex="0119"/>
  <outline>
    <contour>
      <point x="421" y="164" type="curve"/>
      <point x="505" y="164" type="line"/>
      <point x="494" y="107"/>
      <point x="469" y="63"/>
      <point x="430" y="33" type="curve" smooth="yes"/>
      <point x="398" y="8"/>
      <point x="359" y="-6"/>
      <point x="313" y="-10" type="curve"/>
      <point x="302" y="-21"/>
      <point x="292" y="-30"/>
      <point x="284" y="-38" type="curve" smooth="yes"/>
      <point x="251" y="-71"/>
      <point x="242" y="-97"/>
      <point x="242" y="-118" type="curve" smooth="yes"/>
      <point x="242" y="-139"/>
      <point x="253" y="-160"/>
      <point x="280" y="-160" type="curve" smooth="yes"/>
      <point x="311" y="-160"/>
      <point x="327" y="-149"/>
      <point x="342" y="-130" type="curve"/>
      <point x="374" y="-148" type="line"/>
      <point x="347" y="-195"/>
      <point x="307" y="-210"/>
      <point x="266" y="-210" type="curve" smooth="yes"/>
      <point x="242" y="-210"/>
      <point x="174" y="-208"/>
      <point x="174" y="-128" type="curve" smooth="yes"/>
      <point x="174" y="-113"/>
      <point x="182" y="-83"/>
      <point x="227" y="-40" type="curve" smooth="yes"/>
      <point x="238" y="-31"/>
      <point x="251" y="-21"/>
      <point x="266" y="-11" type="curve"/>
      <point x="232" y="-10"/>
      <point x="202" y="-3"/>
      <point x="176" y="8" type="curve" smooth="yes"/>
      <point x="85" y="51"/>
      <point x="40" y="140"/>
      <point x="36" y="260" type="curve"/>
      <point x="36" y="416"/>
      <point x="138" y="529"/>
      <point x="279" y="529" type="curve" smooth="yes"/>
      <point x="462" y="529"/>
      <point x="518" y="358"/>
      <point x="513" y="233" type="curve"/>
      <point x="126" y="233" type="line"/>
      <point x="123" y="143"/>
      <point x="174" y="63"/>
      <point x="287" y="63" type="curve" smooth="yes"/>
      <point x="358" y="63"/>
      <point x="406" y="96"/>
    </contour>
    <contour>
      <point x="126" y="308" type="curve"/>
      <point x="423" y="308" type="line"/>
      <point x="418" y="389"/>
      <point x="359" y="454"/>
      <point x="274" y="454" type="curve" smooth="yes"/>
      <point x="186" y="454"/>
      <point x="131" y="388"/>
    </contour>
  </outline>
</glyph>
<glyph name="ecaron" format="1">
  <advance width="537"/>
  <unicode hex="011B"/>
  <outline>
    <contour>
      <point x="126" y="308" type="curve"/>
      <point x="423" y="308" type="line"/>
      <point x="418" y="389"/>
      <point x="359" y="454"/>
      <point x="274" y="454" type="curve" smooth="yes"/>
      <point x="186" y="454"/>
      <point x="131" y="388"/>
    </contour>
    <contour>
      <point x="421" y="164" type="curve"/>
      <point x="505" y="164" type="line"/>
      <point x="482" y="49"/>
      <point x="401" y="-12"/>
      <point x="284" y="-12" type="curve" smooth="yes"/>
      <point x="119" y="-12"/>
      <point x="41" y="103"/>
      <point x="36" y="260" type="curve"/>
      <point x="36" y="416"/>
      <point x="138" y="529"/>
      <point x="279" y="529" type="curve" smooth="yes"/>
      <point x="462" y="529"/>
      <point x="518" y="358"/>
      <point x="513" y="233" type="curve"/>
      <point x="126" y="233" type="line"/>
      <point x="123" y="143"/>
      <point x="174" y="63"/>
      <point x="287" y="63" type="curve" smooth="yes"/>
      <point x="358" y="63"/>
      <point x="406" y="96"/>
    </contour>
    <contour>
      <point x="426" y="732" type="line"/>
      <point x="323" y="589" type="line"/>
      <point x="230" y="589" type="line"/>
      <point x="126" y="732" type="line"/>
      <point x="210" y="732" type="line"/>
      <point x="279" y="636" type="line"/>
      <point x="349" y="732" type="line"/>
    </contour>
  </outline>
</glyph>
<glyph name="Gcircumflex" format="1">
  <advance width="759"/>
  <unicode hex="011C"/>
  <outline>
    <contour>
      <point x="637" y="0" type="line"/>
      <point x="612" y="89" type="line"/>
      <point x="556" y="15"/>
      <point x="466" y="-17"/>
      <point x="383" y="-17" type="curve" smooth="yes"/>
      <point x="170" y="-17"/>
      <point x="43" y="156"/>
      <point x="43" y="343" type="curve" smooth="yes"/>
      <point x="43" y="551"/>
      <point x="157" y="731"/>
      <point x="383" y="731" type="curve" smooth="yes"/>
      <point x="538" y="731"/>
      <point x="664" y="661"/>
      <point x="690" y="494" type="curve"/>
      <point x="595" y="494" type="line"/>
      <point x="576" y="602"/>
      <point x="490" y="651"/>
      <point x="383" y="651" type="curve" smooth="yes"/>
      <point x="210" y="651"/>
      <point x="138" y="500"/>
      <point x="138" y="348" type="curve" smooth="yes"/>
      <point x="138" y="199"/>
      <point x="224" y="63"/>
      <point x="383" y="63" type="curve" smooth="yes"/>
      <point x="531" y="63"/>
      <point x="617" y="165"/>
      <point x="612" y="296" type="curve"/>
      <point x="384" y="296" type="line"/>
      <point x="384" y="376" type="line"/>
      <point x="697" y="376" type="line"/>
      <point x="697" y="0" type="line"/>
    </contour>
    <contour>
      <point x="243" y="779" type="line"/>
      <point x="346" y="922" type="line"/>
      <point x="439" y="922" type="line"/>
      <point x="543" y="779" type="line"/>
      <point x="459" y="779" type="line"/>
      <point x="390" y="875" type="line"/>
      <point x="320" y="779" type="line"/>
    </contour>
  </outline>
</glyph>
<glyph name="Gbreve" format="1">
  <advance width="759"/>
  <unicode hex="011E"/>
  <outline>
    <contour>
      <point x="637" y="0" type="line"/>
      <point x="612" y="89" type="line"/>
      <point x="556" y="15"/>
      <point x="466" y="-17"/>
      <point x="383" y="-17" type="curve" smooth="yes"/>
      <point x="170" y="-17"/>
      <point x="43" y="156"/>
      <point x="43" y="343" type="curve" smooth="yes"/>
      <point x="43" y="551"/>
      <point x="157" y="731"/>
      <point x="383" y="731" type="curve" smooth="yes"/>
      <point x="538" y="731"/>
      <point x="664" y="661"/>
      <point x="690" y="494" type="curve"/>
      <point x="595" y="494" type="line"/>
      <point x="576" y="602"/>
      <point x="490" y="651"/>
      <point x="383" y="651" type="curve" smooth="yes"/>
      <point x="210" y="651"/>
      <point x="138" y="500"/>
      <point x="138" y="348" type="curve" smooth="yes"/>
      <point x="138" y="199"/>
      <point x="224" y="63"/>
      <point x="383" y="63" type="curve" smooth="yes"/>
      <point x="531" y="63"/>
      <point x="617" y="165"/>
      <point x="612" y="296" type="curve"/>
      <point x="384" y="296" type="line"/>
      <point x="384" y="376" type="line"/>
      <point x="697" y="376" type="line"/>
      <point x="697" y="0" type="line"/>
    </contour>
    <contour>
      <point x="225" y="919" type="curve"/>
      <point x="275" y="919" type="line"/>
      <point x="291" y="864"/>
      <point x="328" y="836"/>
      <point x="387" y="836" type="curve" smooth="yes"/>
      <point x="444" y="836"/>
      <point x="466" y="868"/>
      <point x="486" y="919" type="curve"/>
      <point x="537" y="919" type="line"/>
      <point x="522" y="834"/>
      <point x="467" y="781"/>
      <point x="379" y="781" type="curve" smooth="yes"/>
      <point x="287" y="781"/>
      <point x="238" y="830"/>
    </contour>
  </outline>
</glyph>
<glyph name="Gcommaaccent" format="1">
  <advance width="759"/>
  <unicode hex="0122"/>
  <outline>
    <contour>
      <point x="637" y="0" type="line"/>
      <point x="612" y="89" type="line"/>
      <point x="556" y="15"/>
      <point x="466" y="-17"/>
      <point x="383" y="-17" type="curve" smooth="yes"/>
      <point x="170" y="-17"/>
      <point x="43" y="156"/>
      <point x="43" y="343" type="curve" smooth="yes"/>
      <point x="43" y="551"/>
      <point x="157" y="731"/>
      <point x="383" y="731" type="curve" smooth="yes"/>
      <point x="538" y="731"/>
      <point x="664" y="661"/>
      <point x="690" y="494" type="curve"/>
      <point x="595" y="494" type="line"/>
      <point x="576" y="602"/>
      <point x="490" y="651"/>
      <point x="383" y="651" type="curve" smooth="yes"/>
      <point x="210" y="651"/>
      <point x="138" y="500"/>
      <point x="138" y="348" type="curve" smooth="yes"/>
      <point x="138" y="199"/>
      <point x="224" y="63"/>
      <point x="383" y="63" type="curve" smooth="yes"/>
      <point x="531" y="63"/>
      <point x="617" y="165"/>
      <point x="612" y="296" type="curve"/>
      <point x="384" y="296" type="line"/>
      <point x="384" y="376" type="line"/>
      <point x="697" y="376" type="line"/>
      <point x="697" y="0" type="line"/>
    </contour>
    <contour>
      <point x="321" y="-138" type="line"/>
      <point x="321" y="-50" type="line"/>
      <point x="432" y="-50" type="line"/>
      <point x="432" y="-127" type="line" smooth="yes"/>
      <point x="432" y="-184"/>
      <point x="392" y="-210"/>
      <point x="333" y="-210" type="curve"/>
      <point x="333" y="-175" type="line"/>
      <point x="374" y="-164"/>
      <point x="373" y="-150"/>
      <point x="373" y="-138" type="curve"/>
    </contour>
  </outline>
</glyph>
<glyph name="gcommaaccent" format="1">
  <advance width="574"/>
  <unicode hex="0123"/>
  <outline>
    <contour>
      <point x="510" y="517" type="line"/>
      <point x="510" y="44" type="line" smooth="yes"/>
      <point x="510" y="-125"/>
      <point x="434" y="-210"/>
      <point x="270" y="-210" type="curve" smooth="yes"/>
      <point x="173" y="-210"/>
      <point x="61" y="-170"/>
      <point x="56" y="-58" type="curve"/>
      <point x="141" y="-58" type="line"/>
      <point x="144" y="-119"/>
      <point x="220" y="-142"/>
      <point x="275" y="-142" type="curve" smooth="yes"/>
      <point x="386" y="-142"/>
      <point x="430" y="-62"/>
      <point x="430" y="54" type="curve" smooth="yes"/>
      <point x="430" y="88" type="line"/>
      <point x="428" y="88" type="line"/>
      <point x="399" y="25"/>
      <point x="333" y="-6"/>
      <point x="267" y="-6" type="curve" smooth="yes"/>
      <point x="113" y="-6"/>
      <point x="36" y="115"/>
      <point x="36" y="256" type="curve" smooth="yes"/>
      <point x="36" y="378"/>
      <point x="95" y="529"/>
      <point x="275" y="529" type="curve" smooth="yes"/>
      <point x="340" y="529"/>
      <point x="398" y="500"/>
      <point x="429" y="443" type="curve"/>
      <point x="430" y="443" type="line"/>
      <point x="430" y="517" type="line"/>
    </contour>
    <contour>
      <point x="272" y="69" type="curve" smooth="yes"/>
      <point x="384" y="69"/>
      <point x="426" y="172"/>
      <point x="426" y="269" type="curve" smooth="yes"/>
      <point x="426" y="360"/>
      <point x="386" y="454"/>
      <point x="279" y="454" type="curve" smooth="yes"/>
      <point x="170" y="454"/>
      <point x="126" y="365"/>
      <point x="126" y="266" type="curve" smooth="yes"/>
      <point x="126" y="173"/>
      <point x="160" y="69"/>
    </contour>
    <contour>
      <point x="341" y="714" type="line"/>
      <point x="341" y="626" type="line"/>
      <point x="230" y="626" type="line"/>
      <point x="230" y="703" type="line" smooth="yes"/>
      <point x="230" y="760"/>
      <point x="270" y="786"/>
      <point x="329" y="786" type="curve"/>
      <point x="329" y="751" type="line"/>
      <point x="288" y="740"/>
      <point x="289" y="726"/>
      <point x="289" y="714" type="curve"/>
    </contour>
  </outline>
</glyph>
<glyph name="Hcircumflex" format="1">
  <advance width="722"/>
  <unicode hex="0124"/>
  <outline>
    <contour>
      <point x="78" y="0" type="line"/>
      <point x="78" y="714" type="line"/>
      <point x="173" y="714" type="line"/>
      <point x="173" y="407" type="line"/>
      <point x="549" y="407" type="line"/>
      <point x="549" y="714" type="line"/>
      <point x="644" y="714" type="line"/>
      <point x="644" y="0" type="line"/>
      <point x="549" y="0" type="line"/>
      <point x="549" y="327" type="line"/>
      <point x="173" y="327" type="line"/>
      <point x="173" y="0" type="line"/>
    </contour>
    <contour>
      <point x="209" y="779" type="line"/>
      <point x="312" y="922" type="line"/>
      <point x="405" y="922" type="line"/>
      <point x="509" y="779" type="line"/>
      <point x="425" y="779" type="line"/>
      <point x="356" y="875" type="line"/>
      <point x="286" y="779" type="line"/>
    </contour>
  </outline>
</glyph>
<glyph name="hcircumflex" format="1">
  <advance width="556"/>
  <unicode hex="0125"/>
  <outline>
    <contour>
      <point x="64" y="0" type="line"/>
      <point x="64" y="714" type="line"/>
      <point x="149" y="714" type="line"/>
      <point x="149" y="441" type="line"/>
      <point x="151" y="441" type="line"/>
      <point x="178" y="504"/>
      <point x="253" y="529"/>
      <point x="314" y="529" type="curve" smooth="yes"/>
      <point x="450" y="529"/>
      <point x="492" y="451"/>
      <point x="492" y="340" type="curve" smooth="yes"/>
      <point x="492" y="0" type="line"/>
      <point x="407" y="0" type="line"/>
      <point x="407" y="350" type="line" smooth="yes"/>
      <point x="407" y="414"/>
      <point x="367" y="454"/>
      <point x="302" y="454" type="curve" smooth="yes"/>
      <point x="199" y="454"/>
      <point x="149" y="385"/>
      <point x="149" y="292" type="curve" smooth="yes"/>
      <point x="149" y="0" type="line"/>
    </contour>
    <contour>
      <point x="128" y="779" type="line"/>
      <point x="231" y="922" type="line"/>
      <point x="324" y="922" type="line"/>
      <point x="428" y="779" type="line"/>
      <point x="344" y="779" type="line"/>
      <point x="275" y="875" type="line"/>
      <point x="205" y="779" type="line"/>
    </contour>
  </outline>
</glyph>
<glyph name="Hbar" format="1">
  <advance width="722"/>
  <unicode hex="0126"/>
  <outline>
    <contour>
      <point x="78" y="0" type="line"/>
      <point x="78" y="714" type="line"/>
      <point x="173" y="714" type="line"/>
      <point x="173" y="517" type="line"/>
      <point x="549" y="517" type="line"/>
      <point x="549" y="714" type="line"/>
      <point x="644" y="714" type="line"/>
      <point x="644" y="0" type="line"/>
      <point x="549" y="0" type="line"/>
      <point x="549" y="317" type="line"/>
      <point x="173" y="317" type="line"/>
      <point x="173" y="0" type="line"/>
    </contour>
    <contour>
      <point x="173" y="397" type="line"/>
      <point x="549" y="397" type="line"/>
      <point x="549" y="462" type="line"/>
      <point x="173" y="462" type="line"/>
    </contour>
  </outline>
</glyph>
<glyph name="hbar" format="1">
  <advance width="566"/>
  <unicode hex="0127"/>
  <outline>
    <contour>
      <point x="-10" y="583" type="line"/>
      <point x="-10" y="638" type="line"/>
      <point x="74" y="638" type="line"/>
      <point x="74" y="714" type="line"/>
      <point x="159" y="714" type="line"/>
      <point x="159" y="638" type="line"/>
      <point x="301" y="638" type="line"/>
      <point x="301" y="583" type="line"/>
      <point x="159" y="583" type="line"/>
      <point x="159" y="441" type="line"/>
      <point x="161" y="441" type="line"/>
      <point x="188" y="504"/>
      <point x="263" y="529"/>
      <point x="324" y="529" type="curve" smooth="yes"/>
      <point x="460" y="529"/>
      <point x="502" y="451"/>
      <point x="502" y="340" type="curve" smooth="yes"/>
      <point x="502" y="0" type="line"/>
      <point x="417" y="0" type="line"/>
      <point x="417" y="350" type="line" smooth="yes"/>
      <point x="417" y="414"/>
      <point x="377" y="454"/>
      <point x="312" y="454" type="curve" smooth="yes"/>
      <point x="209" y="454"/>
      <point x="159" y="385"/>
      <point x="159" y="292" type="curve" smooth="yes"/>
      <point x="159" y="0" type="line"/>
      <point x="74" y="0" type="line"/>
      <point x="74" y="583" type="line"/>
    </contour>
  </outline>
</glyph>
<glyph name="Itilde" format="1">
  <advance width="259"/>
  <unicode hex="0128"/>
  <outline>
    <contour>
      <point x="82" y="0" type="line"/>
      <point x="82" y="714" type="line"/>
      <point x="177" y="714" type="line"/>
      <point x="177" y="0" type="line"/>
    </contour>
    <contour>
      <point x="250" y="907" type="curve"/>
      <point x="302" y="907" type="line"/>
      <point x="298" y="878"/>
      <point x="287" y="851"/>
      <point x="270" y="828" type="curve" smooth="yes"/>
      <point x="253" y="807"/>
      <point x="232" y="796"/>
      <point x="201" y="796" type="curve" smooth="yes"/>
      <point x="173" y="796"/>
      <point x="150" y="805"/>
      <point x="126" y="816" type="curve" smooth="yes"/>
      <point x="102" y="825"/>
      <point x="79" y="835"/>
      <point x="60" y="835" type="curve" smooth="yes"/>
      <point x="49" y="835"/>
      <point x="37" y="831"/>
      <point x="29" y="823" type="curve" smooth="yes"/>
      <point x="21" y="816"/>
      <point x="18" y="810"/>
      <point x="11" y="793" type="curve"/>
      <point x="-41" y="793" type="line"/>
      <point x="-28" y="854"/>
      <point x="2" y="903"/>
      <point x="65" y="903" type="curve" smooth="yes"/>
      <point x="118" y="903"/>
      <point x="161" y="863"/>
      <point x="204" y="863" type="curve" smooth="yes"/>
      <point x="228" y="863"/>
      <point x="242" y="880"/>
    </contour>
  </outline>
</glyph>
<glyph name="itilde" format="1">
  <advance width="222"/>
  <unicode hex="0129"/>
  <outline>
    <contour>
      <point x="154" y="0" type="line"/>
      <point x="69" y="0" type="line"/>
      <point x="69" y="517" type="line"/>
      <point x="154" y="517" type="line"/>
    </contour>
    <contour>
      <point x="232" y="717" type="curve"/>
      <point x="284" y="717" type="line"/>
      <point x="280" y="688"/>
      <point x="269" y="661"/>
      <point x="252" y="638" type="curve" smooth="yes"/>
      <point x="235" y="617"/>
      <point x="214" y="606"/>
      <point x="183" y="606" type="curve" smooth="yes"/>
      <point x="155" y="606"/>
      <point x="132" y="615"/>
      <point x="108" y="626" type="curve" smooth="yes"/>
      <point x="84" y="635"/>
      <point x="61" y="645"/>
      <point x="42" y="645" type="curve" smooth="yes"/>
      <point x="31" y="645"/>
      <point x="19" y="641"/>
      <point x="11" y="633" type="curve" smooth="yes"/>
      <point x="3" y="626"/>
      <point x="0" y="620"/>
      <point x="-7" y="603" type="curve"/>
      <point x="-59" y="603" type="line"/>
      <point x="-46" y="664"/>
      <point x="-16" y="713"/>
      <point x="47" y="713" type="curve" smooth="yes"/>
      <point x="100" y="713"/>
      <point x="143" y="673"/>
      <point x="186" y="673" type="curve" smooth="yes"/>
      <point x="210" y="673"/>
      <point x="224" y="690"/>
    </contour>
  </outline>
</glyph>
<glyph name="Imacron" format="1">
  <advance width="259"/>
  <unicode hex="012A"/>
  <outline>
    <contour>
      <point x="82" y="0" type="line"/>
      <point x="82" y="714" type="line"/>
      <point x="177" y="714" type="line"/>
      <point x="177" y="0" type="line"/>
    </contour>
    <contour>
      <point x="-40" y="817" type="line"/>
      <point x="-40" y="872" type="line"/>
      <point x="301" y="872" type="line"/>
      <point x="301" y="817" type="line"/>
    </contour>
  </outline>
</glyph>
<glyph name="imacron" format="1">
  <advance width="222"/>
  <unicode hex="012B"/>
  <outline>
    <contour>
      <point x="154" y="0" type="line"/>
      <point x="69" y="0" type="line"/>
      <point x="69" y="517" type="line"/>
      <point x="154" y="517" type="line"/>
    </contour>
    <contour>
      <point x="-58" y="627" type="line"/>
      <point x="-58" y="682" type="line"/>
      <point x="283" y="682" type="line"/>
      <point x="283" y="627" type="line"/>
    </contour>
  </outline>
</glyph>
<glyph name="Iogonek" format="1">
  <advance width="259"/>
  <unicode hex="012E"/>
  <outline>
    <contour>
      <point x="82" y="0" type="line"/>
      <point x="82" y="714" type="line"/>
      <point x="177" y="714" type="line"/>
      <point x="177" y="0" type="line"/>
      <point x="117" y="-58"/>
      <point x="102" y="-87"/>
      <point x="102" y="-118" type="curve" smooth="yes"/>
      <point x="102" y="-143"/>
      <point x="115" y="-160"/>
      <point x="136" y="-160" type="curve" smooth="yes"/>
      <point x="161" y="-160"/>
      <point x="177" y="-149"/>
      <point x="192" y="-130" type="curve"/>
      <point x="220" y="-148" type="line"/>
      <point x="195" y="-193"/>
      <point x="165" y="-210"/>
      <point x="129" y="-210" type="curve" smooth="yes"/>
      <point x="109" y="-210"/>
      <point x="40" y="-208"/>
      <point x="40" y="-128" type="curve" smooth="yes"/>
      <point x="40" y="-109"/>
      <point x="53" y="-55"/>
      <point x="141" y="0" type="curve"/>
    </contour>
  </outline>
</glyph>
<glyph name="iogonek" format="1">
  <advance width="222"/>
  <unicode hex="012F"/>
  <outline>
    <contour>
      <point x="154" y="517" type="line"/>
      <point x="154" y="0" type="line"/>
      <point x="94" y="-58"/>
      <point x="79" y="-87"/>
      <point x="79" y="-118" type="curve" smooth="yes"/>
      <point x="79" y="-139"/>
      <point x="89" y="-160"/>
      <point x="113" y="-160" type="curve" smooth="yes"/>
      <point x="140" y="-160"/>
      <point x="156" y="-149"/>
      <point x="169" y="-130" type="curve"/>
      <point x="197" y="-148" type="line"/>
      <point x="173" y="-195"/>
      <point x="137" y="-210"/>
      <point x="100" y="-210" type="curve" smooth="yes"/>
      <point x="79" y="-210"/>
      <point x="17" y="-208"/>
      <point x="17" y="-128" type="curve" smooth="yes"/>
      <point x="17" y="-111"/>
      <point x="31" y="-55"/>
      <point x="118" y="0" type="curve"/>
      <point x="69" y="0" type="line"/>
      <point x="69" y="517" type="line"/>
    </contour>
    <contour>
      <point x="154" y="714" type="line"/>
      <point x="154" y="610" type="line"/>
      <point x="69" y="610" type="line"/>
      <point x="69" y="714" type="line"/>
    </contour>
  </outline>
</glyph>
<glyph name="Idotaccent" format="1">
  <advance width="259"/>
  <unicode hex="0130"/>
  <outline>
    <contour>
      <point x="82" y="0" type="line"/>
      <point x="82" y="714" type="line"/>
      <point x="177" y="714" type="line"/>
      <point x="177" y="0" type="line"/>
    </contour>
    <contour>
      <point x="175" y="898" type="line"/>
      <point x="175" y="794" type="line"/>
      <point x="85" y="794" type="line"/>
      <point x="85" y="898" type="line"/>
    </contour>
  </outline>
</glyph>
<glyph name="IJ" format="1">
  <advance width="780"/>
  <unicode hex="0132"/>
  <outline>
    <contour>
      <point x="82" y="0" type="line"/>
      <point x="82" y="714" type="line"/>
      <point x="177" y="714" type="line"/>
      <point x="177" y="0" type="line"/>
    </contour>
    <contour>
      <point x="702" y="714" type="line"/>
      <point x="702" y="178" type="line" smooth="yes"/>
      <point x="702" y="82"/>
      <point x="651" y="-17"/>
      <point x="491" y="-17" type="curve" smooth="yes"/>
      <point x="358" y="-17"/>
      <point x="283" y="56"/>
      <point x="283" y="191" type="curve" smooth="yes"/>
      <point x="283" y="235" type="line"/>
      <point x="378" y="235" type="line"/>
      <point x="378" y="205" type="line" smooth="yes"/>
      <point x="378" y="122"/>
      <point x="400" y="63"/>
      <point x="493" y="63" type="curve" smooth="yes"/>
      <point x="580" y="63"/>
      <point x="607" y="113"/>
      <point x="607" y="192" type="curve" smooth="yes"/>
      <point x="607" y="714" type="line"/>
    </contour>
  </outline>
</glyph>
<glyph name="ij" format="1">
  <advance width="430"/>
  <unicode hex="0133"/>
  <outline>
    <contour>
      <point x="154" y="714" type="line"/>
      <point x="154" y="610" type="line"/>
      <point x="69" y="610" type="line"/>
      <point x="69" y="714" type="line"/>
    </contour>
    <contour>
      <point x="69" y="0" type="line"/>
      <point x="69" y="517" type="line"/>
      <point x="154" y="517" type="line"/>
      <point x="154" y="0" type="line"/>
    </contour>
    <contour>
      <point x="362" y="714" type="line"/>
      <point x="362" y="610" type="line"/>
      <point x="277" y="610" type="line"/>
      <point x="277" y="714" type="line"/>
    </contour>
    <contour>
      <point x="362" y="517" type="line"/>
      <point x="362" y="-66" type="line" smooth="yes"/>
      <point x="362" y="-158"/>
      <point x="314" y="-198"/>
      <point x="238" y="-198" type="curve" smooth="yes"/>
      <point x="223" y="-198"/>
      <point x="209" y="-197"/>
      <point x="194" y="-194" type="curve"/>
      <point x="194" y="-121" type="line"/>
      <point x="200" y="-122"/>
      <point x="206" y="-123"/>
      <point x="211" y="-123" type="curve" smooth="yes"/>
      <point x="229" y="-123" type="line" smooth="yes"/>
      <point x="266" y="-123"/>
      <point x="277" y="-105"/>
      <point x="277" y="-52" type="curve" smooth="yes"/>
      <point x="277" y="517" type="line"/>
    </contour>
  </outline>
</glyph>
